<svg width="30" height="30" viewBox="0 0 30 30" fill="none" xmlns="http://www.w3.org/2000/svg">
<path d="M24.3641 4.35669C24.0337 4.36449 23.7199 4.50273 23.4913 4.74121L15 13.2324L6.50883 4.74121C6.3922 4.62132 6.2527 4.52605 6.09859 4.46105C5.94447 4.39605 5.77888 4.36264 5.61162 4.36279C5.36306 4.3631 5.12023 4.4375 4.91415 4.57648C4.70808 4.71547 4.54812 4.91273 4.4547 5.14307C4.36128 5.37341 4.33864 5.62637 4.38968 5.86963C4.44073 6.1129 4.56313 6.33543 4.74126 6.50879L13.2325 15L4.74126 23.4912C4.62129 23.6064 4.52551 23.7444 4.45953 23.897C4.39355 24.0497 4.35869 24.214 4.357 24.3803C4.35531 24.5466 4.38681 24.7115 4.44967 24.8655C4.51254 25.0195 4.60549 25.1594 4.72309 25.277C4.84069 25.3946 4.98057 25.4875 5.13454 25.5504C5.28851 25.6132 5.45348 25.6447 5.61978 25.643C5.78608 25.6414 5.95037 25.6065 6.10303 25.5405C6.25569 25.4745 6.39365 25.3788 6.50883 25.2588L15 16.7676L23.4913 25.2588C23.6064 25.3788 23.7444 25.4745 23.8971 25.5405C24.0497 25.6065 24.214 25.6414 24.3803 25.6431C24.5466 25.6447 24.7116 25.6132 24.8656 25.5504C25.0195 25.4875 25.1594 25.3946 25.277 25.277C25.3946 25.1594 25.4876 25.0195 25.5504 24.8655C25.6133 24.7115 25.6448 24.5466 25.6431 24.3803C25.6414 24.214 25.6065 24.0497 25.5406 23.897C25.4746 23.7444 25.3788 23.6064 25.2588 23.4912L16.7676 15L25.2588 6.50879C25.4407 6.33437 25.5657 6.10906 25.6173 5.86239C25.6688 5.61572 25.6447 5.35922 25.5479 5.12653C25.4512 4.89384 25.2864 4.69582 25.0751 4.55844C24.8638 4.42106 24.616 4.35073 24.3641 4.35669Z" fill="black"/>
<path d="M24.3641 4.35669C24.0337 4.36449 23.7199 4.50273 23.4913 4.74121L15 13.2324L6.50883 4.74121C6.3922 4.62132 6.2527 4.52605 6.09859 4.46105C5.94447 4.39605 5.77888 4.36264 5.61162 4.36279C5.36306 4.3631 5.12023 4.4375 4.91415 4.57648C4.70808 4.71547 4.54812 4.91273 4.4547 5.14307C4.36128 5.37341 4.33864 5.62637 4.38968 5.86963C4.44073 6.1129 4.56313 6.33543 4.74126 6.50879L13.2325 15L4.74126 23.4912C4.62129 23.6064 4.52551 23.7444 4.45953 23.897C4.39355 24.0497 4.35869 24.214 4.357 24.3803C4.35531 24.5466 4.38681 24.7115 4.44967 24.8655C4.51254 25.0195 4.60549 25.1594 4.72309 25.277C4.84069 25.3946 4.98057 25.4875 5.13454 25.5504C5.28851 25.6132 5.45348 25.6447 5.61978 25.643C5.78608 25.6414 5.95037 25.6065 6.10303 25.5405C6.25569 25.4745 6.39365 25.3788 6.50883 25.2588L15 16.7676L23.4913 25.2588C23.6064 25.3788 23.7444 25.4745 23.8971 25.5405C24.0497 25.6065 24.214 25.6414 24.3803 25.6431C24.5466 25.6447 24.7116 25.6132 24.8656 25.5504C25.0195 25.4875 25.1594 25.3946 25.277 25.277C25.3946 25.1594 25.4876 25.0195 25.5504 24.8655C25.6133 24.7115 25.6448 24.5466 25.6431 24.3803C25.6414 24.214 25.6065 24.0497 25.5406 23.897C25.4746 23.7444 25.3788 23.6064 25.2588 23.4912L16.7676 15L25.2588 6.50879C25.4407 6.33437 25.5657 6.10906 25.6173 5.86239C25.6688 5.61572 25.6447 5.35922 25.5479 5.12653C25.4512 4.89384 25.2864 4.69582 25.0751 4.55844C24.8638 4.42106 24.616 4.35073 24.3641 4.35669Z" fill="#239AE3"/>
</svg>
