<svg width="30" height="30" viewBox="0 0 30 30" fill="none" xmlns="http://www.w3.org/2000/svg">
<path d="M3.74998 5.625C3.58434 5.62266 3.41989 5.65326 3.26618 5.71503C3.11247 5.77679 2.97257 5.86849 2.8546 5.9848C2.73664 6.1011 2.64297 6.2397 2.57904 6.39252C2.5151 6.54534 2.48218 6.70934 2.48218 6.875C2.48218 7.04066 2.5151 7.20466 2.57904 7.35748C2.64297 7.5103 2.73664 7.64889 2.8546 7.7652C2.97257 7.8815 3.11247 7.97321 3.26618 8.03497C3.41989 8.09674 3.58434 8.12734 3.74998 8.125H26.25C26.4156 8.12734 26.5801 8.09674 26.7338 8.03497C26.8875 7.97321 27.0274 7.8815 27.1454 7.7652C27.2633 7.64889 27.357 7.5103 27.4209 7.35748C27.4849 7.20466 27.5178 7.04066 27.5178 6.875C27.5178 6.70934 27.4849 6.54534 27.4209 6.39252C27.357 6.2397 27.2633 6.1011 27.1454 5.9848C27.0274 5.86849 26.8875 5.77679 26.7338 5.71503C26.5801 5.65326 26.4156 5.62266 26.25 5.625H3.74998ZM3.74998 13.75C3.58434 13.7477 3.41989 13.7783 3.26618 13.84C3.11247 13.9018 2.97257 13.9935 2.8546 14.1098C2.73664 14.2261 2.64297 14.3647 2.57904 14.5175C2.5151 14.6703 2.48218 14.8343 2.48218 15C2.48218 15.1657 2.5151 15.3297 2.57904 15.4825C2.64297 15.6353 2.73664 15.7739 2.8546 15.8902C2.97257 16.0065 3.11247 16.0982 3.26618 16.16C3.41989 16.2217 3.58434 16.2523 3.74998 16.25H26.25C26.4156 16.2523 26.5801 16.2217 26.7338 16.16C26.8875 16.0982 27.0274 16.0065 27.1454 15.8902C27.2633 15.7739 27.357 15.6353 27.4209 15.4825C27.4849 15.3297 27.5178 15.1657 27.5178 15C27.5178 14.8343 27.4849 14.6703 27.4209 14.5175C27.357 14.3647 27.2633 14.2261 27.1454 14.1098C27.0274 13.9935 26.8875 13.9018 26.7338 13.84C26.5801 13.7783 26.4156 13.7477 26.25 13.75H3.74998ZM3.74998 21.875C3.58434 21.8727 3.41989 21.9033 3.26618 21.965C3.11247 22.0268 2.97257 22.1185 2.8546 22.2348C2.73664 22.3511 2.64297 22.4897 2.57904 22.6425C2.5151 22.7953 2.48218 22.9593 2.48218 23.125C2.48218 23.2907 2.5151 23.4547 2.57904 23.6075C2.64297 23.7603 2.73664 23.8989 2.8546 24.0152C2.97257 24.1315 3.11247 24.2232 3.26618 24.285C3.41989 24.3467 3.58434 24.3773 3.74998 24.375H26.25C26.4156 24.3773 26.5801 24.3467 26.7338 24.285C26.8875 24.2232 27.0274 24.1315 27.1454 24.0152C27.2633 23.8989 27.357 23.7603 27.4209 23.6075C27.4849 23.4547 27.5178 23.2907 27.5178 23.125C27.5178 22.9593 27.4849 22.7953 27.4209 22.6425C27.357 22.4897 27.2633 22.3511 27.1454 22.2348C27.0274 22.1185 26.8875 22.0268 26.7338 21.965C26.5801 21.9033 26.4156 21.8727 26.25 21.875H3.74998Z" fill="black"/>
<path d="M3.74998 5.625C3.58434 5.62266 3.41989 5.65326 3.26618 5.71503C3.11247 5.77679 2.97257 5.86849 2.8546 5.9848C2.73664 6.1011 2.64297 6.2397 2.57904 6.39252C2.5151 6.54534 2.48218 6.70934 2.48218 6.875C2.48218 7.04066 2.5151 7.20466 2.57904 7.35748C2.64297 7.5103 2.73664 7.64889 2.8546 7.7652C2.97257 7.8815 3.11247 7.97321 3.26618 8.03497C3.41989 8.09674 3.58434 8.12734 3.74998 8.125H26.25C26.4156 8.12734 26.5801 8.09674 26.7338 8.03497C26.8875 7.97321 27.0274 7.8815 27.1454 7.7652C27.2633 7.64889 27.357 7.5103 27.4209 7.35748C27.4849 7.20466 27.5178 7.04066 27.5178 6.875C27.5178 6.70934 27.4849 6.54534 27.4209 6.39252C27.357 6.2397 27.2633 6.1011 27.1454 5.9848C27.0274 5.86849 26.8875 5.77679 26.7338 5.71503C26.5801 5.65326 26.4156 5.62266 26.25 5.625H3.74998ZM3.74998 13.75C3.58434 13.7477 3.41989 13.7783 3.26618 13.84C3.11247 13.9018 2.97257 13.9935 2.8546 14.1098C2.73664 14.2261 2.64297 14.3647 2.57904 14.5175C2.5151 14.6703 2.48218 14.8343 2.48218 15C2.48218 15.1657 2.5151 15.3297 2.57904 15.4825C2.64297 15.6353 2.73664 15.7739 2.8546 15.8902C2.97257 16.0065 3.11247 16.0982 3.26618 16.16C3.41989 16.2217 3.58434 16.2523 3.74998 16.25H26.25C26.4156 16.2523 26.5801 16.2217 26.7338 16.16C26.8875 16.0982 27.0274 16.0065 27.1454 15.8902C27.2633 15.7739 27.357 15.6353 27.4209 15.4825C27.4849 15.3297 27.5178 15.1657 27.5178 15C27.5178 14.8343 27.4849 14.6703 27.4209 14.5175C27.357 14.3647 27.2633 14.2261 27.1454 14.1098C27.0274 13.9935 26.8875 13.9018 26.7338 13.84C26.5801 13.7783 26.4156 13.7477 26.25 13.75H3.74998ZM3.74998 21.875C3.58434 21.8727 3.41989 21.9033 3.26618 21.965C3.11247 22.0268 2.97257 22.1185 2.8546 22.2348C2.73664 22.3511 2.64297 22.4897 2.57904 22.6425C2.5151 22.7953 2.48218 22.9593 2.48218 23.125C2.48218 23.2907 2.5151 23.4547 2.57904 23.6075C2.64297 23.7603 2.73664 23.8989 2.8546 24.0152C2.97257 24.1315 3.11247 24.2232 3.26618 24.285C3.41989 24.3467 3.58434 24.3773 3.74998 24.375H26.25C26.4156 24.3773 26.5801 24.3467 26.7338 24.285C26.8875 24.2232 27.0274 24.1315 27.1454 24.0152C27.2633 23.8989 27.357 23.7603 27.4209 23.6075C27.4849 23.4547 27.5178 23.2907 27.5178 23.125C27.5178 22.9593 27.4849 22.7953 27.4209 22.6425C27.357 22.4897 27.2633 22.3511 27.1454 22.2348C27.0274 22.1185 26.8875 22.0268 26.7338 21.965C26.5801 21.9033 26.4156 21.8727 26.25 21.875H3.74998Z" fill="#239AE3"/>
</svg>
