<svg width="40" height="40" viewBox="0 0 40 40" fill="none" xmlns="http://www.w3.org/2000/svg">
<path d="M17.2016 1.60001C13.6484 1.60001 10.3484 2.47188 8.07656 4.00001H4.00156C2.67969 4.00001 1.60156 5.07813 1.60156 6.40001V36C1.60156 37.3219 2.67969 38.4 4.00156 38.4H30.4016C31.7234 38.4 32.8016 37.3219 32.8016 36V6.40001C32.8016 5.07813 31.7234 4.00001 30.4016 4.00001H26.3266C24.0547 2.47188 20.7516 1.60001 17.2016 1.60001ZM36.8016 6.40001C35.4797 6.40001 34.4016 7.47813 34.4016 8.80001C34.4016 10.1219 35.4797 11.2 36.8016 11.2C38.1234 11.2 39.2016 10.1219 39.2016 8.80001C39.2016 7.47813 38.1234 6.40001 36.8016 6.40001ZM36.0016 11.875V20C36.0016 20.4406 35.6422 20.8 35.2016 20.8V20C35.2016 19.1188 34.4828 18.4 33.6016 18.4V24.8C34.4828 24.8 35.2016 24.0813 35.2016 23.2V22.4C36.5234 22.4 37.6016 21.3219 37.6016 20V11.875C37.3453 11.9438 37.0797 12 36.8016 12C36.5234 12 36.2578 11.9438 36.0016 11.875ZM7.20156 12.8H12.8016V28.8H7.20156C6.76094 28.8 6.40156 28.4406 6.40156 28V13.6C6.40156 13.1594 6.76094 12.8 7.20156 12.8ZM14.4016 12.8H20.0016V28.8H14.4016V12.8ZM21.6016 12.8H27.2016C27.6422 12.8 28.0016 13.1594 28.0016 13.6V28C28.0016 28.4406 27.6422 28.8 27.2016 28.8H21.6016V12.8ZM8.65156 17.6C8.21094 17.6406 7.88594 18.0344 7.92656 18.475C7.96719 18.9156 8.36094 19.2406 8.80156 19.2H10.2516C10.0641 19.4344 9.94531 19.5125 9.67656 20.05C9.22969 20.9469 8.80156 22.275 8.80156 24C8.79844 24.2875 8.94844 24.5563 9.19844 24.7031C9.44844 24.8469 9.75469 24.8469 10.0047 24.7031C10.2547 24.5563 10.4047 24.2875 10.4016 24C10.4016 22.5406 10.7734 21.4813 11.1266 20.775C11.4797 20.0688 11.7766 19.775 11.7766 19.775C11.9266 19.6219 12.0078 19.4125 12.0016 19.2V18.4C12.0016 17.9594 11.6422 17.6 11.2016 17.6H8.80156C8.77656 17.6 8.75156 17.6 8.72656 17.6C8.70156 17.6 8.67656 17.6 8.65156 17.6ZM15.8516 17.6C15.4109 17.6406 15.0859 18.0344 15.1266 18.475C15.1672 18.9156 15.5609 19.2406 16.0016 19.2H17.4516C17.2641 19.4344 17.1453 19.5125 16.8766 20.05C16.4297 20.9469 16.0016 22.275 16.0016 24C15.9984 24.2875 16.1484 24.5563 16.3984 24.7031C16.6484 24.8469 16.9547 24.8469 17.2047 24.7031C17.4547 24.5563 17.6047 24.2875 17.6016 24C17.6016 22.5406 17.9734 21.4813 18.3266 20.775C18.6797 20.0688 18.9766 19.775 18.9766 19.775C19.1266 19.6219 19.2078 19.4125 19.2016 19.2V18.4C19.2016 17.9594 18.8422 17.6 18.4016 17.6H16.0016C15.9766 17.6 15.9516 17.6 15.9266 17.6C15.9016 17.6 15.8766 17.6 15.8516 17.6ZM23.0516 17.6C22.6109 17.6406 22.2859 18.0344 22.3266 18.475C22.3672 18.9156 22.7609 19.2406 23.2016 19.2H24.6516C24.4641 19.4344 24.3453 19.5125 24.0766 20.05C23.6297 20.9469 23.2016 22.275 23.2016 24C23.1984 24.2875 23.3484 24.5563 23.5984 24.7031C23.8484 24.8469 24.1547 24.8469 24.4047 24.7031C24.6547 24.5563 24.8047 24.2875 24.8016 24C24.8016 22.5406 25.1734 21.4813 25.5266 20.775C25.8797 20.0688 26.1766 19.775 26.1766 19.775C26.3266 19.6219 26.4078 19.4125 26.4016 19.2V18.4C26.4016 17.9594 26.0422 17.6 25.6016 17.6H23.2016C23.1766 17.6 23.1516 17.6 23.1266 17.6C23.1016 17.6 23.0766 17.6 23.0516 17.6Z" fill="#239AE3"/>
</svg>
