<svg width="100" height="100" viewBox="0 0 100 100" fill="none" xmlns="http://www.w3.org/2000/svg">
<g clip-path="url(#clip0_1_349)">
<path d="M98.0469 59.5703C99.1256 59.5703 100 58.6959 100 57.6172C100 56.5385 99.1256 55.6641 98.0469 55.6641C96.9682 55.6641 96.0938 56.5385 96.0938 57.6172C96.0938 58.6959 96.9682 59.5703 98.0469 59.5703Z" fill="white"/>
<path d="M99.4277 8.77539C99.0645 8.41211 98.5605 8.20312 98.0469 8.20312H68.3594C67.8457 8.20312 67.3418 8.41211 66.9785 8.77539C66.6152 9.13867 66.4062 9.64258 66.4062 10.1562V22.2666L48.8281 33.0363V23.8281C48.8281 20.8955 46.6625 18.4596 43.8465 18.0348C43.1088 12.2775 38.1811 7.8125 32.2266 7.8125H29.2969V1.95312C29.2969 0.874414 28.4225 0 27.3438 0C26.265 0 25.3906 0.874414 25.3906 1.95312V7.8125H22.4609C16.5068 7.8125 11.5805 12.2775 10.8428 18.0344C8.02598 18.4586 5.85938 20.8949 5.85938 23.8281V41.4062H1.95312C0.874414 41.4062 0 42.2807 0 43.3594V98.0469C0 99.1256 0.874414 100 1.95312 100H98.0469C98.5605 100 99.0645 99.791 99.4277 99.4277C99.791 99.0645 100 98.5605 100 98.0469V66.4062C100 65.3301 99.123 64.4531 98.0469 64.4531C96.9707 64.4531 96.0938 65.3301 96.0938 66.4062V96.0938H76.5625V19.5312C76.5625 18.8244 76.1805 18.1727 75.5639 17.8271C74.9469 17.4816 74.1918 17.4965 73.5891 17.8658L70.3125 19.8732V12.1094H96.0938V48.8281C96.0938 49.9043 96.9707 50.7812 98.0469 50.7812C99.123 50.7812 100 49.9043 100 48.8281V10.1562C100 9.64258 99.791 9.13867 99.4277 8.77539ZM22.4609 11.7188H32.2266C36.2803 11.7188 39.6219 14.8225 40.0021 18.7783C38.2729 19.7982 37.1094 21.6793 37.1094 23.8281V25.7812H33.2031V23.8281C33.2031 20.5973 30.5746 17.9688 27.3438 17.9688C24.1129 17.9688 21.4844 20.5973 21.4844 23.8281V25.7812H17.5781V23.8281C17.5781 21.6793 16.4146 19.7982 14.6854 18.7783C15.0656 14.8225 18.4072 11.7188 22.4609 11.7188V11.7188ZM29.2969 23.8281V25.7812H25.3906V23.8281C25.3906 22.7512 26.2668 21.875 27.3438 21.875C28.4207 21.875 29.2969 22.7512 29.2969 23.8281ZM9.76562 23.8281C9.76562 22.7512 10.6418 21.875 11.7188 21.875C12.7957 21.875 13.6719 22.7512 13.6719 23.8281V25.7812H9.76562V23.8281ZM29.2969 96.0938H3.90625V45.3125H29.2969V96.0938ZM44.9219 96.0938H33.2031V43.3594C33.2031 42.2807 32.3287 41.4062 31.25 41.4062H9.76562V29.6875H44.9219V96.0938ZM44.9219 25.7812H41.0156V23.8281C41.0156 22.7512 41.8918 21.875 42.9688 21.875C44.0457 21.875 44.9219 22.7512 44.9219 23.8281V25.7812ZM72.6562 96.0938H48.8281V37.6174L72.6562 23.0184V96.0938Z" fill="white"/>
<path d="M90.2344 55.0781C91.3131 55.0781 92.1875 54.2037 92.1875 53.125C92.1875 52.0463 91.3131 51.1719 90.2344 51.1719C89.1557 51.1719 88.2812 52.0463 88.2812 53.125C88.2812 54.2037 89.1557 55.0781 90.2344 55.0781Z" fill="white"/>
<path d="M90.2344 63.8672C91.3131 63.8672 92.1875 62.9927 92.1875 61.9141C92.1875 60.8354 91.3131 59.9609 90.2344 59.9609C89.1557 59.9609 88.2812 60.8354 88.2812 61.9141C88.2812 62.9927 89.1557 63.8672 90.2344 63.8672Z" fill="white"/>
<path d="M90.2344 72.6562C91.3131 72.6562 92.1875 71.7818 92.1875 70.7031C92.1875 69.6244 91.3131 68.75 90.2344 68.75C89.1557 68.75 88.2812 69.6244 88.2812 70.7031C88.2812 71.7818 89.1557 72.6562 90.2344 72.6562Z" fill="white"/>
<path d="M90.2344 90.2344C91.3131 90.2344 92.1875 89.3599 92.1875 88.2812C92.1875 87.2026 91.3131 86.3281 90.2344 86.3281C89.1557 86.3281 88.2812 87.2026 88.2812 88.2812C88.2812 89.3599 89.1557 90.2344 90.2344 90.2344Z" fill="white"/>
<path d="M90.2344 81.4453C91.3131 81.4453 92.1875 80.5709 92.1875 79.4922C92.1875 78.4135 91.3131 77.5391 90.2344 77.5391C89.1557 77.5391 88.2812 78.4135 88.2812 79.4922C88.2812 80.5709 89.1557 81.4453 90.2344 81.4453Z" fill="white"/>
<path d="M90.2344 46.2891C91.3131 46.2891 92.1875 45.4146 92.1875 44.3359C92.1875 43.2573 91.3131 42.3828 90.2344 42.3828C89.1557 42.3828 88.2812 43.2573 88.2812 44.3359C88.2812 45.4146 89.1557 46.2891 90.2344 46.2891Z" fill="white"/>
<path d="M90.2344 19.9219C91.3131 19.9219 92.1875 19.0474 92.1875 17.9688C92.1875 16.8901 91.3131 16.0156 90.2344 16.0156C89.1557 16.0156 88.2812 16.8901 88.2812 17.9688C88.2812 19.0474 89.1557 19.9219 90.2344 19.9219Z" fill="white"/>
<path d="M90.2344 28.7109C91.3131 28.7109 92.1875 27.8365 92.1875 26.7578C92.1875 25.6791 91.3131 24.8047 90.2344 24.8047C89.1557 24.8047 88.2812 25.6791 88.2812 26.7578C88.2812 27.8365 89.1557 28.7109 90.2344 28.7109Z" fill="white"/>
<path d="M90.2344 37.5C91.3131 37.5 92.1875 36.6256 92.1875 35.5469C92.1875 34.4682 91.3131 33.5938 90.2344 33.5938C89.1557 33.5938 88.2812 34.4682 88.2812 35.5469C88.2812 36.6256 89.1557 37.5 90.2344 37.5Z" fill="white"/>
<path d="M82.4219 46.2891C83.5006 46.2891 84.375 45.4146 84.375 44.3359C84.375 43.2573 83.5006 42.3828 82.4219 42.3828C81.3432 42.3828 80.4688 43.2573 80.4688 44.3359C80.4688 45.4146 81.3432 46.2891 82.4219 46.2891Z" fill="white"/>
<path d="M82.4219 81.4453C83.5006 81.4453 84.375 80.5709 84.375 79.4922C84.375 78.4135 83.5006 77.5391 82.4219 77.5391C81.3432 77.5391 80.4688 78.4135 80.4688 79.4922C80.4688 80.5709 81.3432 81.4453 82.4219 81.4453Z" fill="white"/>
<path d="M82.4219 55.0781C83.5006 55.0781 84.375 54.2037 84.375 53.125C84.375 52.0463 83.5006 51.1719 82.4219 51.1719C81.3432 51.1719 80.4688 52.0463 80.4688 53.125C80.4688 54.2037 81.3432 55.0781 82.4219 55.0781Z" fill="white"/>
<path d="M82.4219 28.7109C83.5006 28.7109 84.375 27.8365 84.375 26.7578C84.375 25.6791 83.5006 24.8047 82.4219 24.8047C81.3432 24.8047 80.4688 25.6791 80.4688 26.7578C80.4688 27.8365 81.3432 28.7109 82.4219 28.7109Z" fill="white"/>
<path d="M82.4219 19.9219C83.5006 19.9219 84.375 19.0474 84.375 17.9688C84.375 16.8901 83.5006 16.0156 82.4219 16.0156C81.3432 16.0156 80.4688 16.8901 80.4688 17.9688C80.4688 19.0474 81.3432 19.9219 82.4219 19.9219Z" fill="white"/>
<path d="M82.4219 37.5C83.5006 37.5 84.375 36.6256 84.375 35.5469C84.375 34.4682 83.5006 33.5938 82.4219 33.5938C81.3432 33.5938 80.4688 34.4682 80.4688 35.5469C80.4688 36.6256 81.3432 37.5 82.4219 37.5Z" fill="white"/>
<path d="M82.4219 63.8672C83.5006 63.8672 84.375 62.9927 84.375 61.9141C84.375 60.8354 83.5006 59.9609 82.4219 59.9609C81.3432 59.9609 80.4688 60.8354 80.4688 61.9141C80.4688 62.9927 81.3432 63.8672 82.4219 63.8672Z" fill="white"/>
<path d="M82.4219 72.6562C83.5006 72.6562 84.375 71.7818 84.375 70.7031C84.375 69.6244 83.5006 68.75 82.4219 68.75C81.3432 68.75 80.4688 69.6244 80.4688 70.7031C80.4688 71.7818 81.3432 72.6562 82.4219 72.6562Z" fill="white"/>
<path d="M82.4219 90.2344C83.5006 90.2344 84.375 89.3599 84.375 88.2812C84.375 87.2026 83.5006 86.3281 82.4219 86.3281C81.3432 86.3281 80.4688 87.2026 80.4688 88.2812C80.4688 89.3599 81.3432 90.2344 82.4219 90.2344Z" fill="white"/>
<path d="M54.6875 92.1875H66.7969C67.8756 92.1875 68.75 91.3131 68.75 90.2344C68.75 89.1557 67.8756 88.2812 66.7969 88.2812H54.6875C53.6088 88.2812 52.7344 89.1557 52.7344 90.2344C52.7344 91.3131 53.6088 92.1875 54.6875 92.1875Z" fill="white"/>
<path d="M54.6875 84.375H66.7969C67.8756 84.375 68.75 83.5006 68.75 82.4219C68.75 81.3432 67.8756 80.4688 66.7969 80.4688H54.6875C53.6088 80.4688 52.7344 81.3432 52.7344 82.4219C52.7344 83.5006 53.6088 84.375 54.6875 84.375Z" fill="white"/>
<path d="M54.6875 76.5625H66.7969C67.8756 76.5625 68.75 75.6881 68.75 74.6094C68.75 73.5307 67.8756 72.6562 66.7969 72.6562H54.6875C53.6088 72.6562 52.7344 73.5307 52.7344 74.6094C52.7344 75.6881 53.6088 76.5625 54.6875 76.5625Z" fill="white"/>
<path d="M54.6875 68.75H66.7969C67.8756 68.75 68.75 67.8756 68.75 66.7969C68.75 65.7182 67.8756 64.8438 66.7969 64.8438H54.6875C53.6088 64.8438 52.7344 65.7182 52.7344 66.7969C52.7344 67.8756 53.6088 68.75 54.6875 68.75Z" fill="white"/>
<path d="M54.6875 60.9375H66.7969C67.8756 60.9375 68.75 60.0631 68.75 58.9844C68.75 57.9057 67.8756 57.0312 66.7969 57.0312H54.6875C53.6088 57.0312 52.7344 57.9057 52.7344 58.9844C52.7344 60.0631 53.6088 60.9375 54.6875 60.9375Z" fill="white"/>
<path d="M54.6875 53.125H66.7969C67.8756 53.125 68.75 52.2506 68.75 51.1719C68.75 50.0932 67.8756 49.2188 66.7969 49.2188H54.6875C53.6088 49.2188 52.7344 50.0932 52.7344 51.1719C52.7344 52.2506 53.6088 53.125 54.6875 53.125Z" fill="white"/>
<path d="M54.6875 45.3125H66.7969C67.8756 45.3125 68.75 44.4381 68.75 43.3594C68.75 42.2807 67.8756 41.4062 66.7969 41.4062H54.6875C53.6088 41.4062 52.7344 42.2807 52.7344 43.3594C52.7344 44.4381 53.6088 45.3125 54.6875 45.3125Z" fill="white"/>
<path d="M62.5 37.5H66.7969C67.8756 37.5 68.75 36.6256 68.75 35.5469C68.75 34.4682 67.8756 33.5938 66.7969 33.5938H62.5C61.4213 33.5938 60.5469 34.4682 60.5469 35.5469C60.5469 36.6256 61.4213 37.5 62.5 37.5Z" fill="white"/>
<path d="M9.76562 92.1875H23.4375C24.5162 92.1875 25.3906 91.3131 25.3906 90.2344C25.3906 89.1557 24.5162 88.2812 23.4375 88.2812H9.76562C8.68691 88.2812 7.8125 89.1557 7.8125 90.2344C7.8125 91.3131 8.68691 92.1875 9.76562 92.1875Z" fill="white"/>
<path d="M9.76562 84.375H23.4375C24.5162 84.375 25.3906 83.5006 25.3906 82.4219C25.3906 81.3432 24.5162 80.4688 23.4375 80.4688H9.76562C8.68691 80.4688 7.8125 81.3432 7.8125 82.4219C7.8125 83.5006 8.68691 84.375 9.76562 84.375Z" fill="white"/>
<path d="M9.76562 76.5625H23.4375C24.5162 76.5625 25.3906 75.6881 25.3906 74.6094C25.3906 73.5307 24.5162 72.6562 23.4375 72.6562H9.76562C8.68691 72.6562 7.8125 73.5307 7.8125 74.6094C7.8125 75.6881 8.68691 76.5625 9.76562 76.5625Z" fill="white"/>
<path d="M9.76562 68.75H23.4375C24.5162 68.75 25.3906 67.8756 25.3906 66.7969C25.3906 65.7182 24.5162 64.8438 23.4375 64.8438H9.76562C8.68691 64.8438 7.8125 65.7182 7.8125 66.7969C7.8125 67.8756 8.68691 68.75 9.76562 68.75Z" fill="white"/>
<path d="M9.76562 60.9375H23.4375C24.5162 60.9375 25.3906 60.0631 25.3906 58.9844C25.3906 57.9057 24.5162 57.0312 23.4375 57.0312H9.76562C8.68691 57.0312 7.8125 57.9057 7.8125 58.9844C7.8125 60.0631 8.68691 60.9375 9.76562 60.9375Z" fill="white"/>
<path d="M9.76562 53.125H23.4375C24.5162 53.125 25.3906 52.2506 25.3906 51.1719C25.3906 50.0932 24.5162 49.2188 23.4375 49.2188H9.76562C8.68691 49.2188 7.8125 50.0932 7.8125 51.1719C7.8125 52.2506 8.68691 53.125 9.76562 53.125Z" fill="white"/>
<path d="M39.0625 72.6562C40.1412 72.6562 41.0156 71.7818 41.0156 70.7031C41.0156 69.6244 40.1412 68.75 39.0625 68.75C37.9838 68.75 37.1094 69.6244 37.1094 70.7031C37.1094 71.7818 37.9838 72.6562 39.0625 72.6562Z" fill="white"/>
<path d="M39.0625 81.4453C40.1412 81.4453 41.0156 80.5709 41.0156 79.4922C41.0156 78.4135 40.1412 77.5391 39.0625 77.5391C37.9838 77.5391 37.1094 78.4135 37.1094 79.4922C37.1094 80.5709 37.9838 81.4453 39.0625 81.4453Z" fill="white"/>
<path d="M39.0625 90.2344C40.1412 90.2344 41.0156 89.3599 41.0156 88.2812C41.0156 87.2026 40.1412 86.3281 39.0625 86.3281C37.9838 86.3281 37.1094 87.2026 37.1094 88.2812C37.1094 89.3599 37.9838 90.2344 39.0625 90.2344Z" fill="white"/>
<path d="M39.0625 46.2891C40.1412 46.2891 41.0156 45.4146 41.0156 44.3359C41.0156 43.2573 40.1412 42.3828 39.0625 42.3828C37.9838 42.3828 37.1094 43.2573 37.1094 44.3359C37.1094 45.4146 37.9838 46.2891 39.0625 46.2891Z" fill="white"/>
<path d="M39.0625 37.5C40.1412 37.5 41.0156 36.6256 41.0156 35.5469C41.0156 34.4682 40.1412 33.5938 39.0625 33.5938C37.9838 33.5938 37.1094 34.4682 37.1094 35.5469C37.1094 36.6256 37.9838 37.5 39.0625 37.5Z" fill="white"/>
<path d="M39.0625 63.8672C40.1412 63.8672 41.0156 62.9927 41.0156 61.9141C41.0156 60.8354 40.1412 59.9609 39.0625 59.9609C37.9838 59.9609 37.1094 60.8354 37.1094 61.9141C37.1094 62.9927 37.9838 63.8672 39.0625 63.8672Z" fill="white"/>
<path d="M39.0625 55.0781C40.1412 55.0781 41.0156 54.2037 41.0156 53.125C41.0156 52.0463 40.1412 51.1719 39.0625 51.1719C37.9838 51.1719 37.1094 52.0463 37.1094 53.125C37.1094 54.2037 37.9838 55.0781 39.0625 55.0781Z" fill="white"/>
<path d="M31.25 37.5C32.3287 37.5 33.2031 36.6256 33.2031 35.5469C33.2031 34.4682 32.3287 33.5938 31.25 33.5938C30.1713 33.5938 29.2969 34.4682 29.2969 35.5469C29.2969 36.6256 30.1713 37.5 31.25 37.5Z" fill="white"/>
<path d="M23.4375 37.5C24.5162 37.5 25.3906 36.6256 25.3906 35.5469C25.3906 34.4682 24.5162 33.5938 23.4375 33.5938C22.3588 33.5938 21.4844 34.4682 21.4844 35.5469C21.4844 36.6256 22.3588 37.5 23.4375 37.5Z" fill="white"/>
<path d="M15.625 37.5C16.7037 37.5 17.5781 36.6256 17.5781 35.5469C17.5781 34.4682 16.7037 33.5938 15.625 33.5938C14.5463 33.5938 13.6719 34.4682 13.6719 35.5469C13.6719 36.6256 14.5463 37.5 15.625 37.5Z" fill="white"/>
</g>
<defs>
<clipPath id="clip0_1_349">
<rect width="100" height="100" fill="white"/>
</clipPath>
</defs>
</svg>
