<svg width="80" height="80" viewBox="0 0 80 80" fill="none" xmlns="http://www.w3.org/2000/svg">
<g clip-path="url(#clip0_1_349)">
<path d="M78.4375 47.6562C79.3004 47.6562 80 46.9567 80 46.0938C80 45.2308 79.3004 44.5312 78.4375 44.5312C77.5746 44.5312 76.875 45.2308 76.875 46.0938C76.875 46.9567 77.5746 47.6562 78.4375 47.6562Z" fill="white"/>
<path d="M79.5422 7.02031C79.2516 6.72969 78.8484 6.5625 78.4375 6.5625H54.6875C54.2766 6.5625 53.8734 6.72969 53.5828 7.02031C53.2922 7.31094 53.125 7.71406 53.125 8.125V17.8133L39.0625 26.4291V19.0625C39.0625 16.7164 37.33 14.7677 35.0772 14.4278C34.487 9.82203 30.5448 6.25 25.7812 6.25H23.4375V1.5625C23.4375 0.699531 22.738 0 21.875 0C21.012 0 20.3125 0.699531 20.3125 1.5625V6.25H17.9688C13.2055 6.25 9.26437 9.82203 8.67422 14.4275C6.42078 14.7669 4.6875 16.7159 4.6875 19.0625V33.125H1.5625C0.699531 33.125 0 33.8245 0 34.6875V78.4375C0 79.3005 0.699531 80 1.5625 80H78.4375C78.8484 80 79.2516 79.8328 79.5422 79.5422C79.8328 79.2516 80 78.8484 80 78.4375V53.125C80 52.2641 79.2984 51.5625 78.4375 51.5625C77.5766 51.5625 76.875 52.2641 76.875 53.125V76.875H61.25V15.625C61.25 15.0595 60.9444 14.5381 60.4511 14.2617C59.9575 13.9853 59.3534 13.9972 58.8713 14.2927L56.25 15.8986V9.6875H76.875V39.0625C76.875 39.9234 77.5766 40.625 78.4375 40.625C79.2984 40.625 80 39.9234 80 39.0625V8.125C80 7.71406 79.8328 7.31094 79.5422 7.02031ZM17.9688 9.375H25.7812C29.0242 9.375 31.6975 11.858 32.0017 15.0227C30.6183 15.8386 29.6875 17.3434 29.6875 19.0625V20.625H26.5625V19.0625C26.5625 16.4778 24.4597 14.375 21.875 14.375C19.2903 14.375 17.1875 16.4778 17.1875 19.0625V20.625H14.0625V19.0625C14.0625 17.3434 13.1317 15.8386 11.7483 15.0227C12.0525 11.858 14.7258 9.375 17.9688 9.375V9.375ZM23.4375 19.0625V20.625H20.3125V19.0625C20.3125 18.2009 21.0134 17.5 21.875 17.5C22.7366 17.5 23.4375 18.2009 23.4375 19.0625ZM7.8125 19.0625C7.8125 18.2009 8.51344 17.5 9.375 17.5C10.2366 17.5 10.9375 18.2009 10.9375 19.0625V20.625H7.8125V19.0625ZM23.4375 76.875H3.125V36.25H23.4375V76.875ZM35.9375 76.875H26.5625V34.6875C26.5625 33.8245 25.863 33.125 25 33.125H7.8125V23.75H35.9375V76.875ZM35.9375 20.625H32.8125V19.0625C32.8125 18.2009 33.5134 17.5 34.375 17.5C35.2366 17.5 35.9375 18.2009 35.9375 19.0625V20.625ZM58.125 76.875H39.0625V30.0939L58.125 18.4147V76.875Z" fill="white"/>
<path d="M72.1875 44.0625C73.0504 44.0625 73.75 43.3629 73.75 42.5C73.75 41.6371 73.0504 40.9375 72.1875 40.9375C71.3246 40.9375 70.625 41.6371 70.625 42.5C70.625 43.3629 71.3246 44.0625 72.1875 44.0625Z" fill="white"/>
<path d="M72.1875 51.0938C73.0504 51.0938 73.75 50.3942 73.75 49.5312C73.75 48.6683 73.0504 47.9688 72.1875 47.9688C71.3246 47.9688 70.625 48.6683 70.625 49.5312C70.625 50.3942 71.3246 51.0938 72.1875 51.0938Z" fill="white"/>
<path d="M72.1875 58.125C73.0504 58.125 73.75 57.4254 73.75 56.5625C73.75 55.6996 73.0504 55 72.1875 55C71.3246 55 70.625 55.6996 70.625 56.5625C70.625 57.4254 71.3246 58.125 72.1875 58.125Z" fill="white"/>
<path d="M72.1875 72.1875C73.0504 72.1875 73.75 71.4879 73.75 70.625C73.75 69.7621 73.0504 69.0625 72.1875 69.0625C71.3246 69.0625 70.625 69.7621 70.625 70.625C70.625 71.4879 71.3246 72.1875 72.1875 72.1875Z" fill="white"/>
<path d="M72.1875 65.1562C73.0504 65.1562 73.75 64.4567 73.75 63.5938C73.75 62.7308 73.0504 62.0312 72.1875 62.0312C71.3246 62.0312 70.625 62.7308 70.625 63.5938C70.625 64.4567 71.3246 65.1562 72.1875 65.1562Z" fill="white"/>
<path d="M72.1875 37.0312C73.0504 37.0312 73.75 36.3317 73.75 35.4688C73.75 34.6058 73.0504 33.9062 72.1875 33.9062C71.3246 33.9062 70.625 34.6058 70.625 35.4688C70.625 36.3317 71.3246 37.0312 72.1875 37.0312Z" fill="white"/>
<path d="M72.1875 15.9375C73.0504 15.9375 73.75 15.2379 73.75 14.375C73.75 13.5121 73.0504 12.8125 72.1875 12.8125C71.3246 12.8125 70.625 13.5121 70.625 14.375C70.625 15.2379 71.3246 15.9375 72.1875 15.9375Z" fill="white"/>
<path d="M72.1875 22.9688C73.0504 22.9688 73.75 22.2692 73.75 21.4062C73.75 20.5433 73.0504 19.8438 72.1875 19.8438C71.3246 19.8438 70.625 20.5433 70.625 21.4062C70.625 22.2692 71.3246 22.9688 72.1875 22.9688Z" fill="white"/>
<path d="M72.1875 30C73.0504 30 73.75 29.3004 73.75 28.4375C73.75 27.5746 73.0504 26.875 72.1875 26.875C71.3246 26.875 70.625 27.5746 70.625 28.4375C70.625 29.3004 71.3246 30 72.1875 30Z" fill="white"/>
<path d="M65.9375 37.0312C66.8004 37.0312 67.5 36.3317 67.5 35.4688C67.5 34.6058 66.8004 33.9062 65.9375 33.9062C65.0746 33.9062 64.375 34.6058 64.375 35.4688C64.375 36.3317 65.0746 37.0312 65.9375 37.0312Z" fill="white"/>
<path d="M65.9375 65.1562C66.8004 65.1562 67.5 64.4567 67.5 63.5938C67.5 62.7308 66.8004 62.0312 65.9375 62.0312C65.0746 62.0312 64.375 62.7308 64.375 63.5938C64.375 64.4567 65.0746 65.1562 65.9375 65.1562Z" fill="white"/>
<path d="M65.9375 44.0625C66.8004 44.0625 67.5 43.3629 67.5 42.5C67.5 41.6371 66.8004 40.9375 65.9375 40.9375C65.0746 40.9375 64.375 41.6371 64.375 42.5C64.375 43.3629 65.0746 44.0625 65.9375 44.0625Z" fill="white"/>
<path d="M65.9375 22.9688C66.8004 22.9688 67.5 22.2692 67.5 21.4062C67.5 20.5433 66.8004 19.8438 65.9375 19.8438C65.0746 19.8438 64.375 20.5433 64.375 21.4062C64.375 22.2692 65.0746 22.9688 65.9375 22.9688Z" fill="white"/>
<path d="M65.9375 15.9375C66.8004 15.9375 67.5 15.2379 67.5 14.375C67.5 13.5121 66.8004 12.8125 65.9375 12.8125C65.0746 12.8125 64.375 13.5121 64.375 14.375C64.375 15.2379 65.0746 15.9375 65.9375 15.9375Z" fill="white"/>
<path d="M65.9375 30C66.8004 30 67.5 29.3004 67.5 28.4375C67.5 27.5746 66.8004 26.875 65.9375 26.875C65.0746 26.875 64.375 27.5746 64.375 28.4375C64.375 29.3004 65.0746 30 65.9375 30Z" fill="white"/>
<path d="M65.9375 51.0938C66.8004 51.0938 67.5 50.3942 67.5 49.5312C67.5 48.6683 66.8004 47.9688 65.9375 47.9688C65.0746 47.9688 64.375 48.6683 64.375 49.5312C64.375 50.3942 65.0746 51.0938 65.9375 51.0938Z" fill="white"/>
<path d="M65.9375 58.125C66.8004 58.125 67.5 57.4254 67.5 56.5625C67.5 55.6996 66.8004 55 65.9375 55C65.0746 55 64.375 55.6996 64.375 56.5625C64.375 57.4254 65.0746 58.125 65.9375 58.125Z" fill="white"/>
<path d="M65.9375 72.1875C66.8004 72.1875 67.5 71.4879 67.5 70.625C67.5 69.7621 66.8004 69.0625 65.9375 69.0625C65.0746 69.0625 64.375 69.7621 64.375 70.625C64.375 71.4879 65.0746 72.1875 65.9375 72.1875Z" fill="white"/>
<path d="M43.75 73.75H53.4375C54.3005 73.75 55 73.0505 55 72.1875C55 71.3245 54.3005 70.625 53.4375 70.625H43.75C42.887 70.625 42.1875 71.3245 42.1875 72.1875C42.1875 73.0505 42.887 73.75 43.75 73.75Z" fill="white"/>
<path d="M43.75 67.5H53.4375C54.3005 67.5 55 66.8005 55 65.9375C55 65.0745 54.3005 64.375 53.4375 64.375H43.75C42.887 64.375 42.1875 65.0745 42.1875 65.9375C42.1875 66.8005 42.887 67.5 43.75 67.5Z" fill="white"/>
<path d="M43.75 61.25H53.4375C54.3005 61.25 55 60.5505 55 59.6875C55 58.8245 54.3005 58.125 53.4375 58.125H43.75C42.887 58.125 42.1875 58.8245 42.1875 59.6875C42.1875 60.5505 42.887 61.25 43.75 61.25Z" fill="white"/>
<path d="M43.75 55H53.4375C54.3005 55 55 54.3005 55 53.4375C55 52.5745 54.3005 51.875 53.4375 51.875H43.75C42.887 51.875 42.1875 52.5745 42.1875 53.4375C42.1875 54.3005 42.887 55 43.75 55Z" fill="white"/>
<path d="M43.75 48.75H53.4375C54.3005 48.75 55 48.0505 55 47.1875C55 46.3245 54.3005 45.625 53.4375 45.625H43.75C42.887 45.625 42.1875 46.3245 42.1875 47.1875C42.1875 48.0505 42.887 48.75 43.75 48.75Z" fill="white"/>
<path d="M43.75 42.5H53.4375C54.3005 42.5 55 41.8005 55 40.9375C55 40.0745 54.3005 39.375 53.4375 39.375H43.75C42.887 39.375 42.1875 40.0745 42.1875 40.9375C42.1875 41.8005 42.887 42.5 43.75 42.5Z" fill="white"/>
<path d="M43.75 36.25H53.4375C54.3005 36.25 55 35.5505 55 34.6875C55 33.8245 54.3005 33.125 53.4375 33.125H43.75C42.887 33.125 42.1875 33.8245 42.1875 34.6875C42.1875 35.5505 42.887 36.25 43.75 36.25Z" fill="white"/>
<path d="M50 30H53.4375C54.3005 30 55 29.3005 55 28.4375C55 27.5745 54.3005 26.875 53.4375 26.875H50C49.137 26.875 48.4375 27.5745 48.4375 28.4375C48.4375 29.3005 49.137 30 50 30Z" fill="white"/>
<path d="M7.8125 73.75H18.75C19.613 73.75 20.3125 73.0505 20.3125 72.1875C20.3125 71.3245 19.613 70.625 18.75 70.625H7.8125C6.94953 70.625 6.25 71.3245 6.25 72.1875C6.25 73.0505 6.94953 73.75 7.8125 73.75Z" fill="white"/>
<path d="M7.8125 67.5H18.75C19.613 67.5 20.3125 66.8005 20.3125 65.9375C20.3125 65.0745 19.613 64.375 18.75 64.375H7.8125C6.94953 64.375 6.25 65.0745 6.25 65.9375C6.25 66.8005 6.94953 67.5 7.8125 67.5Z" fill="white"/>
<path d="M7.8125 61.25H18.75C19.613 61.25 20.3125 60.5505 20.3125 59.6875C20.3125 58.8245 19.613 58.125 18.75 58.125H7.8125C6.94953 58.125 6.25 58.8245 6.25 59.6875C6.25 60.5505 6.94953 61.25 7.8125 61.25Z" fill="white"/>
<path d="M7.8125 55H18.75C19.613 55 20.3125 54.3005 20.3125 53.4375C20.3125 52.5745 19.613 51.875 18.75 51.875H7.8125C6.94953 51.875 6.25 52.5745 6.25 53.4375C6.25 54.3005 6.94953 55 7.8125 55Z" fill="white"/>
<path d="M7.8125 48.75H18.75C19.613 48.75 20.3125 48.0505 20.3125 47.1875C20.3125 46.3245 19.613 45.625 18.75 45.625H7.8125C6.94953 45.625 6.25 46.3245 6.25 47.1875C6.25 48.0505 6.94953 48.75 7.8125 48.75Z" fill="white"/>
<path d="M7.8125 42.5H18.75C19.613 42.5 20.3125 41.8005 20.3125 40.9375C20.3125 40.0745 19.613 39.375 18.75 39.375H7.8125C6.94953 39.375 6.25 40.0745 6.25 40.9375C6.25 41.8005 6.94953 42.5 7.8125 42.5Z" fill="white"/>
<path d="M31.25 58.125C32.1129 58.125 32.8125 57.4254 32.8125 56.5625C32.8125 55.6996 32.1129 55 31.25 55C30.3871 55 29.6875 55.6996 29.6875 56.5625C29.6875 57.4254 30.3871 58.125 31.25 58.125Z" fill="white"/>
<path d="M31.25 65.1562C32.1129 65.1562 32.8125 64.4567 32.8125 63.5938C32.8125 62.7308 32.1129 62.0312 31.25 62.0312C30.3871 62.0312 29.6875 62.7308 29.6875 63.5938C29.6875 64.4567 30.3871 65.1562 31.25 65.1562Z" fill="white"/>
<path d="M31.25 72.1875C32.1129 72.1875 32.8125 71.4879 32.8125 70.625C32.8125 69.7621 32.1129 69.0625 31.25 69.0625C30.3871 69.0625 29.6875 69.7621 29.6875 70.625C29.6875 71.4879 30.3871 72.1875 31.25 72.1875Z" fill="white"/>
<path d="M31.25 37.0312C32.1129 37.0312 32.8125 36.3317 32.8125 35.4688C32.8125 34.6058 32.1129 33.9062 31.25 33.9062C30.3871 33.9062 29.6875 34.6058 29.6875 35.4688C29.6875 36.3317 30.3871 37.0312 31.25 37.0312Z" fill="white"/>
<path d="M31.25 30C32.1129 30 32.8125 29.3004 32.8125 28.4375C32.8125 27.5746 32.1129 26.875 31.25 26.875C30.3871 26.875 29.6875 27.5746 29.6875 28.4375C29.6875 29.3004 30.3871 30 31.25 30Z" fill="white"/>
<path d="M31.25 51.0938C32.1129 51.0938 32.8125 50.3942 32.8125 49.5312C32.8125 48.6683 32.1129 47.9688 31.25 47.9688C30.3871 47.9688 29.6875 48.6683 29.6875 49.5312C29.6875 50.3942 30.3871 51.0938 31.25 51.0938Z" fill="white"/>
<path d="M31.25 44.0625C32.1129 44.0625 32.8125 43.3629 32.8125 42.5C32.8125 41.6371 32.1129 40.9375 31.25 40.9375C30.3871 40.9375 29.6875 41.6371 29.6875 42.5C29.6875 43.3629 30.3871 44.0625 31.25 44.0625Z" fill="white"/>
<path d="M25 30C25.8629 30 26.5625 29.3004 26.5625 28.4375C26.5625 27.5746 25.8629 26.875 25 26.875C24.1371 26.875 23.4375 27.5746 23.4375 28.4375C23.4375 29.3004 24.1371 30 25 30Z" fill="white"/>
<path d="M18.75 30C19.6129 30 20.3125 29.3004 20.3125 28.4375C20.3125 27.5746 19.6129 26.875 18.75 26.875C17.8871 26.875 17.1875 27.5746 17.1875 28.4375C17.1875 29.3004 17.8871 30 18.75 30Z" fill="white"/>
<path d="M12.5 30C13.3629 30 14.0625 29.3004 14.0625 28.4375C14.0625 27.5746 13.3629 26.875 12.5 26.875C11.6371 26.875 10.9375 27.5746 10.9375 28.4375C10.9375 29.3004 11.6371 30 12.5 30Z" fill="white"/>
</g>
<defs>
<clipPath id="clip0_1_349">
<rect width="80" height="80" fill="white"/>
</clipPath>
</defs>
</svg>
