<svg width="100" height="100" viewBox="0 0 100 100" fill="none" xmlns="http://www.w3.org/2000/svg">
<path d="M30.79 35.7979H19.3789C18.3004 35.7979 17.4258 36.6723 17.4258 37.751V48.8609C17.4258 49.9396 18.3004 50.8141 19.3789 50.8141H30.79C31.8686 50.8141 32.7432 49.9396 32.7432 48.8609V37.751C32.7432 36.6723 31.8686 35.7979 30.79 35.7979ZM28.8369 46.9078H21.332V39.7041H28.8369V46.9078Z" fill="white"/>
<path d="M30.79 55.0072H19.3789C18.3004 55.0072 17.4258 55.8816 17.4258 56.9603V68.0703C17.4258 69.149 18.3004 70.0234 19.3789 70.0234H30.79C31.8686 70.0234 32.7432 69.149 32.7432 68.0703V56.9603C32.7432 55.8816 31.8686 55.0072 30.79 55.0072ZM28.8369 66.1172H21.332V58.9135H28.8369V66.1172Z" fill="white"/>
<path d="M30.79 74.2164H19.3789C18.3004 74.2164 17.4258 75.0908 17.4258 76.1696V87.2795C17.4258 88.3582 18.3004 89.2326 19.3789 89.2326H30.79C31.8686 89.2326 32.7432 88.3582 32.7432 87.2795V76.1696C32.7432 75.0908 31.8686 74.2164 30.79 74.2164ZM28.8369 85.3264H21.332V78.1227H28.8369V85.3264Z" fill="white"/>
<path d="M50.9375 35.348C49.859 35.348 48.9844 36.2224 48.9844 37.3011V84.2668C48.9844 85.3455 49.859 86.2199 50.9375 86.2199C52.016 86.2199 52.8906 85.3455 52.8906 84.2668V37.3011C52.8906 36.2224 52.016 35.348 50.9375 35.348Z" fill="white"/>
<path d="M79.9117 44.3239H71.6562C70.5777 44.3239 69.7031 45.1983 69.7031 46.277C69.7031 47.3557 70.5777 48.2301 71.6562 48.2301H79.9117C80.9902 48.2301 81.8648 47.3557 81.8648 46.277C81.8648 45.1983 80.9904 44.3239 79.9117 44.3239Z" fill="white"/>
<path d="M79.9117 54.1162H71.6562C70.5777 54.1162 69.7031 54.9906 69.7031 56.0693C69.7031 57.148 70.5777 58.0225 71.6562 58.0225H79.9117C80.9902 58.0225 81.8648 57.148 81.8648 56.0693C81.8648 54.9906 80.9904 54.1162 79.9117 54.1162Z" fill="white"/>
<path d="M79.9117 63.9084H71.6562C70.5777 63.9084 69.7031 64.7829 69.7031 65.8616C69.7031 66.9403 70.5777 67.8147 71.6562 67.8147H79.9117C80.9902 67.8147 81.8648 66.9403 81.8648 65.8616C81.8648 64.7829 80.9904 63.9084 79.9117 63.9084Z" fill="white"/>
<path d="M94.916 96.0938H92.3273V33.3457C92.3273 32.267 91.4527 31.3926 90.3742 31.3926H73.5594V20.4809C73.5594 19.4021 72.6848 18.5277 71.6062 18.5277H68.968V8.96133C68.968 7.88262 68.0934 7.0082 67.0148 7.0082H57.4639V1.95312C57.4639 0.874414 56.5893 0 55.5107 0C54.4322 0 53.5576 0.874414 53.5576 1.95312V7.0082H45.1182C44.0396 7.0082 43.165 7.88262 43.165 8.96133V18.5277H40.5268C39.4482 18.5277 38.5736 19.4021 38.5736 20.4809V26.1432H9.64199C8.56348 26.1432 7.68887 27.0176 7.68887 28.0963V96.0938H5.08594C4.00742 96.0938 3.13281 96.9682 3.13281 98.0469C3.13281 99.1256 4.00742 100 5.08594 100H94.916C95.9945 100 96.8691 99.1256 96.8691 98.0469C96.8691 96.9682 95.9945 96.0938 94.916 96.0938ZM47.0713 10.9145H65.0617V18.5277H47.0713V10.9145ZM11.5951 30.0496H38.5736V96.0938H11.5951V30.0496ZM42.4799 22.4342H69.6531V31.3928H61.1963C60.1178 31.3928 59.2432 32.2672 59.2432 33.3459V96.0938H42.4799V22.4342ZM78.102 96.0938H73.4686V82.0305H78.102V96.0938ZM82.0082 96.0938V80.0773C82.0082 78.9986 81.1336 78.1242 80.0551 78.1242H71.5154C70.4369 78.1242 69.5623 78.9986 69.5623 80.0773V96.0938H63.1494V35.2988H88.4211V96.0938H82.0082Z" fill="white"/>
</svg>
