<svg width="100" height="100" viewBox="0 0 100 100" fill="none" xmlns="http://www.w3.org/2000/svg">
<path d="M19.418 66.9266H10.4961C9.66328 66.9266 8.98828 67.6016 8.98828 68.4344C8.98828 69.2673 9.66328 69.9423 10.4961 69.9423H19.418C20.2508 69.9423 20.9258 69.2673 20.9258 68.4344C20.9258 67.6016 20.2508 66.9266 19.418 66.9266Z" fill="white"/>
<path d="M19.418 73.8625H10.4961C9.66328 73.8625 8.98828 74.5375 8.98828 75.3704C8.98828 76.2032 9.66328 76.8782 10.4961 76.8782H19.418C20.2508 76.8782 20.9258 76.2032 20.9258 75.3704C20.9258 74.5391 20.2508 73.8625 19.418 73.8625Z" fill="white"/>
<path d="M19.418 80.8H10.4961C9.66328 80.8 8.98828 81.475 8.98828 82.3079C8.98828 83.1407 9.66328 83.8157 10.4961 83.8157H19.418C20.2508 83.8157 20.9258 83.1407 20.9258 82.3079C20.9258 81.475 20.2508 80.8 19.418 80.8Z" fill="white"/>
<path d="M19.418 87.736H10.4961C9.66328 87.736 8.98828 88.411 8.98828 89.2438C8.98828 90.0766 9.66328 90.7516 10.4961 90.7516H19.418C20.2508 90.7516 20.9258 90.0766 20.9258 89.2438C20.9258 88.411 20.2508 87.736 19.418 87.736Z" fill="white"/>
<path d="M51.4234 29.8766H41.0781C40.2453 29.8766 39.5703 30.5516 39.5703 31.3844C39.5703 32.2172 40.2453 32.8922 41.0781 32.8922H51.4234C52.2562 32.8922 52.9312 32.2172 52.9312 31.3844C52.9312 30.5516 52.2562 29.8766 51.4234 29.8766Z" fill="white"/>
<path d="M51.4234 37.0438H41.0781C40.2453 37.0438 39.5703 37.7188 39.5703 38.5516C39.5703 39.3844 40.2453 40.0594 41.0781 40.0594H51.4234C52.2562 40.0594 52.9312 39.3844 52.9312 38.5516C52.9312 37.7188 52.2562 37.0438 51.4234 37.0438Z" fill="white"/>
<path d="M51.4234 44.2125H41.0781C40.2453 44.2125 39.5703 44.8875 39.5703 45.7203C39.5703 46.5531 40.2453 47.2281 41.0781 47.2281H51.4234C52.2562 47.2281 52.9312 46.5531 52.9312 45.7203C52.9312 44.8875 52.2562 44.2125 51.4234 44.2125Z" fill="white"/>
<path d="M51.4234 51.3798H41.0781C40.2453 51.3798 39.5703 52.0548 39.5703 52.8876C39.5703 53.7204 40.2453 54.3954 41.0781 54.3954H51.4234C52.2562 54.3954 52.9312 53.7204 52.9312 52.8876C52.9312 52.0548 52.2562 51.3798 51.4234 51.3798Z" fill="white"/>
<path d="M51.4234 58.5485H41.0781C40.2453 58.5485 39.5703 59.2235 39.5703 60.0563C39.5703 60.8891 40.2453 61.5641 41.0781 61.5641H51.4234C52.2562 61.5641 52.9312 60.8891 52.9312 60.0563C52.9312 59.2235 52.2562 58.5485 51.4234 58.5485Z" fill="white"/>
<path d="M51.4234 65.7172H41.0781C40.2453 65.7172 39.5703 66.3922 39.5703 67.225C39.5703 68.0578 40.2453 68.7328 41.0781 68.7328H51.4234C52.2562 68.7328 52.9312 68.0578 52.9312 67.225C52.9312 66.3922 52.2562 65.7172 51.4234 65.7172Z" fill="white"/>
<path d="M51.4234 72.8844H41.0781C40.2453 72.8844 39.5703 73.5594 39.5703 74.3922C39.5703 75.225 40.2453 75.9 41.0781 75.9H51.4234C52.2562 75.9 52.9312 75.225 52.9312 74.3922C52.9312 73.5594 52.2562 72.8844 51.4234 72.8844Z" fill="white"/>
<path d="M51.4234 79.7953H41.0781C40.2453 79.7953 39.5703 80.4703 39.5703 81.3031C39.5703 82.1359 40.2453 82.8109 41.0781 82.8109H51.4234C52.2562 82.8109 52.9312 82.1359 52.9312 81.3031C52.9312 80.4703 52.2562 79.7953 51.4234 79.7953Z" fill="white"/>
<path d="M51.4234 86.9641H41.0781C40.2453 86.9641 39.5703 87.6391 39.5703 88.4719C39.5703 89.3047 40.2453 89.9797 41.0781 89.9797H51.4234C52.2562 89.9797 52.9312 89.3047 52.9312 88.4719C52.9312 87.6391 52.2562 86.9641 51.4234 86.9641Z" fill="white"/>
<path d="M58.9062 29.8766H57.6016C56.7688 29.8766 56.0938 30.5516 56.0938 31.3844C56.0938 32.2172 56.7688 32.8922 57.6016 32.8922H58.9062C59.7391 32.8922 60.4141 32.2172 60.4141 31.3844C60.4125 30.5516 59.7375 29.8766 58.9062 29.8766Z" fill="white"/>
<path d="M58.9062 37.0438H57.6016C56.7688 37.0438 56.0938 37.7188 56.0938 38.5516C56.0938 39.3844 56.7688 40.0594 57.6016 40.0594H58.9062C59.7391 40.0594 60.4141 39.3844 60.4141 38.5516C60.4125 37.7188 59.7375 37.0438 58.9062 37.0438Z" fill="white"/>
<path d="M58.9062 44.2125H57.6016C56.7688 44.2125 56.0938 44.8875 56.0938 45.7203C56.0938 46.5531 56.7688 47.2281 57.6016 47.2281H58.9062C59.7391 47.2281 60.4141 46.5531 60.4141 45.7203C60.4125 44.8875 59.7375 44.2125 58.9062 44.2125Z" fill="white"/>
<path d="M58.9062 51.3798H57.6016C56.7688 51.3798 56.0938 52.0548 56.0938 52.8876C56.0938 53.7204 56.7688 54.3954 57.6016 54.3954H58.9062C59.7391 54.3954 60.4141 53.7204 60.4141 52.8876C60.4141 52.0548 59.7375 51.3798 58.9062 51.3798Z" fill="white"/>
<path d="M58.9062 58.5485H57.6016C56.7688 58.5485 56.0938 59.2235 56.0938 60.0563C56.0938 60.8891 56.7688 61.5641 57.6016 61.5641H58.9062C59.7391 61.5641 60.4141 60.8891 60.4141 60.0563C60.4141 59.2235 59.7375 58.5485 58.9062 58.5485Z" fill="white"/>
<path d="M58.9062 65.7172H57.6016C56.7688 65.7172 56.0938 66.3922 56.0938 67.225C56.0938 68.0578 56.7688 68.7328 57.6016 68.7328H58.9062C59.7391 68.7328 60.4141 68.0578 60.4141 67.225C60.4141 66.3922 59.7375 65.7172 58.9062 65.7172Z" fill="white"/>
<path d="M58.9062 72.8844H57.6016C56.7688 72.8844 56.0938 73.5594 56.0938 74.3922C56.0938 75.225 56.7688 75.9 57.6016 75.9H58.9062C59.7391 75.9 60.4141 75.225 60.4141 74.3922C60.4125 73.5594 59.7375 72.8844 58.9062 72.8844Z" fill="white"/>
<path d="M58.9062 79.7953H57.6016C56.7688 79.7953 56.0938 80.4703 56.0938 81.3031C56.0938 82.1359 56.7688 82.8109 57.6016 82.8109H58.9062C59.7391 82.8109 60.4141 82.1359 60.4141 81.3031C60.4141 80.4703 59.7375 79.7953 58.9062 79.7953Z" fill="white"/>
<path d="M58.9062 86.9641H57.6016C56.7688 86.9641 56.0938 87.6391 56.0938 88.4719C56.0938 89.3047 56.7688 89.9797 57.6016 89.9797H58.9062C59.7391 89.9797 60.4141 89.3047 60.4141 88.4719C60.4125 87.6391 59.7375 86.9641 58.9062 86.9641Z" fill="white"/>
<path d="M87.7641 81.7954H82.3203C81.4875 81.7954 80.8125 82.4704 80.8125 83.3032V88.897C80.8125 89.7298 81.4875 90.4048 82.3203 90.4048H87.7641C88.5969 90.4048 89.2719 89.7298 89.2719 88.897V83.3032C89.2719 82.4704 88.5969 81.7954 87.7641 81.7954ZM86.2562 87.3892H83.8281V84.811H86.2562V87.3892Z" fill="white"/>
<path d="M87.7641 69.147H82.3203C81.4875 69.147 80.8125 69.822 80.8125 70.6548V76.2485C80.8125 77.0813 81.4875 77.7563 82.3203 77.7563H87.7641C88.5969 77.7563 89.2719 77.0813 89.2719 76.2485V70.6548C89.2719 69.822 88.5969 69.147 87.7641 69.147ZM86.2562 74.7407H83.8281V72.1626H86.2562V74.7407Z" fill="white"/>
<path d="M87.7641 56.4985H82.3203C81.4875 56.4985 80.8125 57.1735 80.8125 58.0063V63.6001C80.8125 64.4329 81.4875 65.1079 82.3203 65.1079H87.7641C88.5969 65.1079 89.2719 64.4329 89.2719 63.6001V58.0063C89.2719 57.1735 88.5969 56.4985 87.7641 56.4985ZM86.2562 62.0923H83.8281V59.5142H86.2562V62.0923Z" fill="white"/>
<path d="M87.7641 43.8501H82.3203C81.4875 43.8501 80.8125 44.5251 80.8125 45.3579V50.9517C80.8125 51.7845 81.4875 52.4595 82.3203 52.4595H87.7641C88.5969 52.4595 89.2719 51.7845 89.2719 50.9517V45.3579C89.2719 44.5251 88.5969 43.8501 87.7641 43.8501ZM86.2562 49.4438H83.8281V46.8657H86.2562V49.4438Z" fill="white"/>
<path d="M4.71875 97.286H25.1953H34.2H65.7828H74.8031H95.2812C96.1141 97.286 96.7891 96.611 96.7891 95.7782V38.4766C96.7891 37.6438 96.1141 36.9688 95.2812 36.9688H91.6937V34.5001C91.6937 32.3751 90.3688 30.711 88.6781 30.711H86.55V23.1532C86.55 22.3204 85.875 21.6454 85.0422 21.6454C84.2094 21.6454 83.5344 22.3204 83.5344 23.1532V30.711H81.4062C79.7156 30.711 78.3906 32.3751 78.3906 34.5001V36.9688H74.8047C73.9719 36.9688 73.2969 37.6438 73.2969 38.4766V94.2704H67.2922V24.0782C67.2922 23.2454 66.6172 22.5704 65.7844 22.5704H34.2016C33.3687 22.5704 32.6937 23.2454 32.6937 24.0782V94.2719H26.7031V61.9001C26.7031 61.0673 26.0281 60.3923 25.1953 60.3923H21.4047V58.0454C21.4047 55.9204 20.0797 54.2563 18.3891 54.2563H16.4641V49.3594C16.4641 48.5266 15.7891 47.8516 14.9562 47.8516C14.1234 47.8516 13.4484 48.5266 13.4484 49.3594V54.2563H11.1187C9.42812 54.2563 8.10312 55.9204 8.10312 58.0454V60.3923H4.71875C3.88594 60.3923 3.21094 61.0673 3.21094 61.9001V95.7798C3.21094 96.611 3.88594 97.286 4.71875 97.286ZM81.4062 34.5001C81.4062 34.1219 81.5109 33.8532 81.5906 33.7266H88.4938C88.5734 33.8532 88.6781 34.1219 88.6781 34.5001V36.9688H81.4062V34.5001ZM76.3125 39.9844H93.7734V94.2704H76.3125V39.9844ZM35.7078 25.586H64.275V94.2719H35.7078V25.586ZM11.1187 58.0454C11.1187 57.6673 11.2234 57.3985 11.3031 57.2719H18.2063C18.2859 57.3985 18.3906 57.6673 18.3906 58.0454V60.3923H11.1187V58.0454ZM6.22656 63.4079H23.6875V94.2719H6.22656V63.4079Z" fill="white"/>
<path d="M14.957 45.1735C15.7898 45.1735 16.4648 44.4985 16.4648 43.6657V5.72974H48.4836V18.6625C48.4836 19.4954 49.1586 20.1704 49.9914 20.1704C50.8242 20.1704 51.4992 19.4954 51.4992 18.6625V4.22192C51.4992 3.38911 50.8242 2.71411 49.9914 2.71411H14.957C14.1242 2.71411 13.4492 3.38911 13.4492 4.22192V43.6657C13.4492 44.4985 14.1242 45.1735 14.957 45.1735Z" fill="white"/>
<path d="M38.5 8.77502C37.6672 8.77502 36.9922 9.45002 36.9922 10.2828V15.8766C36.9922 16.7094 37.6672 17.3844 38.5 17.3844H43.9437C44.7766 17.3844 45.4516 16.7094 45.4516 15.8766V10.2828C45.4516 9.45002 44.7766 8.77502 43.9437 8.77502H38.5ZM42.4359 14.3688H40.0078V11.7906H42.4359V14.3688Z" fill="white"/>
<path d="M27.957 10.2828C27.957 9.45002 27.282 8.77502 26.4492 8.77502H21.0039C20.1711 8.77502 19.4961 9.45002 19.4961 10.2828V15.8766C19.4961 16.7094 20.1711 17.3844 21.0039 17.3844H26.4492C27.282 17.3844 27.957 16.7094 27.957 15.8766V10.2828ZM24.9414 14.3688H22.5117V11.7906H24.9414V14.3688Z" fill="white"/>
<path d="M27.957 23.9437C27.957 23.1109 27.282 22.4359 26.4492 22.4359H21.0039C20.1711 22.4359 19.4961 23.1109 19.4961 23.9437V29.5375C19.4961 30.3703 20.1711 31.0453 21.0039 31.0453H26.4492C27.282 31.0453 27.957 30.3703 27.957 29.5375V23.9437ZM24.9414 28.0297H22.5117V25.4515H24.9414V28.0297Z" fill="white"/>
<path d="M27.957 37.1875C27.957 36.3547 27.282 35.6797 26.4492 35.6797H21.0039C20.1711 35.6797 19.4961 36.3547 19.4961 37.1875V42.7828C19.4961 43.6156 20.1711 44.2906 21.0039 44.2906H26.4492C27.282 44.2906 27.957 43.6156 27.957 42.7828V37.1875ZM24.9414 41.2734H22.5117V38.6938H24.9414V41.2734Z" fill="white"/>
<path d="M26.4492 57.2626C27.282 57.2626 27.957 56.5876 27.957 55.7548V50.161C27.957 49.3282 27.282 48.6532 26.4492 48.6532H21.0039C20.1711 48.6532 19.4961 49.3282 19.4961 50.161C19.4961 50.9938 20.1711 51.6688 21.0039 51.6688H24.9414V55.7548C24.9414 56.5876 25.6164 57.2626 26.4492 57.2626Z" fill="white"/>
<path d="M30.9648 10.2828V15.8766C30.9648 16.7094 31.6398 17.3844 32.4727 17.3844C33.3055 17.3844 33.9805 16.7094 33.9805 15.8766V10.2828C33.9805 9.45002 33.3055 8.77502 32.4727 8.77502C31.6398 8.77502 30.9648 9.45002 30.9648 10.2828Z" fill="white"/>
</svg>
