<svg width="100" height="100" viewBox="0 0 100 100" fill="none" xmlns="http://www.w3.org/2000/svg">
<path d="M90.625 95.3125V32.8125C90.625 32.3981 90.4604 32.0007 90.1674 31.7076C89.8743 31.4146 89.4769 31.25 89.0625 31.25H87.5V26.5625C87.5 26.1481 87.3354 25.7507 87.0424 25.4576C86.7493 25.1646 86.3519 25 85.9375 25H84.375V20.3125C84.375 19.8981 84.2104 19.5007 83.9174 19.2076C83.6243 18.9146 83.2269 18.75 82.8125 18.75H75V1.5625H71.875V18.75H64.0625C63.6481 18.75 63.2507 18.9146 62.9576 19.2076C62.6646 19.5007 62.5 19.8981 62.5 20.3125V25H60.9375C60.5231 25 60.1257 25.1646 59.8326 25.4576C59.5396 25.7507 59.375 26.1481 59.375 26.5625V31.25H57.8125C57.3981 31.25 57.0007 31.4146 56.7076 31.7076C56.4146 32.0007 56.25 32.3981 56.25 32.8125V34.375H26.5625C26.1481 34.375 25.7507 34.5396 25.4576 34.8326C25.1646 35.1257 25 35.5231 25 35.9375V48.4375H10.9375C10.5231 48.4375 10.1257 48.6021 9.83265 48.8951C9.53962 49.1882 9.375 49.5856 9.375 50V95.3125H1.5625V98.4375H98.4375V95.3125H90.625ZM65.625 21.875H81.25V25H65.625V21.875ZM62.5 28.125H84.375V31.25H62.5V28.125ZM87.5 34.375V95.3125H68.75V71.875C68.75 71.4606 68.5854 71.0632 68.2924 70.7701C67.9993 70.4771 67.6019 70.3125 67.1875 70.3125H59.375V34.375H87.5ZM65.625 73.4375V95.3125H31.25V73.4375H65.625ZM28.125 37.5H56.25V70.3125H43.75V50C43.75 49.5856 43.5854 49.1882 43.2924 48.8951C42.9993 48.6021 42.6019 48.4375 42.1875 48.4375H28.125V37.5ZM12.5 51.5625H40.625V70.3125H37.5V56.25C37.5 55.8356 37.3354 55.4382 37.0424 55.1451C36.7493 54.8521 36.3519 54.6875 35.9375 54.6875H17.1875C16.7731 54.6875 16.3757 54.8521 16.0826 55.1451C15.7896 55.4382 15.625 55.8356 15.625 56.25V92.1875H18.75V57.8125H21.875V92.1875H25V57.8125H28.125V67.1875H31.25V57.8125H34.375V70.3125H29.6875C29.2731 70.3125 28.8757 70.4771 28.5826 70.7701C28.2896 71.0632 28.125 71.4606 28.125 71.875V95.3125H12.5V51.5625Z" fill="white"/>
<path d="M81.25 37.5H84.375V40.625H81.25V37.5Z" fill="white"/>
<path d="M75 37.5H78.125V40.625H75V37.5Z" fill="white"/>
<path d="M68.75 37.5H71.875V40.625H68.75V37.5Z" fill="white"/>
<path d="M62.5 37.5H65.625V40.625H62.5V37.5Z" fill="white"/>
<path d="M81.25 43.75H84.375V46.875H81.25V43.75Z" fill="white"/>
<path d="M75 43.75H78.125V46.875H75V43.75Z" fill="white"/>
<path d="M68.75 43.75H71.875V46.875H68.75V43.75Z" fill="white"/>
<path d="M62.5 43.75H65.625V46.875H62.5V43.75Z" fill="white"/>
<path d="M81.25 50H84.375V53.125H81.25V50Z" fill="white"/>
<path d="M75 50H78.125V53.125H75V50Z" fill="white"/>
<path d="M68.75 50H71.875V53.125H68.75V50Z" fill="white"/>
<path d="M62.5 50H65.625V53.125H62.5V50Z" fill="white"/>
<path d="M81.25 56.25H84.375V59.375H81.25V56.25Z" fill="white"/>
<path d="M75 56.25H78.125V59.375H75V56.25Z" fill="white"/>
<path d="M68.75 56.25H71.875V59.375H68.75V56.25Z" fill="white"/>
<path d="M62.5 56.25H65.625V59.375H62.5V56.25Z" fill="white"/>
<path d="M81.25 62.5H84.375V65.625H81.25V62.5Z" fill="white"/>
<path d="M75 62.5H78.125V65.625H75V62.5Z" fill="white"/>
<path d="M68.75 62.5H71.875V65.625H68.75V62.5Z" fill="white"/>
<path d="M62.5 62.5H65.625V65.625H62.5V62.5Z" fill="white"/>
<path d="M81.25 68.75H84.375V71.875H81.25V68.75Z" fill="white"/>
<path d="M75 68.75H78.125V71.875H75V68.75Z" fill="white"/>
<path d="M81.25 75H84.375V78.125H81.25V75Z" fill="white"/>
<path d="M75 75H78.125V78.125H75V75Z" fill="white"/>
<path d="M81.25 81.25H84.375V84.375H81.25V81.25Z" fill="white"/>
<path d="M75 81.25H78.125V84.375H75V81.25Z" fill="white"/>
<path d="M81.25 87.5H84.375V90.625H81.25V87.5Z" fill="white"/>
<path d="M75 87.5H78.125V90.625H75V87.5Z" fill="white"/>
<path d="M68.75 68.75H71.875V71.875H68.75V68.75Z" fill="white"/>
<path d="M31.25 40.625H53.125V43.75H31.25V40.625Z" fill="white"/>
<path d="M46.875 46.875H53.125V50H46.875V46.875Z" fill="white"/>
<path d="M46.875 53.125H53.125V56.25H46.875V53.125Z" fill="white"/>
<path d="M46.875 59.375H53.125V62.5H46.875V59.375Z" fill="white"/>
<path d="M46.875 65.625H53.125V68.75H46.875V65.625Z" fill="white"/>
<path d="M37.5 79.6875H62.5V76.5625H35.9375C35.5231 76.5625 35.1257 76.7271 34.8326 77.0201C34.5396 77.3132 34.375 77.7106 34.375 78.125V92.1875H37.5V79.6875Z" fill="white"/>
<path d="M40.625 84.375V92.1875H43.75V85.9375H62.5V82.8125H42.1875C41.7731 82.8125 41.3757 82.9771 41.0826 83.2701C40.7896 83.5632 40.625 83.9606 40.625 84.375Z" fill="white"/>
<path d="M46.875 89.0625H62.5V92.1875H46.875V89.0625Z" fill="white"/>
</svg>
