<svg width="100" height="100" viewBox="0 0 100 100" fill="none" xmlns="http://www.w3.org/2000/svg">
<path d="M97.8516 45.6547L82.2266 33.1547C81.9494 32.9328 81.605 32.8119 81.25 32.8119C80.895 32.8119 80.5506 32.9328 80.2734 33.1547L76.5625 36.125V3.125C76.5625 2.7106 76.3979 2.31317 76.1049 2.02015C75.8118 1.72712 75.4144 1.5625 75 1.5625H25C24.5856 1.5625 24.1882 1.72712 23.8951 2.02015C23.6021 2.31317 23.4375 2.7106 23.4375 3.125V41.8016L3.76563 32.95C3.52768 32.843 3.26675 32.7974 3.00662 32.8171C2.74649 32.8369 2.49545 32.9215 2.2764 33.0632C2.05735 33.2048 1.87726 33.3991 1.75256 33.6283C1.62786 33.8574 1.56252 34.1141 1.5625 34.375V96.875C1.5625 97.2894 1.72712 97.6868 2.02015 97.9799C2.31317 98.2729 2.7106 98.4375 3.125 98.4375H96.875C97.2894 98.4375 97.6868 98.2729 97.9799 97.9799C98.2729 97.6868 98.4375 97.2894 98.4375 96.875V46.875C98.4376 46.6407 98.385 46.4093 98.2835 46.1981C98.1821 45.9869 98.0345 45.8011 97.8516 45.6547ZM26.5625 4.6875H73.4375V38.625L70.3125 41.125V9.375C70.3125 8.9606 70.1479 8.56317 69.8549 8.27015C69.5618 7.97712 69.1644 7.8125 68.75 7.8125H31.25C30.8356 7.8125 30.4382 7.97712 30.1451 8.27015C29.8521 8.56317 29.6875 8.9606 29.6875 9.375V44.6141L26.5625 43.2078V4.6875ZM20.3125 95.3125H14.0625V90.625H20.3125V95.3125ZM32.8125 95.3125H23.4375V89.0625C23.4375 88.6481 23.2729 88.2507 22.9799 87.9576C22.6868 87.6646 22.2894 87.5 21.875 87.5H12.5C12.0856 87.5 11.6882 87.6646 11.3951 87.9576C11.1021 88.2507 10.9375 88.6481 10.9375 89.0625V95.3125H4.6875V36.7906L23.4375 45.2281V45.3125H23.6234L32.8125 49.4469V95.3125ZM54.6875 95.3125H45.3125V85.9375H54.6875V95.3125ZM64.0625 46.875V39.0625H60.9375V48.4375H64.0625V95.3125H57.8125V84.375C57.8125 83.9606 57.6479 83.5632 57.3549 83.2701C57.0618 82.9771 56.6644 82.8125 56.25 82.8125H43.75C43.3356 82.8125 42.9382 82.9771 42.6451 83.2701C42.3521 83.5632 42.1875 83.9606 42.1875 84.375V95.3125H35.9375V48.4375C35.9375 48.1364 35.8505 47.8417 35.6869 47.5889C35.5234 47.3361 35.2902 47.1359 35.0156 47.0125L32.8125 46.0203V10.9375H48.4375V76.5625H45.3125V39.0625H42.1875V78.125C42.1875 78.5394 42.3521 78.9368 42.6451 79.2299C42.9382 79.5229 43.3356 79.6875 43.75 79.6875H56.25C56.6644 79.6875 57.0618 79.5229 57.3549 79.2299C57.6479 78.9368 57.8125 78.5394 57.8125 78.125V39.0625H54.6875V76.5625H51.5625V10.9375H67.1875V43.625L64.6484 45.6562C64.4657 45.8025 64.3182 45.988 64.2168 46.199C64.1154 46.4099 64.0626 46.6409 64.0625 46.875ZM84.375 95.3125H78.125V90.625H84.375V95.3125ZM95.3125 95.3125H87.5V89.0625C87.5 88.6481 87.3354 88.2507 87.0424 87.9576C86.7493 87.6646 86.3519 87.5 85.9375 87.5H76.5625C76.1481 87.5 75.7507 87.6646 75.4576 87.9576C75.1646 88.2507 75 88.6481 75 89.0625V95.3125H67.1875V47.625L81.25 36.375L95.3125 47.625V95.3125Z" fill="white"/>
<path d="M7.8125 40.625H10.9375V53.125H7.8125V40.625Z" fill="white"/>
<path d="M14.0625 43.75H17.1875V53.125H14.0625V43.75Z" fill="white"/>
<path d="M20.3125 46.875H23.4375V53.125H20.3125V46.875Z" fill="white"/>
<path d="M26.5625 50H29.6875V53.125H26.5625V50Z" fill="white"/>
<path d="M7.8125 56.25H10.9375V65.625H7.8125V56.25Z" fill="white"/>
<path d="M14.0625 56.25H17.1875V65.625H14.0625V56.25Z" fill="white"/>
<path d="M20.3125 56.25H23.4375V65.625H20.3125V56.25Z" fill="white"/>
<path d="M26.5625 56.25H29.6875V65.625H26.5625V56.25Z" fill="white"/>
<path d="M7.8125 68.75H10.9375V78.125H7.8125V68.75Z" fill="white"/>
<path d="M14.0625 68.75H17.1875V78.125H14.0625V68.75Z" fill="white"/>
<path d="M20.3125 68.75H23.4375V78.125H20.3125V68.75Z" fill="white"/>
<path d="M26.5625 68.75H29.6875V78.125H26.5625V68.75Z" fill="white"/>
<path d="M78.125 48.4375H71.875C71.4606 48.4375 71.0632 48.6021 70.7701 48.8951C70.4771 49.1882 70.3125 49.5856 70.3125 50V56.25C70.3125 56.6644 70.4771 57.0618 70.7701 57.3549C71.0632 57.6479 71.4606 57.8125 71.875 57.8125H78.125C78.5394 57.8125 78.9368 57.6479 79.2299 57.3549C79.5229 57.0618 79.6875 56.6644 79.6875 56.25V50C79.6875 49.5856 79.5229 49.1882 79.2299 48.8951C78.9368 48.6021 78.5394 48.4375 78.125 48.4375ZM76.5625 54.6875H73.4375V51.5625H76.5625V54.6875Z" fill="white"/>
<path d="M84.375 57.8125H90.625C91.0394 57.8125 91.4368 57.6479 91.7299 57.3549C92.0229 57.0618 92.1875 56.6644 92.1875 56.25V50C92.1875 49.5856 92.0229 49.1882 91.7299 48.8951C91.4368 48.6021 91.0394 48.4375 90.625 48.4375H84.375C83.9606 48.4375 83.5632 48.6021 83.2701 48.8951C82.9771 49.1882 82.8125 49.5856 82.8125 50V56.25C82.8125 56.6644 82.9771 57.0618 83.2701 57.3549C83.5632 57.6479 83.9606 57.8125 84.375 57.8125ZM85.9375 51.5625H89.0625V54.6875H85.9375V51.5625Z" fill="white"/>
<path d="M78.125 60.9375H71.875C71.4606 60.9375 71.0632 61.1021 70.7701 61.3951C70.4771 61.6882 70.3125 62.0856 70.3125 62.5V68.75C70.3125 69.1644 70.4771 69.5618 70.7701 69.8549C71.0632 70.1479 71.4606 70.3125 71.875 70.3125H78.125C78.5394 70.3125 78.9368 70.1479 79.2299 69.8549C79.5229 69.5618 79.6875 69.1644 79.6875 68.75V62.5C79.6875 62.0856 79.5229 61.6882 79.2299 61.3951C78.9368 61.1021 78.5394 60.9375 78.125 60.9375ZM76.5625 67.1875H73.4375V64.0625H76.5625V67.1875Z" fill="white"/>
<path d="M84.375 70.3125H90.625C91.0394 70.3125 91.4368 70.1479 91.7299 69.8549C92.0229 69.5618 92.1875 69.1644 92.1875 68.75V62.5C92.1875 62.0856 92.0229 61.6882 91.7299 61.3951C91.4368 61.1021 91.0394 60.9375 90.625 60.9375H84.375C83.9606 60.9375 83.5632 61.1021 83.2701 61.3951C82.9771 61.6882 82.8125 62.0856 82.8125 62.5V68.75C82.8125 69.1644 82.9771 69.5618 83.2701 69.8549C83.5632 70.1479 83.9606 70.3125 84.375 70.3125ZM85.9375 64.0625H89.0625V67.1875H85.9375V64.0625Z" fill="white"/>
<path d="M78.125 73.4375H71.875C71.4606 73.4375 71.0632 73.6021 70.7701 73.8951C70.4771 74.1882 70.3125 74.5856 70.3125 75V81.25C70.3125 81.6644 70.4771 82.0618 70.7701 82.3549C71.0632 82.6479 71.4606 82.8125 71.875 82.8125H78.125C78.5394 82.8125 78.9368 82.6479 79.2299 82.3549C79.5229 82.0618 79.6875 81.6644 79.6875 81.25V75C79.6875 74.5856 79.5229 74.1882 79.2299 73.8951C78.9368 73.6021 78.5394 73.4375 78.125 73.4375ZM76.5625 79.6875H73.4375V76.5625H76.5625V79.6875Z" fill="white"/>
<path d="M84.375 82.8125H90.625C91.0394 82.8125 91.4368 82.6479 91.7299 82.3549C92.0229 82.0618 92.1875 81.6644 92.1875 81.25V75C92.1875 74.5856 92.0229 74.1882 91.7299 73.8951C91.4368 73.6021 91.0394 73.4375 90.625 73.4375H84.375C83.9606 73.4375 83.5632 73.6021 83.2701 73.8951C82.9771 74.1882 82.8125 74.5856 82.8125 75V81.25C82.8125 81.6644 82.9771 82.0618 83.2701 82.3549C83.5632 82.6479 83.9606 82.8125 84.375 82.8125ZM85.9375 76.5625H89.0625V79.6875H85.9375V76.5625Z" fill="white"/>
<path d="M35.9375 14.0625H39.0625V23.4375H35.9375V14.0625Z" fill="white"/>
<path d="M42.1875 14.0625H45.3125V23.4375H42.1875V14.0625Z" fill="white"/>
<path d="M35.9375 26.5625H39.0625V35.9375H35.9375V26.5625Z" fill="white"/>
<path d="M42.1875 26.5625H45.3125V35.9375H42.1875V26.5625Z" fill="white"/>
<path d="M35.9375 39.0625H39.0625V48.4375H35.9375V39.0625Z" fill="white"/>
<path d="M54.6875 14.0625H57.8125V23.4375H54.6875V14.0625Z" fill="white"/>
<path d="M60.9375 14.0625H64.0625V23.4375H60.9375V14.0625Z" fill="white"/>
<path d="M54.6875 26.5625H57.8125V35.9375H54.6875V26.5625Z" fill="white"/>
<path d="M60.9375 26.5625H64.0625V35.9375H60.9375V26.5625Z" fill="white"/>
<path d="M7.8125 81.25H10.9375V84.375H7.8125V81.25Z" fill="white"/>
<path d="M14.0625 81.25H17.1875V84.375H14.0625V81.25Z" fill="white"/>
<path d="M20.3125 81.25H23.4375V84.375H20.3125V81.25Z" fill="white"/>
<path d="M26.5625 81.25H29.6875V84.375H26.5625V81.25Z" fill="white"/>
</svg>
