<svg width="100" height="100" viewBox="0 0 100 100" fill="none" xmlns="http://www.w3.org/2000/svg">
<path d="M91.8608 94.3149V3.12195H91.8606H55.9594V18.4378H58.5223V11.576H89.2977V37.7263H67.3075V40.2892H89.2977V78.6865H67.3075V81.2494H89.2977V90.4723H82.6936V82.7053H71.624V90.4723H64.5506V18.4236L29.8114 42.1868V72.0402H9.54639V70.0819H27.0815V67.519H9.54639V25.5335H37.2166V32.7226H39.7795V22.9706H6.98349V94.3147H0V96.8776H8.26494V96.8766H12.171H26.5957H39.622V96.8776H55.0527V96.8766H58.4642V94.3137H55.0527V76.5611H39.622V94.3137H26.5957V76.5611H12.1708V94.3137H9.54639V74.603H29.8114V91.433H32.3743V43.5388L61.9877 23.2819V96.878L91.7353 96.8768V96.8778H100V94.3149H91.8608ZM42.1847 79.124H52.4897V94.3137H48.6185V86.7194H46.0556V94.3137H42.1847V79.124ZM14.7337 79.124H24.0327V81.1595H14.7337V79.124ZM14.7337 83.7226H24.0327V94.3139H14.7337V83.7226ZM71.624 94.3143L64.5506 94.3145V93.0352H71.624V94.3143ZM80.1307 94.3143H74.1869V85.2682H80.1307V94.3143ZM89.2977 94.3137L82.6936 94.3139V93.0352H89.2977V94.3137ZM89.2977 9.01306H58.5223V5.68484H89.2977V9.01306Z" fill="white"/>
<path d="M67.0703 16.5504V23.5958H87.3312V16.5504H67.0703ZM71.7003 21.0329H69.6332V19.1133H71.7003V21.0329ZM80.2858 21.0329H74.2632V19.1133H80.2858V21.0329ZM84.7683 21.0329H82.8487V19.1133H84.7683V21.0329Z" fill="white"/>
<path d="M67.0703 26.5132V33.5586H87.3312V26.5132H67.0703ZM71.7003 30.9955H69.6332V29.0759H71.7003V30.9955ZM80.2858 30.9957H74.2632V29.0761H80.2858V30.9957ZM84.7683 30.9957H82.8487V29.0761H84.7683V30.9957Z" fill="white"/>
<path d="M71.5121 42.9678H68.9492V76.0074H71.5121V42.9678Z" fill="white"/>
<path d="M86.891 42.9678H84.3281V76.0074H86.891V42.9678Z" fill="white"/>
<path d="M79.1996 42.9678H76.6367V76.0074H79.1996V42.9678Z" fill="white"/>
<path d="M34.7539 46.8142V59.3008H41.2828V46.8142H34.7539ZM38.7199 56.7379H37.3168V55.0184H38.7199V56.7379ZM38.7199 52.4555H37.3168V49.3771H38.7199V52.4555Z" fill="white"/>
<path d="M53.3906 46.8142V59.3008H59.9195V46.8142H53.3906ZM57.3566 56.7379H55.9535V55.0184H57.3566V56.7379ZM57.3566 52.4555H55.9535V49.3771H57.3566V52.4555Z" fill="white"/>
<path d="M44.0742 46.8142V59.3008H50.6031V46.8142H44.0742ZM48.0402 56.7379H46.6371V55.0184H48.0402V56.7379ZM48.0402 52.4555H46.6371V49.3771H48.0402V52.4555Z" fill="white"/>
<path d="M34.7539 60.725V73.2118H41.2828V60.725H34.7539ZM38.7199 70.6489H37.3168V68.8531H38.7199V70.6489ZM38.7199 66.2902H37.3168V63.2879H38.7199V66.2902Z" fill="white"/>
<path d="M53.3906 60.725V73.2118H59.9195V60.725H53.3906ZM57.3566 70.6489H55.9535V68.8531H57.3566V70.6489ZM57.3566 66.2902H55.9535V63.2879H57.3566V66.2902Z" fill="white"/>
<path d="M44.0742 60.725V73.2118H50.6031V60.725H44.0742ZM48.0402 70.6489H46.6371V68.8531H48.0402V70.6489ZM48.0402 66.2902H46.6371V63.2879H48.0402V66.2902Z" fill="white"/>
<path d="M12.1719 28.7549V35.1852H18.6024V28.7549H12.1719ZM16.0395 32.6221H14.7348V31.3176H16.0395V32.6221Z" fill="white"/>
<path d="M28.1602 28.7549V35.1852H34.5905V28.7549H28.1602ZM32.0276 32.6221H30.7231V31.3176H32.0276V32.6221Z" fill="white"/>
<path d="M20.1641 28.7546V35.1849H26.5944V28.7546H20.1641ZM24.0315 32.6222H22.727V31.3177H24.0315V32.6222Z" fill="white"/>
<path d="M12.1719 57.1385V63.5689H18.6024V57.1385H12.1719ZM16.0395 61.006H14.7348V59.7014H16.0395V61.006Z" fill="white"/>
<path d="M20.1641 57.1385V63.5689H26.5944V57.1385H20.1641ZM24.0315 61.006H22.727V59.7014H24.0315V61.006Z" fill="white"/>
<path d="M12.1719 42.9467V49.3772H18.6024V42.9467H12.1719ZM16.0395 46.8143H14.7348V45.5095H16.0395V46.8143Z" fill="white"/>
<path d="M20.1641 42.9467V49.3772H26.5944V42.9467H20.1641ZM24.0315 46.8143H22.727V45.5095H24.0315V46.8143Z" fill="white"/>
<path d="M26.5684 37.7848H12.2852V40.3477H26.5684V37.7848Z" fill="white"/>
<path d="M26.5684 51.9753H12.2852V54.5382H26.5684V51.9753Z" fill="white"/>
<path d="M24.6612 12.2972V7.0105H22.0983V12.2972H9.24219V20.6885H11.8051V14.8601H34.9541V20.6885H37.517V12.2972H24.6612Z" fill="white"/>
</svg>
