<svg width="100" height="100" viewBox="0 0 100 100" fill="none" xmlns="http://www.w3.org/2000/svg">
<path d="M92.1875 88.8734C95.7484 88.0015 98.4375 84.2156 98.4375 79.6875C98.4375 75.1593 95.7484 71.3734 92.1875 70.5015V20.3125H89.0625V14.0625H82.8125V7.81245H79.6484L79.6875 1.57183L76.5625 1.55151L76.5234 7.81245H73.4375V14.0625H67.1875V20.3125H64.0625V33.8718C60.675 34.7921 57.5031 36.2843 54.6875 38.2781V23.4375H60.9375V14.0625H53.125V7.81245H49.9609L50 1.57183L46.875 1.55151L46.8359 7.81245H43.75V14.0625H35.9375V23.4375H42.1875V53.4671L35.9375 51.9046V39.0625H39.0625V35.9375H29.6875V26.5625H26.5625V35.9375H23.4375V32.8125H20.3125V35.9375H17.1875V29.6875H14.0625V35.9375H4.6875V39.0625H7.8125V87.5406C5.92656 88.9671 4.6875 91.2078 4.6875 93.75C4.6875 94.2781 4.75781 94.7984 4.8625 95.3125H1.5625V98.4375H98.4375V95.3125H92.1875V88.8734ZM45.3125 86.6093C43.0797 85.6421 40.3938 85.764 38.2844 86.9921C36.2297 84.3781 33.0703 82.8125 29.6875 82.8125C27.3781 82.8125 25.225 83.539 23.4375 84.7828V52.0015L45.3125 57.4703V86.6093ZM46.4906 54.5421L46.6641 54.1093C50.1141 43.7375 59.5 36.6124 70.3125 35.9828V90.1484C68.5734 89.3171 66.6156 88.9156 64.5922 89.1125C62.8125 85.2953 58.9844 82.8125 54.6875 82.8125C52.4109 82.8125 50.2438 83.5359 48.4375 84.7968V55.0296L46.4906 54.5421ZM76.5625 79.6875V85.5531C74.7484 84.6906 73.4375 82.3999 73.4375 79.6875C73.4375 76.2406 75.5406 73.4375 78.125 73.4375C80.7094 73.4375 82.8125 76.2406 82.8125 79.6875C82.8125 82.3999 81.5016 84.6906 79.6875 85.5531V79.6875H76.5625ZM73.4375 92.3984V87.1687C74.3469 87.9921 75.4062 88.589 76.5625 88.8718V95.3125H75.4703C74.9484 94.2203 74.2625 93.2437 73.4375 92.3984ZM79.6875 88.8734C81.5969 88.4062 83.2469 87.0953 84.375 85.289C85.5031 87.0968 87.1531 88.4062 89.0625 88.8734V95.3125H79.6875V88.8734ZM95.3125 79.6875C95.3125 82.3999 94.0016 84.6906 92.1875 85.5531V79.6875H89.0625V85.5531C87.2484 84.6906 85.9375 82.3999 85.9375 79.6875C85.9375 76.2406 88.0406 73.4375 90.625 73.4375C93.2094 73.4375 95.3125 76.2406 95.3125 79.6875ZM76.5625 10.9375H79.6875V14.0625H76.5625V10.9375ZM70.3125 17.1875H73.4375H82.8125H85.9375V20.3125H70.3125V17.1875ZM67.1875 23.4375H89.0625V70.5015C87.1531 70.9687 85.5031 72.2796 84.375 74.0859C82.9484 71.8015 80.6813 70.3125 78.125 70.3125C76.3656 70.3125 74.7453 71.0234 73.4375 72.2046V32.8125H71.875C70.2859 32.8125 68.7203 32.939 67.1875 33.1828V23.4375ZM46.875 10.9375H50V14.0625H46.875V10.9375ZM39.0625 17.1875H57.8125V20.3125H39.0625V17.1875ZM51.5625 23.4375V40.8421C49.0234 43.2203 46.8953 46.0499 45.3125 49.2421V23.4375H51.5625ZM10.9375 39.0625H32.8125V51.1234L20.3125 47.9984V88.1453C20.1203 88.4703 19.925 88.7937 19.7641 89.1406C19.4359 89.0953 19.1016 89.0703 18.7547 89.0671C17.2891 87.1156 14.9734 85.9375 12.5 85.9375C11.9656 85.9375 11.4422 85.9921 10.9375 86.0953V39.0625ZM7.8125 93.75C7.8125 91.1656 9.91562 89.0625 12.5 89.0625C14.1891 89.0625 15.7547 89.9765 16.5859 91.4484L17.0703 92.3062L18.75 92.1875C19.2094 92.1875 19.6938 92.2765 20.2328 92.4578L21.75 92.9671L22.2234 91.4375C23.2406 88.1484 26.2406 85.9375 29.6875 85.9375C32.5297 85.9375 35.1516 87.4859 36.5281 89.9796L37.5047 91.7484L38.9703 90.3578C40.7328 88.689 43.6391 88.689 45.4016 90.3578L46.8672 91.7484L47.8438 89.9796C49.2234 87.4859 51.8453 85.9375 54.6875 85.9375C58.0797 85.9375 61.0641 88.1062 62.1141 91.3343L62.5531 92.6828L63.9391 92.3765C67.0281 91.6906 70.0578 92.964 71.8391 95.3125H8.11562C7.9375 94.8093 7.8125 94.289 7.8125 93.75Z" fill="white"/>
<path d="M26.5625 42.1875H29.6875V45.3125H26.5625V42.1875Z" fill="white"/>
<path d="M14.0625 42.1875H17.1875V45.3125H14.0625V42.1875Z" fill="white"/>
<path d="M20.3125 42.1875H23.4375V45.3125H20.3125V42.1875Z" fill="white"/>
<path d="M14.0625 67.1875H17.1875V70.3125H14.0625V67.1875Z" fill="white"/>
<path d="M14.0625 60.9375H17.1875V64.0625H14.0625V60.9375Z" fill="white"/>
<path d="M14.0625 54.6875H17.1875V57.8125H14.0625V54.6875Z" fill="white"/>
<path d="M14.0625 73.4375H17.1875V76.5625H14.0625V73.4375Z" fill="white"/>
<path d="M14.0625 48.4375H17.1875V51.5625H14.0625V48.4375Z" fill="white"/>
<path d="M14.0625 79.6875H17.1875V82.8125H14.0625V79.6875Z" fill="white"/>
<path d="M82.8125 26.5625H85.9375V29.6875H82.8125V26.5625Z" fill="white"/>
<path d="M76.5625 26.5625H79.6875V29.6875H76.5625V26.5625Z" fill="white"/>
<path d="M70.3125 26.5625H73.4375V29.6875H70.3125V26.5625Z" fill="white"/>
<path d="M26.5625 76.5625H29.6875V79.6875H26.5625V76.5625Z" fill="white"/>
<path d="M26.5625 70.3125H29.6875V73.4375H26.5625V70.3125Z" fill="white"/>
<path d="M26.5625 64.0625H29.6875V67.1875H26.5625V64.0625Z" fill="white"/>
<path d="M26.5625 57.8125H29.6875V60.9375H26.5625V57.8125Z" fill="white"/>
<path d="M32.8125 57.8125H35.9375V60.9375H32.8125V57.8125Z" fill="white"/>
<path d="M32.8125 64.0625H35.9375V67.1875H32.8125V64.0625Z" fill="white"/>
<path d="M32.8125 76.5625H35.9375V79.6875H32.8125V76.5625Z" fill="white"/>
<path d="M32.8125 70.3125H35.9375V73.4375H32.8125V70.3125Z" fill="white"/>
<path d="M39.0625 76.5625H42.1875V79.6875H39.0625V76.5625Z" fill="white"/>
<path d="M39.0625 64.0625H42.1875V67.1875H39.0625V64.0625Z" fill="white"/>
<path d="M39.0625 57.8125H42.1875V60.9375H39.0625V57.8125Z" fill="white"/>
<path d="M39.0625 70.3125H42.1875V73.4375H39.0625V70.3125Z" fill="white"/>
<path d="M57.8125 76.5625H60.9375V79.6875H57.8125V76.5625Z" fill="white"/>
<path d="M51.5625 76.5625H54.6875V79.6875H51.5625V76.5625Z" fill="white"/>
<path d="M64.0625 76.5625H67.1875V79.6875H64.0625V76.5625Z" fill="white"/>
<path d="M57.8125 70.3125H60.9375V73.4375H57.8125V70.3125Z" fill="white"/>
<path d="M51.5625 70.3125H54.6875V73.4375H51.5625V70.3125Z" fill="white"/>
<path d="M64.0625 70.3125H67.1875V73.4375H64.0625V70.3125Z" fill="white"/>
<path d="M64.0625 64.0625H67.1875V67.1875H64.0625V64.0625Z" fill="white"/>
<path d="M51.5625 64.0625H54.6875V67.1875H51.5625V64.0625Z" fill="white"/>
<path d="M57.8125 64.0625H60.9375V67.1875H57.8125V64.0625Z" fill="white"/>
<path d="M51.5625 57.8125H54.6875V60.9375H51.5625V57.8125Z" fill="white"/>
<path d="M64.0625 57.8125H67.1875V60.9375H64.0625V57.8125Z" fill="white"/>
<path d="M57.8125 57.8125H60.9375V60.9375H57.8125V57.8125Z" fill="white"/>
<path d="M64.0625 51.5625H67.1875V54.6875H64.0625V51.5625Z" fill="white"/>
<path d="M57.8125 51.5625H60.9375V54.6875H57.8125V51.5625Z" fill="white"/>
<path d="M51.5625 51.5625H54.6875V54.6875H51.5625V51.5625Z" fill="white"/>
<path d="M57.8125 45.3125H60.9375V48.4375H57.8125V45.3125Z" fill="white"/>
<path d="M64.0625 45.3125H67.1875V48.4375H64.0625V45.3125Z" fill="white"/>
<path d="M76.5625 32.8125H79.6875V35.9375H76.5625V32.8125Z" fill="white"/>
<path d="M82.8125 32.8125H85.9375V35.9375H82.8125V32.8125Z" fill="white"/>
<path d="M82.8125 39.0625H85.9375V42.1875H82.8125V39.0625Z" fill="white"/>
<path d="M76.5625 39.0625H79.6875V42.1875H76.5625V39.0625Z" fill="white"/>
<path d="M76.5625 45.3125H79.6875V48.4375H76.5625V45.3125Z" fill="white"/>
<path d="M82.8125 45.3125H85.9375V48.4375H82.8125V45.3125Z" fill="white"/>
<path d="M82.8125 51.5625H85.9375V54.6875H82.8125V51.5625Z" fill="white"/>
<path d="M76.5625 51.5625H79.6875V54.6875H76.5625V51.5625Z" fill="white"/>
<path d="M76.5625 57.8125H79.6875V60.9375H76.5625V57.8125Z" fill="white"/>
<path d="M82.8125 57.8125H85.9375V60.9375H82.8125V57.8125Z" fill="white"/>
<path d="M82.8125 64.0625H85.9375V67.1875H82.8125V64.0625Z" fill="white"/>
<path d="M76.5625 64.0625H79.6875V67.1875H76.5625V64.0625Z" fill="white"/>
</svg>
