<svg width="100" height="100" viewBox="0 0 100 100" fill="none" xmlns="http://www.w3.org/2000/svg">
<path d="M98.5352 81.414H96.8687V70.3535C96.8687 69.5445 96.2129 68.8886 95.4039 68.8886H78.0811V54.697C78.0811 53.8881 77.4252 53.2322 76.6162 53.2322H68.6871V48.4345C68.6871 47.6256 68.0312 46.9697 67.2223 46.9697H53.0307V32.7781C53.0307 31.9691 52.3748 31.3133 51.5658 31.3133H49.7602C49.1652 28.2248 46.7252 25.7865 43.6367 25.1914V17.1215C43.6367 16.3125 42.9809 15.6566 42.1719 15.6566C41.3629 15.6566 40.707 16.3125 40.707 17.1215V25.1912C37.6187 25.7863 35.1787 28.2246 34.5836 31.3131H32.7779C31.9689 31.3131 31.3131 31.9689 31.3131 32.7779V43.8383H20.2527C19.4438 43.8383 18.7879 44.4941 18.7879 45.3031V56.3634H4.59609C3.78711 56.3634 3.13125 57.0193 3.13125 57.8283V81.4138H1.46484C0.655859 81.4138 0 82.0697 0 82.8787C0 83.6877 0.655859 84.3435 1.46484 84.3435H98.5352C99.3441 84.3435 100 83.6877 100 82.8787C100 82.0697 99.3441 81.414 98.5352 81.414ZM21.7174 46.7679H37.5756V50.1008H21.7174V46.7679ZM28.1816 81.414H24.8486V79.7476C24.8486 78.9386 24.1928 78.2828 23.3838 78.2828C22.5748 78.2828 21.9189 78.9386 21.9189 79.7476V81.414H18.5861V79.7476C18.5861 78.9386 17.9303 78.2828 17.1213 78.2828C16.3123 78.2828 15.6564 78.9386 15.6564 79.7476V81.414H12.3236V79.7476C12.3236 78.9386 11.6678 78.2828 10.8588 78.2828C10.0498 78.2828 9.39395 78.9386 9.39395 79.7476V81.414H6.06094V59.2933H28.1816V81.414ZM21.7174 56.3633V53.0304H37.5756V56.3633H29.6465H21.7174ZM34.4443 81.414H31.1115V78.081H34.4443V81.414ZM34.4443 75.1511H31.1115V71.8183H34.4443V75.1511ZM34.4443 68.8886H31.1115V65.5558H34.4443V68.8886ZM31.1115 62.6259V59.2931H37.5756V62.6259H35.9092H31.1115ZM65.757 53.232H60.9594C60.1504 53.232 59.4945 53.8879 59.4945 54.6968C59.4945 55.5058 60.1504 56.1617 60.9594 56.1617H65.757V59.4945H60.9594C60.1504 59.4945 59.4945 60.1504 59.4945 60.9594C59.4945 61.7683 60.1504 62.4242 60.9594 62.4242H65.757V65.757H60.9594C60.1504 65.757 59.4945 66.4129 59.4945 67.2218C59.4945 68.0308 60.1504 68.6867 60.9594 68.6867H65.757V72.0195H60.9594C60.1504 72.0195 59.4945 72.6754 59.4945 73.4844C59.4945 74.2933 60.1504 74.9492 60.9594 74.9492H65.757V81.4135H56.1615V79.747C56.1615 78.9381 55.5057 78.2822 54.6967 78.2822C53.8877 78.2822 53.2318 78.9381 53.2318 79.747V81.4135H49.899V78.1816C49.899 77.3726 49.2432 76.7168 48.4342 76.7168C47.6252 76.7168 46.9693 77.3726 46.9693 78.1816V81.4138H43.6365V78.1816C43.6365 77.3726 42.9807 76.7168 42.1717 76.7168C41.3627 76.7168 40.7068 77.3726 40.7068 78.1816V81.4138H37.374V65.5556H53.232V73.4847C53.232 74.2937 53.8879 74.9496 54.6969 74.9496C55.5059 74.9496 56.1617 74.2937 56.1617 73.4847V64.0908C56.1617 63.2818 55.5059 62.6259 54.6969 62.6259H53.0305V57.8285C53.0305 57.0195 52.3746 56.3636 51.5656 56.3636C50.7566 56.3636 50.1008 57.0195 50.1008 57.8285V62.6259H40.5053V45.3031C40.5053 44.4941 39.8494 43.8383 39.0404 43.8383H34.2428V34.2427H35.9092C36.7182 34.2427 37.374 33.5869 37.374 32.7779C37.374 30.1324 39.5264 27.9801 42.1717 27.9801C44.817 27.9801 46.9693 30.1324 46.9693 32.7779C46.9693 33.5869 47.6252 34.2427 48.4342 34.2427H50.1006V51.566C50.1006 52.375 50.7564 53.0308 51.5654 53.0308C52.3744 53.0308 53.0303 52.375 53.0303 51.566V49.8992H65.757V53.232ZM72.0197 70.3535V81.4138H68.6869V56.1619H75.1512V68.8886H73.4846C72.6756 68.8886 72.0197 69.5445 72.0197 70.3535ZM93.9391 81.414H89.0404V76.6164C89.0404 75.8074 88.3846 75.1515 87.5756 75.1515C86.7666 75.1515 86.1107 75.8074 86.1107 76.6164V81.414H82.7781V76.6164C82.7781 75.8074 82.1223 75.1515 81.3133 75.1515C80.5043 75.1515 79.8484 75.8074 79.8484 76.6164V81.414H74.9496V71.8183H93.9391V81.414Z" fill="white"/>
<path d="M45.3203 37.5756H45.3047C44.4957 37.5756 43.8477 38.2314 43.8477 39.0404C43.8477 39.8494 44.5113 40.5052 45.3203 40.5052C46.1293 40.5052 46.7852 39.8494 46.7852 39.0404C46.7852 38.2316 46.1293 37.5756 45.3203 37.5756Z" fill="white"/>
<path d="M45.3203 56.3636H45.3047C44.4957 56.3636 43.8477 57.0195 43.8477 57.8285C43.8477 58.6375 44.5113 59.2933 45.3203 59.2933C46.1293 59.2933 46.7852 58.6375 46.7852 57.8285C46.7852 57.0193 46.1293 56.3636 45.3203 56.3636Z" fill="white"/>
<path d="M45.3203 50.101H45.3047C44.4957 50.101 43.8477 50.7568 43.8477 51.5658C43.8477 52.3748 44.5113 53.0306 45.3203 53.0306C46.1293 53.0306 46.7852 52.3748 46.7852 51.5658C46.7852 50.7566 46.1293 50.101 45.3203 50.101Z" fill="white"/>
<path d="M45.3203 43.8383H45.3047C44.4957 43.8383 43.8477 44.4941 43.8477 45.3031C43.8477 46.1121 44.5113 46.7679 45.3203 46.7679C46.1293 46.7679 46.7852 46.1121 46.7852 45.3031C46.7852 44.4943 46.1293 43.8383 45.3203 43.8383Z" fill="white"/>
<path d="M39.0547 37.5756H39.0391C38.2301 37.5756 37.582 38.2314 37.582 39.0404C37.582 39.8494 38.2457 40.5052 39.0547 40.5052C39.8637 40.5052 40.5195 39.8494 40.5195 39.0404C40.5195 38.2316 39.8637 37.5756 39.0547 37.5756Z" fill="white"/>
<path d="M10.8594 70.4545C10.0504 70.4545 9.39453 71.1103 9.39453 71.9193V73.4849C9.39453 74.2939 10.0504 74.9498 10.8594 74.9498C11.6684 74.9498 12.3242 74.2939 12.3242 73.4849V71.9193C12.3242 71.1103 11.6684 70.4545 10.8594 70.4545Z" fill="white"/>
<path d="M17.1213 70.4545C16.3123 70.4545 15.6564 71.1103 15.6564 71.9193V73.4849C15.6564 74.2939 16.3123 74.9498 17.1213 74.9498C17.9303 74.9498 18.5861 74.2939 18.5861 73.4849V71.9193C18.5861 71.1103 17.9303 70.4545 17.1213 70.4545Z" fill="white"/>
<path d="M23.3828 70.4545C22.5738 70.4545 21.918 71.1103 21.918 71.9193V73.4849C21.918 74.2939 22.5738 74.9498 23.3828 74.9498C24.1918 74.9498 24.8477 74.2939 24.8477 73.4849V71.9193C24.8477 71.1103 24.1918 70.4545 23.3828 70.4545Z" fill="white"/>
<path d="M10.8594 62.6262C10.0504 62.6262 9.39453 63.2821 9.39453 64.0911V65.6567C9.39453 66.4657 10.0504 67.1215 10.8594 67.1215C11.6684 67.1215 12.3242 66.4657 12.3242 65.6567V64.0911C12.3242 63.2821 11.6684 62.6262 10.8594 62.6262Z" fill="white"/>
<path d="M17.1213 62.6262C16.3123 62.6262 15.6564 63.2821 15.6564 64.0911V65.6567C15.6564 66.4657 16.3123 67.1215 17.1213 67.1215C17.9303 67.1215 18.5861 66.4657 18.5861 65.6567V64.0911C18.5861 63.2821 17.9303 62.6262 17.1213 62.6262Z" fill="white"/>
<path d="M23.3828 62.6262C22.5738 62.6262 21.918 63.2821 21.918 64.0911V65.6567C21.918 66.4657 22.5738 67.1215 23.3828 67.1215C24.1918 67.1215 24.8477 66.4657 24.8477 65.6567V64.0911C24.8477 63.2821 24.1918 62.6262 23.3828 62.6262Z" fill="white"/>
<path d="M42.1717 68.8887C41.3627 68.8887 40.7068 69.5445 40.7068 70.3535V71.9191C40.7068 72.7281 41.3627 73.384 42.1717 73.384C42.9807 73.384 43.6365 72.7281 43.6365 71.9191V70.3535C43.6365 69.5443 42.9809 68.8887 42.1717 68.8887Z" fill="white"/>
<path d="M48.4336 68.8887C47.6246 68.8887 46.9688 69.5445 46.9688 70.3535V71.9191C46.9688 72.7281 47.6246 73.384 48.4336 73.384C49.2426 73.384 49.8984 72.7281 49.8984 71.9191V70.3535C49.8984 69.5443 49.2426 68.8887 48.4336 68.8887Z" fill="white"/>
</svg>
