<svg width="100" height="100" viewBox="0 0 100 100" fill="none" xmlns="http://www.w3.org/2000/svg">
<g clip-path="url(#clip0_1_397)">
<path d="M98.5378 63.4589H98.1478V48.2453C98.1478 47.4378 97.4933 46.7831 96.6856 46.7831H88.287V36.2245C88.287 35.417 87.6325 34.7623 86.8248 34.7623H80.2886L74.7463 26.8687C74.4727 26.4788 74.026 26.2467 73.5496 26.2467H66.3066V1.55099C66.3066 0.743441 65.6521 0.0887451 64.8443 0.0887451H40.0907C39.2831 0.0887451 38.6284 0.743441 38.6284 1.55099V10.4826C38.6284 12.3732 41.5529 12.3732 41.5529 10.4826V3.01323H63.3819L63.3355 50.0876H41.5529V18.0301C41.5529 16.1395 38.6284 16.1395 38.6284 18.0301V25.1772H35.8985V17.9607C35.8985 17.1531 35.2438 16.4984 34.4363 16.4984H28.534V7.71796C28.534 5.82737 25.6096 5.82737 25.6096 7.71796V16.4983H19.7072C18.8996 16.4983 18.2449 17.1529 18.2449 17.9605V25.177H14.053C13.2454 25.177 12.5907 25.8317 12.5907 26.6392V46.1615L0.88651 51.1761C0.348794 51.4067 0 51.9355 0 52.5204V60.4451C0 62.3357 2.92449 62.3357 2.92449 60.4451V53.4847L17.1301 47.3982V56.2064H12.2004C10.3098 56.2064 10.3098 59.1309 12.2004 59.1309H17.1303V62.4839H12.2004C10.3098 62.4839 10.3098 65.4084 12.2004 65.4084H17.1303V68.9073H12.8537C12.0462 68.9073 11.3915 69.562 11.3915 70.3695V96.9866H2.92449V67.8457C2.92449 65.9551 0 65.9551 0 67.8457V98.4491C0 99.2566 0.654696 99.9113 1.46224 99.9113H98.5378C99.3455 99.9113 100 99.2566 100 98.4491V64.9212C100 64.1136 99.3455 63.4589 98.5378 63.4589ZM78.7253 66.3834H86.8248H96.6856H97.0755V86.8162H78.7253V66.3834ZM95.2233 49.7076V63.4589H88.287V49.7076H95.2233ZM85.3625 48.2453V63.4589H78.7253V59.829C78.7253 59.0215 78.0708 58.3668 77.2631 58.3668H76.841V51.5498C76.841 50.7423 76.1865 50.0876 75.3787 50.0876H66.3066V37.687H79.5286H85.3625V48.2453ZM72.7896 29.1712L76.7154 34.7625H66.3066V29.1712H72.7896ZM73.9165 53.0121V58.3668H34.244V53.0121H73.9165ZM21.1694 19.4229H32.974V25.1772H21.1694V19.4229ZM20.0546 45.1811C20.0546 44.2125 19.0049 43.4135 18.0164 43.837L15.515 44.9087V28.1017H38.6284V50.0876H32.7818C31.9742 50.0876 31.3195 50.7423 31.3195 51.5498V58.3668H29.9838C29.1763 58.3668 28.5216 59.0215 28.5216 59.829V68.9073H20.0546V45.1811ZM14.316 96.9868V71.8319H28.5216V96.9868H14.316ZM40.2942 96.9868V69.3342H42.5689V96.9868H40.2942ZM52.4862 96.9868V69.3342H54.7609V96.9868H52.4862ZM64.6782 96.9868V69.3342H66.9529V96.9868H64.6782ZM69.8774 96.9868V67.872C69.8774 67.0644 69.2229 66.4097 68.4151 66.4097H63.216C62.4082 66.4097 61.7537 67.0644 61.7537 67.872V96.9868H57.6854V67.872C57.6854 67.0644 57.0309 66.4097 56.2231 66.4097H51.024C50.2164 66.4097 49.5617 67.0644 49.5617 67.872V96.9868H45.4932V67.872C45.4932 67.0644 44.8385 66.4097 44.0309 66.4097H38.8318C38.0242 66.4097 37.3695 67.0644 37.3695 67.872V96.9868H31.4461V61.2913H75.8008V91.3977C75.8008 93.2883 78.7253 93.2883 78.7253 91.3977V89.7405H97.0755V96.9868H69.8774Z" fill="white"/>
<path d="M18.5912 83.1474C19.3987 83.1474 20.0534 82.4927 20.0534 81.6851V78.4651C20.0534 77.6575 19.3987 77.0028 18.5912 77.0028C17.7836 77.0028 17.1289 77.6575 17.1289 78.4651V81.6851C17.1289 82.4927 17.7836 83.1474 18.5912 83.1474Z" fill="white"/>
<path d="M24.2552 83.1474C25.0628 83.1474 25.7175 82.4927 25.7175 81.6851V78.4651C25.7175 77.6575 25.0628 77.0028 24.2552 77.0028C23.4477 77.0028 22.793 77.6575 22.793 78.4651V81.6851C22.793 82.4927 23.4477 83.1474 24.2552 83.1474Z" fill="white"/>
<path d="M20.0534 90.6884V87.4683C20.0534 86.6608 19.3987 86.0061 18.5912 86.0061C17.7836 86.0061 17.1289 86.6608 17.1289 87.4683V90.6884C17.1289 91.496 17.7836 92.1506 18.5912 92.1506C19.3987 92.1506 20.0534 91.496 20.0534 90.6884Z" fill="white"/>
<path d="M24.2552 92.1506C25.0628 92.1506 25.7175 91.496 25.7175 90.6884V87.4683C25.7175 86.6608 25.0628 86.0061 24.2552 86.0061C23.4477 86.0061 22.793 86.6608 22.793 87.4683V90.6884C22.793 91.496 23.4477 92.1506 24.2552 92.1506Z" fill="white"/>
<path d="M71.7943 42.2893C70.9865 42.2893 70.332 42.944 70.332 43.7516V46.9716C70.332 47.7792 70.9865 48.4339 71.7943 48.4339C72.602 48.4339 73.2565 47.7792 73.2565 46.9716V43.7516C73.2565 42.944 72.602 42.2893 71.7943 42.2893Z" fill="white"/>
<path d="M78.3672 43.7516V46.9716C78.3672 47.7792 79.0217 48.4339 79.8294 48.4339C80.6372 48.4339 81.2917 47.7792 81.2917 46.9716V43.7516C81.2917 42.944 80.6372 42.2893 79.8294 42.2893C79.0217 42.2893 78.3672 42.944 78.3672 43.7516Z" fill="white"/>
<path d="M79.8294 51.2926C79.0217 51.2926 78.3672 51.9473 78.3672 52.7548V55.9749C78.3672 56.7825 79.0217 57.4372 79.8294 57.4372C80.6372 57.4372 81.2917 56.7825 81.2917 55.9749V52.7548C81.2917 51.9473 80.6372 51.2926 79.8294 51.2926Z" fill="white"/>
<path d="M47.3204 11.2992H57.6183C59.5089 11.2992 59.5089 8.37476 57.6183 8.37476H47.3204C45.4296 8.37476 45.4296 11.2992 47.3204 11.2992Z" fill="white"/>
<path d="M47.3204 19.4229H57.6183C59.5089 19.4229 59.5089 16.4984 57.6183 16.4984H47.3204C45.4296 16.4984 45.4296 19.4229 47.3204 19.4229Z" fill="white"/>
<path d="M47.3204 27.5466H57.6183C59.5089 27.5466 59.5089 24.6221 57.6183 24.6221H47.3204C45.4296 24.6221 45.4296 27.5466 47.3204 27.5466Z" fill="white"/>
<path d="M47.3204 35.67H57.6183C59.5089 35.67 59.5089 32.7455 57.6183 32.7455H47.3204C45.4296 32.7455 45.4296 35.67 47.3204 35.67Z" fill="white"/>
<path d="M47.3204 43.7936H57.6183C59.5089 43.7936 59.5089 40.8691 57.6183 40.8691H47.3204C45.4296 40.8691 45.4296 43.7936 47.3204 43.7936Z" fill="white"/>
<path d="M92.3188 71.9988H83.4804C81.5899 71.9988 81.5899 74.9233 83.4804 74.9233H92.3188C94.2094 74.9233 94.2094 71.9988 92.3188 71.9988Z" fill="white"/>
<path d="M92.3188 78.559H83.4804C81.5899 78.559 81.5899 81.4834 83.4804 81.4834H92.3188C94.2094 81.4834 94.2094 78.559 92.3188 78.559Z" fill="white"/>
<path d="M7.13128 56.2063C5.24947 56.2063 5.24635 59.1308 7.13128 59.1308C9.01309 59.1308 9.01621 56.2063 7.13128 56.2063Z" fill="white"/>
<path d="M7.13128 65.4085C9.01309 65.4085 9.01621 62.484 7.13128 62.484C5.24947 62.484 5.24635 65.4085 7.13128 65.4085Z" fill="white"/>
<path d="M7.13128 71.6861C9.01309 71.6861 9.01621 68.7616 7.13128 68.7616C5.24947 68.7616 5.24635 71.6861 7.13128 71.6861Z" fill="white"/>
<path d="M7.13128 77.9638C9.01309 77.9638 9.01621 75.0393 7.13128 75.0393C5.24947 75.0393 5.24635 77.9638 7.13128 77.9638Z" fill="white"/>
<path d="M7.13128 84.2413C9.01309 84.2413 9.01621 81.3168 7.13128 81.3168C5.24947 81.3168 5.24635 84.2413 7.13128 84.2413Z" fill="white"/>
<path d="M7.13128 90.519C9.01309 90.519 9.01621 87.5945 7.13128 87.5945C5.24947 87.5945 5.24635 90.519 7.13128 90.519Z" fill="white"/>
<path d="M35.6103 40.9005V33.5577C35.6103 32.7502 34.9556 32.0955 34.148 32.0955H19.9935C19.1859 32.0955 18.5312 32.7502 18.5312 33.5577V40.9005C18.5312 41.7081 19.1859 42.3628 19.9935 42.3628H34.148C34.9556 42.3628 35.6103 41.7081 35.6103 40.9005ZM32.6858 39.4383H21.4557V35.0199H32.6858V39.4383Z" fill="white"/>
</g>
<defs>
<clipPath id="clip0_1_397">
<rect width="100" height="100" fill="white"/>
</clipPath>
</defs>
</svg>
