<svg width="40" height="40" viewBox="0 0 40 40" fill="none" xmlns="http://www.w3.org/2000/svg">
<path d="M21.0008 15.7205L15.5608 12.9376C14.8351 12.5604 13.9437 12.8519 13.5723 13.5777L10.7837 19.0177C10.4122 19.7434 10.698 20.6349 11.4294 21.0118L16.8693 23.7947C17.5951 24.1661 18.4865 23.8804 18.858 23.1547L21.6466 17.7147C22.0179 16.9833 21.7322 16.0919 21.0008 15.7205Z" fill="#239AE3"/>
<path d="M7.82467 8.87481L6.12175 8.00037C5.89317 7.88625 5.61317 7.97191 5.49891 8.20042L4.62461 9.90327C4.51035 10.1318 4.59601 10.4119 4.82467 10.526L6.52751 11.3949C6.75603 11.5149 7.03602 11.4234 7.15035 11.1948L8.02458 9.492C8.13891 9.26906 8.05318 8.98893 7.82467 8.87481Z" fill="#239AE3"/>
<path d="M32.5119 20.3776V7.84607C32.5119 5.77185 30.8262 4.08631 28.7461 4.08631H25.4719C24.9919 2.16583 23.0489 0.959911 21.089 1.38904L4.689 4.98893C2.689 5.42894 1.42044 7.41192 1.85473 9.41192L5.77473 27.2861H3.47185C2.5633 27.2861 1.82621 28.0232 1.82621 28.9376V36.9262C1.82621 37.8346 2.5633 38.5718 3.47185 38.5718H11.4604C12.3748 38.5718 13.1119 37.8346 13.1119 36.9262V35.6404L13.809 35.4861H21.5348C23.2833 37.4577 25.8376 38.6976 28.6719 38.6976C33.9462 38.6976 38.2319 34.4061 38.2319 29.1376C38.2319 25.2292 35.8775 21.8575 32.5119 20.3776ZM4.99187 37.0062C4.26043 37.0062 3.66047 36.4061 3.66047 35.6748C3.66047 34.9376 4.26043 34.3433 4.99187 34.3433C5.72897 34.3433 6.329 34.9376 6.329 35.6748C6.329 36.4061 5.72897 37.0062 4.99187 37.0062ZM4.99187 31.9147C4.26043 31.9147 3.66047 31.3148 3.66047 30.5832C3.66047 29.8461 4.26043 29.252 4.99187 29.252C5.72897 29.252 6.329 29.8461 6.329 30.5832C6.329 31.3148 5.72897 31.9147 4.99187 31.9147ZM9.94046 37.0062C9.2033 37.0062 8.60899 36.4061 8.60899 35.6748C8.60899 34.939 9.19981 34.3433 9.94046 34.3433C10.6719 34.3433 11.2719 34.9284 11.2719 35.6748C11.2719 36.403 10.6817 37.0062 9.94046 37.0062ZM9.94046 31.9147C9.2033 31.9147 8.60899 31.3148 8.60899 30.5832C8.60899 29.8461 9.2033 29.252 9.94046 29.252C10.6776 29.252 11.2719 29.8461 11.2719 30.5832C11.2719 31.3148 10.6776 31.9147 9.94046 31.9147ZM13.1119 34.4691V28.9376C13.1119 28.0232 12.3748 27.2861 11.4604 27.2861C11.2673 27.2861 6.68628 27.2861 6.94618 27.2861L2.97471 9.16611C2.67191 7.78329 3.54614 6.40606 4.93474 6.10333C22.7695 2.19568 11.9077 4.57515 21.3347 2.50902C22.6182 2.22916 23.834 2.93731 24.2776 4.08631C24.4246 4.4454 24.1953 3.60528 27.7233 19.6234C22.8947 20.0975 19.1062 24.1834 19.1062 29.1376C19.1062 30.5032 19.3976 31.8062 19.9176 32.9775L13.1119 34.4691ZM28.6719 37.5548C24.0224 37.5548 20.2491 33.7719 20.2491 29.1376C20.2491 24.5241 23.9989 20.7147 28.6719 20.7147C33.292 20.7147 37.089 24.4797 37.089 29.1376C37.089 33.7777 33.3118 37.5548 28.6719 37.5548Z" fill="white"/>
<path d="M28.6655 22.4861C25.0006 22.4861 22.0197 25.4666 22.0197 29.1376C22.0197 32.7785 24.9593 35.7833 28.6655 35.7833C32.3397 35.7833 35.3168 32.8118 35.3168 29.1376C35.3168 25.6421 32.508 22.4861 28.6655 22.4861ZM24.4483 29.7777H24.4425C24.0883 29.7777 23.8026 29.4861 23.8026 29.1318C23.8026 28.7777 24.0883 28.4976 24.4425 28.4976H24.4483C24.8026 28.4976 25.0883 28.7777 25.0883 29.1318C25.0883 29.4861 24.8026 29.7777 24.4483 29.7777ZM28.9626 32.2975V32.9147C28.9626 33.0676 28.8512 33.1661 28.7454 33.1661C28.6738 33.2138 28.4369 33.1443 28.4369 32.9147V32.2975C27.8749 32.2289 27.3336 32.1815 26.6826 31.8918C26.4428 31.7925 26.3595 31.4931 26.5398 31.2805C26.6553 31.1552 26.835 31.1496 26.9626 31.2063C27.3785 31.3932 27.8874 31.5288 28.4369 31.5548C28.4369 31.1477 28.4369 30.3134 28.4369 29.5604C27.4386 29.3003 26.5055 28.9275 26.5055 27.8634C26.5055 26.809 27.3551 26.182 28.4369 26.0919V25.4861C28.4369 25.3519 28.5314 25.2174 28.694 25.2174C28.8601 25.2174 28.9626 25.3424 28.9626 25.4861V26.0863C29.5255 26.0863 30.0359 26.223 30.4711 26.372C30.6369 26.4289 30.7169 26.5433 30.7169 26.7147C30.7169 26.9019 30.5742 27.0804 30.3683 27.0804C30.2504 27.0804 29.8836 26.8589 28.9626 26.8118V28.8748C30.0713 29.1203 30.9683 29.4864 30.9683 30.6176C30.9683 31.6706 30.0216 32.237 28.9626 32.2975ZM32.894 29.7777H32.8883C32.5321 29.7777 32.2483 29.4853 32.2483 29.1318C32.2483 28.7819 32.5289 28.4976 32.8883 28.4976H32.894C33.2483 28.4976 33.5341 28.7777 33.5341 29.1318C33.5341 29.4861 33.2483 29.7777 32.894 29.7777Z" fill="#239AE3"/>
<path d="M28.9609 29.6918C28.9609 30.1039 28.9609 31.0919 28.9609 31.5548C29.6376 31.511 30.1837 31.2532 30.1837 30.5662C30.1837 30.0258 29.5088 29.8332 28.9609 29.6918Z" fill="#239AE3"/>
<path d="M27.293 27.8006C27.293 28.3913 27.8498 28.5922 28.4358 28.7434V26.8405C27.8433 26.9158 27.293 27.1999 27.293 27.8006Z" fill="#239AE3"/>
</svg>
