<svg width="225" height="40" viewBox="0 0 225 40" fill="none" xmlns="http://www.w3.org/2000/svg">
<path d="M21.0008 15.7205L15.5608 12.9376C14.8351 12.5604 13.9437 12.8519 13.5723 13.5777L10.7837 19.0177C10.4122 19.7434 10.698 20.6349 11.4294 21.0118L16.8693 23.7947C17.5951 24.1661 18.4865 23.8804 18.858 23.1547L21.6466 17.7147C22.0179 16.9833 21.7322 16.0919 21.0008 15.7205Z" fill="#239AE3"/>
<path d="M7.82467 8.87481L6.12175 8.00036C5.89317 7.88624 5.61317 7.9719 5.49891 8.20042L4.62461 9.90327C4.51035 10.1318 4.59601 10.4119 4.82467 10.526L6.52751 11.3949C6.75603 11.5149 7.03602 11.4234 7.15035 11.1948L8.02458 9.49199C8.13891 9.26906 8.05318 8.98892 7.82467 8.87481Z" fill="#239AE3"/>
<path d="M32.5119 20.3776V7.84608C32.5119 5.77186 30.8262 4.08631 28.7461 4.08631H25.4719C24.9919 2.16583 23.0489 0.959915 21.089 1.38904L4.689 4.98893C2.689 5.42894 1.42044 7.41192 1.85473 9.41192L5.77473 27.2861H3.47185C2.5633 27.2861 1.82621 28.0233 1.82621 28.9376V36.9262C1.82621 37.8346 2.5633 38.5718 3.47185 38.5718H11.4604C12.3748 38.5718 13.1119 37.8346 13.1119 36.9262V35.6404L13.809 35.4861H21.5348C23.2833 37.4577 25.8376 38.6976 28.6719 38.6976C33.9462 38.6976 38.2319 34.4061 38.2319 29.1376C38.2319 25.2292 35.8775 21.8575 32.5119 20.3776ZM4.99187 37.0062C4.26043 37.0062 3.66047 36.4061 3.66047 35.6748C3.66047 34.9376 4.26043 34.3433 4.99187 34.3433C5.72897 34.3433 6.329 34.9376 6.329 35.6748C6.329 36.4061 5.72897 37.0062 4.99187 37.0062ZM4.99187 31.9147C4.26043 31.9147 3.66047 31.3148 3.66047 30.5832C3.66047 29.8461 4.26043 29.252 4.99187 29.252C5.72897 29.252 6.329 29.8461 6.329 30.5832C6.329 31.3148 5.72897 31.9147 4.99187 31.9147ZM9.94046 37.0062C9.2033 37.0062 8.60899 36.4061 8.60899 35.6748C8.60899 34.939 9.19981 34.3433 9.94046 34.3433C10.6719 34.3433 11.2719 34.9284 11.2719 35.6748C11.2719 36.403 10.6817 37.0062 9.94046 37.0062ZM9.94046 31.9147C9.2033 31.9147 8.60899 31.3148 8.60899 30.5832C8.60899 29.8461 9.2033 29.252 9.94046 29.252C10.6776 29.252 11.2719 29.8461 11.2719 30.5832C11.2719 31.3148 10.6776 31.9147 9.94046 31.9147ZM13.1119 34.4691V28.9376C13.1119 28.0233 12.3748 27.2861 11.4604 27.2861C11.2673 27.2861 6.68628 27.2861 6.94618 27.2861L2.97471 9.16611C2.67191 7.7833 3.54614 6.40606 4.93474 6.10333C22.7695 2.19568 11.9077 4.57515 21.3347 2.50902C22.6182 2.22917 23.834 2.93731 24.2776 4.08631C24.4246 4.44541 24.1953 3.60528 27.7233 19.6234C22.8947 20.0975 19.1062 24.1834 19.1062 29.1376C19.1062 30.5032 19.3976 31.8062 19.9176 32.9775L13.1119 34.4691ZM28.6719 37.5548C24.0224 37.5548 20.2491 33.7719 20.2491 29.1376C20.2491 24.5241 23.9989 20.7147 28.6719 20.7147C33.292 20.7147 37.089 24.4797 37.089 29.1376C37.089 33.7777 33.3118 37.5548 28.6719 37.5548Z" fill="white"/>
<path d="M28.6655 22.4861C25.0006 22.4861 22.0197 25.4666 22.0197 29.1376C22.0197 32.7785 24.9593 35.7833 28.6655 35.7833C32.3397 35.7833 35.3168 32.8118 35.3168 29.1376C35.3168 25.6421 32.508 22.4861 28.6655 22.4861ZM24.4483 29.7777H24.4425C24.0883 29.7777 23.8026 29.4861 23.8026 29.1318C23.8026 28.7777 24.0883 28.4976 24.4425 28.4976H24.4483C24.8026 28.4976 25.0883 28.7777 25.0883 29.1318C25.0883 29.4861 24.8026 29.7777 24.4483 29.7777ZM28.9626 32.2975V32.9147C28.9626 33.0676 28.8512 33.1661 28.7454 33.1661C28.6738 33.2138 28.4369 33.1443 28.4369 32.9147V32.2975C27.8749 32.2289 27.3336 32.1815 26.6826 31.8918C26.4428 31.7925 26.3595 31.4931 26.5398 31.2805C26.6553 31.1552 26.835 31.1496 26.9626 31.2063C27.3785 31.3932 27.8874 31.5288 28.4369 31.5548C28.4369 31.1477 28.4369 30.3134 28.4369 29.5604C27.4386 29.3003 26.5055 28.9275 26.5055 27.8634C26.5055 26.809 27.3551 26.182 28.4369 26.0919V25.4861C28.4369 25.3519 28.5314 25.2174 28.694 25.2174C28.8601 25.2174 28.9626 25.3424 28.9626 25.4861V26.0863C29.5255 26.0863 30.0359 26.223 30.4711 26.372C30.6369 26.4289 30.7169 26.5433 30.7169 26.7147C30.7169 26.9019 30.5742 27.0804 30.3683 27.0804C30.2504 27.0804 29.8836 26.8589 28.9626 26.8118V28.8748C30.0713 29.1203 30.9683 29.4864 30.9683 30.6176C30.9683 31.6706 30.0216 32.237 28.9626 32.2975ZM32.894 29.7777H32.8883C32.5321 29.7777 32.2483 29.4853 32.2483 29.1318C32.2483 28.7819 32.5289 28.4976 32.8883 28.4976H32.894C33.2483 28.4976 33.5341 28.7777 33.5341 29.1318C33.5341 29.4861 33.2483 29.7777 32.894 29.7777Z" fill="#239AE3"/>
<path d="M28.9609 29.6918C28.9609 30.1039 28.9609 31.0919 28.9609 31.5548C29.6376 31.511 30.1837 31.2532 30.1837 30.5662C30.1837 30.0258 29.5088 29.8332 28.9609 29.6918Z" fill="#239AE3"/>
<path d="M27.293 27.8006C27.293 28.3913 27.8498 28.5922 28.4358 28.7434V26.8405C27.8433 26.9158 27.293 27.1999 27.293 27.8006Z" fill="#239AE3"/>
<g filter="url(#filter0_d_101_13)">
<path d="M59 28.12C57.768 28.12 56.656 27.88 55.664 27.4C54.672 26.904 53.816 26.248 53.096 25.432C52.376 24.616 51.816 23.696 51.416 22.672C51.032 21.632 50.84 20.568 50.84 19.48C50.84 18.344 51.048 17.264 51.464 16.24C51.88 15.2 52.456 14.28 53.192 13.48C53.928 12.664 54.792 12.024 55.784 11.56C56.792 11.08 57.88 10.84 59.048 10.84C60.264 10.84 61.368 11.088 62.36 11.584C63.368 12.08 64.224 12.744 64.928 13.576C65.648 14.408 66.2 15.336 66.584 16.36C66.984 17.384 67.184 18.432 67.184 19.504C67.184 20.64 66.976 21.728 66.56 22.768C66.16 23.792 65.592 24.712 64.856 25.528C64.12 26.328 63.248 26.96 62.24 27.424C61.248 27.888 60.168 28.12 59 28.12ZM59.024 25.696C59.888 25.696 60.656 25.52 61.328 25.168C62 24.816 62.56 24.344 63.008 23.752C63.472 23.144 63.824 22.472 64.064 21.736C64.304 20.984 64.424 20.232 64.424 19.48C64.424 18.68 64.296 17.904 64.04 17.152C63.8 16.4 63.44 15.736 62.96 15.16C62.48 14.584 61.904 14.128 61.232 13.792C60.576 13.44 59.84 13.264 59.024 13.264C58.16 13.264 57.392 13.44 56.72 13.792C56.048 14.144 55.48 14.624 55.016 15.232C54.552 15.824 54.192 16.488 53.936 17.224C53.696 17.96 53.576 18.712 53.576 19.48C53.576 20.28 53.704 21.056 53.96 21.808C54.216 22.56 54.576 23.224 55.04 23.8C55.52 24.376 56.096 24.84 56.768 25.192C57.44 25.528 58.192 25.696 59.024 25.696ZM59.36 22.072H61.952L67.136 28H64.544L59.36 22.072ZM77.024 28.12C75.664 28.12 74.512 27.888 73.568 27.424C72.64 26.96 71.888 26.328 71.312 25.528C70.752 24.728 70.336 23.816 70.064 22.792C69.808 21.768 69.68 20.704 69.68 19.6V10.96H72.368V19.6C72.368 20.384 72.448 21.144 72.608 21.88C72.768 22.6 73.024 23.248 73.376 23.824C73.728 24.4 74.2 24.856 74.792 25.192C75.4 25.528 76.144 25.696 77.024 25.696C77.92 25.696 78.664 25.528 79.256 25.192C79.864 24.84 80.336 24.376 80.672 23.8C81.024 23.208 81.28 22.552 81.44 21.832C81.6 21.112 81.68 20.368 81.68 19.6V10.96H84.392V19.6C84.392 20.768 84.248 21.872 83.96 22.912C83.688 23.936 83.256 24.84 82.664 25.624C82.088 26.392 81.336 27 80.408 27.448C79.48 27.896 78.352 28.12 77.024 28.12ZM99.6549 25.624V28H87.9669V10.96H99.4389V13.336H90.6549V18.184H98.2629V20.416H90.6549V25.624H99.6549ZM112.508 14.968C112.348 14.792 112.116 14.608 111.812 14.416C111.508 14.208 111.148 14.016 110.732 13.84C110.316 13.664 109.868 13.52 109.388 13.408C108.908 13.296 108.412 13.24 107.9 13.24C106.78 13.24 105.948 13.448 105.404 13.864C104.86 14.28 104.588 14.856 104.588 15.592C104.588 16.136 104.74 16.568 105.044 16.888C105.348 17.192 105.812 17.448 106.436 17.656C107.06 17.864 107.844 18.088 108.788 18.328C109.94 18.6 110.94 18.928 111.788 19.312C112.636 19.68 113.284 20.176 113.732 20.8C114.18 21.424 114.404 22.248 114.404 23.272C114.404 24.136 114.244 24.88 113.924 25.504C113.604 26.128 113.156 26.64 112.58 27.04C112.004 27.424 111.34 27.712 110.588 27.904C109.836 28.08 109.028 28.168 108.164 28.168C107.316 28.168 106.468 28.08 105.62 27.904C104.788 27.728 103.988 27.472 103.22 27.136C102.468 26.784 101.772 26.36 101.132 25.864L102.356 23.56C102.564 23.768 102.86 24 103.244 24.256C103.644 24.496 104.1 24.728 104.612 24.952C105.14 25.176 105.708 25.368 106.316 25.528C106.94 25.672 107.572 25.744 108.212 25.744C109.284 25.744 110.1 25.56 110.66 25.192C111.236 24.808 111.524 24.264 111.524 23.56C111.524 22.984 111.34 22.528 110.972 22.192C110.604 21.84 110.068 21.544 109.364 21.304C108.66 21.064 107.82 20.824 106.844 20.584C105.724 20.28 104.788 19.952 104.036 19.6C103.284 19.232 102.716 18.768 102.332 18.208C101.964 17.632 101.78 16.904 101.78 16.024C101.78 14.904 102.052 13.96 102.596 13.192C103.14 12.408 103.876 11.824 104.804 11.44C105.748 11.04 106.804 10.84 107.972 10.84C108.74 10.84 109.468 10.928 110.156 11.104C110.844 11.264 111.484 11.488 112.076 11.776C112.684 12.064 113.236 12.392 113.732 12.76L112.508 14.968ZM129.604 13.336H123.94V28H121.228V13.336H115.54V10.96H129.604V13.336Z" fill="#239AE3"/>
</g>
<path d="M130.84 19.36C130.84 18.32 131.024 17.304 131.392 16.312C131.76 15.304 132.296 14.392 133 13.576C133.72 12.744 134.592 12.088 135.616 11.608C136.64 11.112 137.8 10.864 139.096 10.864C140.632 10.864 141.96 11.216 143.08 11.92C144.2 12.608 145.032 13.496 145.576 14.584L143.464 16C143.144 15.312 142.736 14.768 142.24 14.368C141.76 13.968 141.232 13.688 140.656 13.528C140.096 13.368 139.544 13.288 139 13.288C138.104 13.288 137.32 13.472 136.648 13.84C135.976 14.192 135.408 14.664 134.944 15.256C134.496 15.848 134.152 16.512 133.912 17.248C133.688 17.984 133.576 18.72 133.576 19.456C133.576 20.272 133.712 21.064 133.984 21.832C134.256 22.584 134.632 23.256 135.112 23.848C135.608 24.424 136.192 24.88 136.864 25.216C137.536 25.552 138.272 25.72 139.072 25.72C139.616 25.72 140.184 25.624 140.776 25.432C141.368 25.24 141.912 24.944 142.408 24.544C142.92 24.128 143.32 23.584 143.608 22.912L145.84 24.184C145.488 25.032 144.936 25.752 144.184 26.344C143.448 26.936 142.616 27.384 141.688 27.688C140.776 27.992 139.872 28.144 138.976 28.144C137.776 28.144 136.68 27.896 135.688 27.4C134.696 26.888 133.84 26.216 133.12 25.384C132.4 24.536 131.84 23.592 131.44 22.552C131.04 21.496 130.84 20.432 130.84 19.36ZM153.012 10.96H155.556L162.18 28H159.348L157.548 23.368H150.972L149.196 28H146.34L153.012 10.96ZM157.02 21.376L154.284 13.912L151.452 21.376H157.02ZM174.133 14.968C173.973 14.792 173.741 14.608 173.437 14.416C173.133 14.208 172.773 14.016 172.357 13.84C171.941 13.664 171.493 13.52 171.013 13.408C170.533 13.296 170.037 13.24 169.525 13.24C168.405 13.24 167.573 13.448 167.029 13.864C166.485 14.28 166.213 14.856 166.213 15.592C166.213 16.136 166.365 16.568 166.669 16.888C166.973 17.192 167.437 17.448 168.061 17.656C168.685 17.864 169.469 18.088 170.413 18.328C171.565 18.6 172.565 18.928 173.413 19.312C174.261 19.68 174.909 20.176 175.357 20.8C175.805 21.424 176.029 22.248 176.029 23.272C176.029 24.136 175.869 24.88 175.549 25.504C175.229 26.128 174.781 26.64 174.205 27.04C173.629 27.424 172.965 27.712 172.213 27.904C171.461 28.08 170.653 28.168 169.789 28.168C168.941 28.168 168.093 28.08 167.245 27.904C166.413 27.728 165.613 27.472 164.845 27.136C164.093 26.784 163.397 26.36 162.757 25.864L163.981 23.56C164.189 23.768 164.485 24 164.869 24.256C165.269 24.496 165.725 24.728 166.237 24.952C166.765 25.176 167.333 25.368 167.941 25.528C168.565 25.672 169.197 25.744 169.837 25.744C170.909 25.744 171.725 25.56 172.285 25.192C172.861 24.808 173.149 24.264 173.149 23.56C173.149 22.984 172.965 22.528 172.597 22.192C172.229 21.84 171.693 21.544 170.989 21.304C170.285 21.064 169.445 20.824 168.469 20.584C167.349 20.28 166.413 19.952 165.661 19.6C164.909 19.232 164.341 18.768 163.957 18.208C163.589 17.632 163.405 16.904 163.405 16.024C163.405 14.904 163.677 13.96 164.221 13.192C164.765 12.408 165.501 11.824 166.429 11.44C167.373 11.04 168.429 10.84 169.597 10.84C170.365 10.84 171.093 10.928 171.781 11.104C172.469 11.264 173.109 11.488 173.701 11.776C174.309 12.064 174.861 12.392 175.357 12.76L174.133 14.968ZM178.725 28V10.96H181.413V28H178.725ZM187.952 15.952V28H185.264V10.96H187.472L197.12 23.272V10.984H199.832V28H197.48L187.952 15.952ZM210.742 28.12C209.51 28.12 208.398 27.88 207.406 27.4C206.414 26.92 205.558 26.272 204.838 25.456C204.118 24.624 203.558 23.696 203.158 22.672C202.774 21.632 202.582 20.568 202.582 19.48C202.582 18.344 202.79 17.264 203.206 16.24C203.622 15.2 204.198 14.28 204.934 13.48C205.67 12.664 206.534 12.024 207.526 11.56C208.534 11.08 209.622 10.84 210.79 10.84C212.006 10.84 213.11 11.088 214.102 11.584C215.11 12.08 215.966 12.744 216.67 13.576C217.39 14.408 217.942 15.336 218.326 16.36C218.726 17.384 218.926 18.432 218.926 19.504C218.926 20.64 218.718 21.728 218.302 22.768C217.902 23.792 217.334 24.712 216.598 25.528C215.862 26.328 214.99 26.96 213.982 27.424C212.99 27.888 211.91 28.12 210.742 28.12ZM205.318 19.48C205.318 20.28 205.446 21.056 205.702 21.808C205.958 22.56 206.318 23.232 206.782 23.824C207.262 24.4 207.838 24.856 208.51 25.192C209.182 25.528 209.934 25.696 210.766 25.696C211.63 25.696 212.398 25.52 213.07 25.168C213.742 24.816 214.302 24.344 214.75 23.752C215.214 23.144 215.566 22.472 215.806 21.736C216.046 20.984 216.166 20.232 216.166 19.48C216.166 18.68 216.038 17.912 215.782 17.176C215.542 16.424 215.182 15.76 214.702 15.184C214.222 14.592 213.646 14.128 212.974 13.792C212.318 13.456 211.582 13.288 210.766 13.288C209.902 13.288 209.134 13.464 208.462 13.816C207.79 14.168 207.222 14.64 206.758 15.232C206.294 15.824 205.934 16.488 205.678 17.224C205.438 17.96 205.318 18.712 205.318 19.48ZM221.253 28V24.928H223.437V28H221.253Z" fill="white"/>
<defs>
<filter id="filter0_d_101_13" x="40.84" y="0.839996" width="98.7637" height="37.328" filterUnits="userSpaceOnUse" color-interpolation-filters="sRGB">
<feFlood flood-opacity="0" result="BackgroundImageFix"/>
<feColorMatrix in="SourceAlpha" type="matrix" values="0 0 0 0 0 0 0 0 0 0 0 0 0 0 0 0 0 0 127 0" result="hardAlpha"/>
<feOffset/>
<feGaussianBlur stdDeviation="5"/>
<feComposite in2="hardAlpha" operator="out"/>
<feColorMatrix type="matrix" values="0 0 0 0 0.207843 0 0 0 0 0.376471 0 0 0 0 0.964706 0 0 0 0.25 0"/>
<feBlend mode="normal" in2="BackgroundImageFix" result="effect1_dropShadow_101_13"/>
<feBlend mode="normal" in="SourceGraphic" in2="effect1_dropShadow_101_13" result="shape"/>
</filter>
</defs>
</svg>
