<svg width="30" height="30" viewBox="0 0 30 30" fill="none" xmlns="http://www.w3.org/2000/svg">
<path d="M15 2.5C11.5531 2.5 8.75 5.30375 8.75 8.75C8.75 12.1962 11.5538 15 15 15C18.4462 15 21.25 12.1962 21.25 8.75C21.25 5.30375 18.4469 2.5 15 2.5ZM21.875 15C18.0781 15 15 18.0781 15 21.875C15 25.6719 18.0781 28.75 21.875 28.75C25.6719 28.75 28.75 25.6719 28.75 21.875C28.75 18.0781 25.6719 15 21.875 15ZM21.875 16.875C22.2206 16.875 22.5 17.155 22.5 17.5V18.1348C23.465 18.1835 24.0805 18.7344 24.2749 19.0356C24.4624 19.3256 24.3794 19.713 24.0894 19.8999C23.7987 20.0855 23.4113 20.0044 23.2251 19.7144C23.2232 19.7144 22.9538 19.375 22.3669 19.375H21.4062C20.8894 19.375 20.4688 19.7956 20.4688 20.3125C20.4688 20.8294 20.8894 21.25 21.4062 21.25H22.5C23.7062 21.25 24.6875 22.2313 24.6875 23.4375C24.6875 24.6437 23.7062 25.625 22.5 25.625V26.25C22.5 26.595 22.2206 26.875 21.875 26.875C21.5294 26.875 21.25 26.595 21.25 26.25V25.6226C20.4725 25.6169 19.7612 25.3325 19.2456 24.8169C19.0012 24.5725 19.0012 24.1787 19.2456 23.9343C19.49 23.69 19.885 23.69 20.1294 23.9343C20.3306 24.135 20.6926 24.375 21.2732 24.375H22.5C23.0169 24.375 23.4375 23.9544 23.4375 23.4375C23.4375 22.9206 23.0169 22.5 22.5 22.5H21.4062C20.2 22.5 19.2188 21.5187 19.2188 20.3125C19.2188 19.16 20.1181 18.2227 21.25 18.1409V17.5C21.25 17.155 21.5294 16.875 21.875 16.875ZM7.48657 17.5C6.11532 17.5 5 18.6153 5 19.9866V20.9375C5 23.0075 6.1779 24.7966 8.31665 25.9766C10.096 26.9591 12.47 27.5 15 27.5C15.33 27.5 15.6612 27.4876 15.9924 27.4683C14.6062 26.0114 13.75 24.045 13.75 21.875C13.75 20.2625 14.2254 18.7638 15.0354 17.5H7.48657Z" fill="white"/>
</svg>
