<svg width="30" height="30" viewBox="0 0 30 30" fill="none" xmlns="http://www.w3.org/2000/svg">
<path d="M15 2.5C12.2496 2.5 10 4.74963 10 7.5V10H7.8125C6.26188 10 5 11.2619 5 12.8125V24.6875C5 26.2381 6.26188 27.5 7.8125 27.5H22.1875C23.7381 27.5 25 26.2381 25 24.6875V12.8125C25 11.2619 23.7381 10 22.1875 10H20V7.5C20 4.74963 17.7504 2.5 15 2.5ZM15 4.375C16.7371 4.375 18.125 5.76287 18.125 7.5V10H11.875V7.5C11.875 5.76287 13.2629 4.375 15 4.375ZM10.625 17.5C11.3156 17.5 11.875 18.0594 11.875 18.75C11.875 19.4406 11.3156 20 10.625 20C9.93437 20 9.375 19.4406 9.375 18.75C9.375 18.0594 9.93437 17.5 10.625 17.5ZM15 17.5C15.6906 17.5 16.25 18.0594 16.25 18.75C16.25 19.4406 15.6906 20 15 20C14.3094 20 13.75 19.4406 13.75 18.75C13.75 18.0594 14.3094 17.5 15 17.5ZM19.375 17.5C20.0656 17.5 20.625 18.0594 20.625 18.75C20.625 19.4406 20.0656 20 19.375 20C18.6844 20 18.125 19.4406 18.125 18.75C18.125 18.0594 18.6844 17.5 19.375 17.5Z" fill="#239AE3"/>
</svg>
