<svg width="50" height="50" viewBox="0 0 50 50" fill="none" xmlns="http://www.w3.org/2000/svg">
<path d="M6.07381 24.6002C19.1655 18.8408 36.1071 11.8189 38.4457 10.847C44.5801 8.30328 46.4624 8.79078 45.5238 14.4241C44.8499 18.4731 42.9051 31.8783 41.3551 40.222C40.4353 45.1699 38.3717 45.7564 35.1269 43.6158C33.5665 42.5856 25.6905 37.3772 23.9811 36.1543C22.4207 35.0397 20.2686 33.6991 22.9676 31.0585C23.928 30.1179 30.2238 24.1064 35.129 19.4272C35.7717 18.8127 34.9644 17.8033 34.2228 18.296C27.6113 22.6804 18.4446 28.7658 17.278 29.5585C15.5155 30.7554 13.8228 31.3043 10.7842 30.4314C8.48839 29.772 6.24568 28.9856 5.37277 28.6856C2.01131 27.5314 2.80922 26.0366 6.07381 24.6002Z" fill="white"/>
</svg>
