<svg width="20" height="20" viewBox="0 0 20 20" fill="none" xmlns="http://www.w3.org/2000/svg">
<path d="M2.42796 9.84C7.66463 7.53625 14.4413 4.7275 15.3767 4.33875C17.8305 3.32125 18.5834 3.51625 18.208 5.76958C17.9384 7.38917 17.1605 12.7512 16.5405 16.0887C16.1725 18.0679 15.3471 18.3025 14.0492 17.4462C13.425 17.0342 10.2746 14.9508 9.59088 14.4617C8.96671 14.0158 8.10588 13.4796 9.18546 12.4233C9.56963 12.0471 12.088 9.6425 14.05 7.77083C14.3071 7.525 13.9842 7.12125 13.6875 7.31833C11.043 9.07208 7.37629 11.5062 6.90963 11.8233C6.20463 12.3021 5.52754 12.5217 4.31213 12.1725C3.39379 11.9088 2.49671 11.5942 2.14754 11.4742C0.802961 11.0125 1.12213 10.4146 2.42796 9.84Z" fill="white"/>
</svg>
