<svg width="607" height="166" viewBox="0 0 607 166" fill="none" xmlns="http://www.w3.org/2000/svg">
<path opacity="0.25" d="M14.624 66.984L14.2041 67.8916L14.2092 67.8939L14.624 66.984ZM4.544 58.248L3.69277 58.7729L3.69918 58.7831L4.544 58.248ZM0.608 43.944L-0.391703 43.9684L-0.391452 43.9786L-0.390992 43.9889L0.608 43.944ZM0.608 26.856L-0.390945 26.8101L-0.391466 26.8214L-0.39173 26.8327L0.608 26.856ZM4.64 12.744L5.48484 13.2791L5.48878 13.2727L4.64 12.744ZM14.816 3.912L15.2308 4.82197L15.2418 4.81682L14.816 3.912ZM41.984 2.472L41.6935 3.42888L41.7014 3.43127L41.7093 3.43352L41.984 2.472ZM51.392 7.08L50.786 7.87543L50.792 7.88005L50.7981 7.88457L51.392 7.08ZM57.632 14.376L56.7416 14.8311L56.7477 14.8431L56.7541 14.8549L57.632 14.376ZM60.032 23.976L59.0322 23.9939L59.033 24.0403L59.0381 24.0864L60.032 23.976ZM59.456 25.416L58.8052 24.6567L58.7761 24.6817L58.7489 24.7089L59.456 25.416ZM43.136 25.512L42.4852 26.2713L42.5188 26.3L42.5548 26.3257L43.136 25.512ZM41.984 23.496L41.0172 23.7514L41.0253 23.7821L41.0353 23.8122L41.984 23.496ZM37.568 16.584L37.0259 17.4243L37.0415 17.4344L37.0575 17.4439L37.568 16.584ZM21.824 17.64L22.5079 18.3695L22.5139 18.3639L22.5198 18.3582L21.824 17.64ZM18.464 27.336L17.4649 27.2938L17.4647 27.2994L18.464 27.336ZM18.464 43.464L17.4646 43.4989L17.4649 43.5062L18.464 43.464ZM21.824 53.256L21.1282 53.9742L21.1341 53.9799L21.1401 53.9855L21.824 53.256ZM37.664 54.216L37.134 53.368L37.134 53.368L37.664 54.216ZM41.984 47.304L41.0178 47.0463L41.0158 47.0539L41.0139 47.0615L41.984 47.304ZM43.04 45.384L43.6212 46.1977L43.6307 46.191L43.64 46.184L43.04 45.384ZM59.456 45.384L58.7489 46.0911L58.7761 46.1183L58.8052 46.1433L59.456 45.384ZM60.032 46.824L59.0381 46.7136L59.033 46.7597L59.0322 46.8061L60.032 46.824ZM57.632 56.52L56.7496 56.0494L56.7458 56.0567L57.632 56.52ZM51.392 63.816L51.9859 64.6206L51.992 64.616L51.998 64.6114L51.392 63.816ZM41.984 68.424L42.2587 69.3855L42.2666 69.3833L42.2745 69.3809L41.984 68.424ZM30.272 68.96C24.2976 68.96 19.2303 67.9849 15.0388 66.0741L14.2092 67.8939C18.7217 69.9511 24.0864 70.96 30.272 70.96V68.96ZM15.0439 66.0764C10.9232 64.1698 7.71374 61.3839 5.38882 57.7129L3.69918 58.7831C6.23826 62.7921 9.74884 65.8302 14.2041 67.8916L15.0439 66.0764ZM5.39517 57.7231C3.13705 54.0613 1.85733 49.4691 1.60699 43.8991L-0.390992 43.9889C-0.129331 49.8109 1.21495 54.7547 3.69283 58.7729L5.39517 57.7231ZM1.6077 43.9196C1.54393 41.3048 1.512 38.497 1.512 35.496H-0.488C-0.488 38.511 -0.455927 41.3352 -0.391703 43.9684L1.6077 43.9196ZM1.512 35.496C1.512 32.495 1.54393 29.6228 1.60773 26.8792L-0.39173 26.8327C-0.455925 29.5932 -0.488 32.4809 -0.488 35.496H1.512ZM1.60694 26.9019C1.85675 21.4686 3.16472 16.9424 5.48482 13.279L3.79518 12.2089C1.25128 16.2256 -0.128754 21.1074 -0.390945 26.8101L1.60694 26.9019ZM5.48878 13.2727C7.81247 9.54262 11.0503 6.72774 15.2308 4.8219L14.4012 3.00209C9.87773 5.06425 6.33154 8.13738 3.79122 12.2152L5.48878 13.2727ZM15.2418 4.81682C19.4328 2.84456 24.4331 1.84 30.272 1.84V-0.160004C24.2069 -0.160004 18.9032 0.883431 14.3902 3.00718L15.2418 4.81682ZM30.272 1.84C34.41 1.84 38.2148 2.37285 41.6935 3.42888L42.2745 1.51512C38.5852 0.395142 34.582 -0.160004 30.272 -0.160004V1.84ZM41.7093 3.43352C45.1858 4.42681 48.2068 5.91036 50.786 7.87543L51.998 6.28456C49.2012 4.15363 45.9502 2.56518 42.2587 1.51047L41.7093 3.43352ZM50.7981 7.88457C53.3658 9.77974 55.3424 12.0936 56.7416 14.8311L58.5224 13.9209C56.9776 10.8984 54.7942 8.34825 51.9859 6.27542L50.7981 7.88457ZM56.7541 14.8549C58.2042 17.5133 58.9707 20.5519 59.0322 23.9939L61.0318 23.9581C60.9653 20.2321 60.1318 16.8707 58.5099 13.8971L56.7541 14.8549ZM59.0381 24.0864C59.0648 24.3265 59.0075 24.4834 58.8052 24.6567L60.1068 26.1753C60.8005 25.5806 61.1272 24.7775 61.0259 23.8656L59.0381 24.0864ZM58.7489 24.7089C58.5647 24.8931 58.3446 24.992 58.016 24.992V26.992C58.8394 26.992 59.5793 26.7069 60.1631 26.1231L58.7489 24.7089ZM58.016 24.992H45.056V26.992H58.016V24.992ZM45.056 24.992C44.332 24.992 43.929 24.8495 43.7172 24.6983L42.5548 26.3257C43.239 26.8145 44.116 26.992 45.056 26.992V24.992ZM43.7868 24.7527C43.5428 24.5436 43.2314 24.0759 42.9327 23.1798L41.0353 23.8122C41.3766 24.8361 41.8332 25.7124 42.4852 26.2713L43.7868 24.7527ZM42.9508 23.2406C42.0193 19.7141 40.4394 17.1259 38.0785 15.7241L37.0575 17.4439C38.7926 18.4741 40.1567 20.4939 41.0172 23.7514L42.9508 23.2406ZM38.1101 15.7437C35.9288 14.3364 33.2649 13.664 30.176 13.664V15.664C32.9751 15.664 35.2392 16.2716 37.0259 17.4243L38.1101 15.7437ZM30.176 13.664C26.4606 13.664 23.4043 14.7168 21.1282 16.9218L22.5198 18.3582C24.3397 16.5952 26.8514 15.664 30.176 15.664V13.664ZM21.1401 16.9105C18.812 19.0931 17.6614 22.643 17.4649 27.2938L19.4631 27.3782C19.6506 22.941 20.7401 20.0269 22.5079 18.3695L21.1401 16.9105ZM17.4647 27.2994C17.2718 32.5724 17.2718 37.9722 17.4646 43.4989L19.4634 43.4291C19.2722 37.9478 19.2722 32.5956 19.4633 27.3726L17.4647 27.2994ZM17.4649 43.5062C17.6616 48.1605 18.8131 51.7315 21.1282 53.9742L22.5198 52.5378C20.7389 50.8125 19.6504 47.8555 19.4631 43.4218L17.4649 43.5062ZM21.1401 53.9855C23.4173 56.1205 26.4693 57.136 30.176 57.136V55.136C26.8427 55.136 24.3267 54.2315 22.5079 52.5265L21.1401 53.9855ZM30.176 57.136C33.2662 57.136 35.9554 56.4631 38.194 55.064L37.134 53.368C35.2766 54.5289 32.9738 55.136 30.176 55.136V57.136ZM38.194 55.064C40.5394 53.5981 42.0858 51.0197 42.9541 47.5465L41.0139 47.0615C40.2182 50.2443 38.8846 52.2739 37.134 53.368L38.194 55.064ZM42.9502 47.5617C43.1892 46.6656 43.4636 46.3103 43.6212 46.1977L42.4588 44.5703C41.7204 45.0976 41.2908 46.0224 41.0178 47.0463L42.9502 47.5617ZM43.64 46.184C43.9332 45.9641 44.3753 45.808 45.056 45.808V43.808C44.0727 43.808 43.1708 44.0359 42.44 44.584L43.64 46.184ZM45.056 45.808H58.016V43.808H45.056V45.808ZM58.016 45.808C58.3446 45.808 58.5647 45.9069 58.7489 46.0911L60.1631 44.6769C59.5793 44.0931 58.8394 43.808 58.016 43.808V45.808ZM58.8052 46.1433C59.0075 46.3166 59.0648 46.4735 59.0381 46.7136L61.0259 46.9344C61.1272 46.0225 60.8005 45.2194 60.1068 44.6247L58.8052 46.1433ZM59.0322 46.8061C58.9707 50.2479 58.2042 53.3222 56.7496 56.0494L58.5144 56.9906C60.1319 53.9578 60.9653 50.5681 61.0318 46.8419L59.0322 46.8061ZM56.7458 56.0567C55.346 58.7347 53.3649 61.0557 50.786 63.0206L51.998 64.6114C54.7951 62.4803 56.974 59.9373 58.5182 56.9833L56.7458 56.0567ZM50.7981 63.0114C48.2123 64.9201 45.1816 66.4083 41.6935 67.4671L42.2745 69.3809C45.9545 68.2637 49.1958 66.6799 51.9859 64.6206L50.7981 63.0114ZM41.7093 67.4625C38.2256 68.4578 34.4152 68.96 30.272 68.96V70.96C34.5768 70.96 38.5744 70.4382 42.2587 69.3855L41.7093 67.4625ZM70.7983 68.328L71.5054 67.6209L71.5054 67.6209L70.7983 68.328ZM70.7983 2.472L71.5054 3.17911L71.5054 3.1791L70.7983 2.472ZM115.342 4.10399L115.742 3.18746L115.742 3.18745L115.342 4.10399ZM123.118 10.728L122.252 11.2283L122.259 11.2397L122.266 11.251L123.118 10.728ZM124.366 26.952L123.472 26.5048L123.468 26.5115L123.465 26.5182L124.366 26.952ZM121.198 31.272L120.529 30.5287L120.52 30.5373L120.511 30.546L121.198 31.272ZM117.742 33.768L117.316 32.8632L115.4 33.765L117.314 34.6717L117.742 33.768ZM124.174 39.432L123.358 40.0095L123.362 40.016L123.367 40.0225L124.174 39.432ZM124.174 59.592L123.326 59.062L123.323 59.0669L124.174 59.592ZM115.918 66.6L116.326 67.5132L116.333 67.5098L115.918 66.6ZM87.3103 56.52H86.3103V57.52H87.3103V56.52ZM106.99 54.12L107.741 54.7806L107.741 54.7806L106.99 54.12ZM106.894 42.984L106.157 43.6597L106.165 43.6679L106.172 43.6759L106.894 42.984ZM87.3103 40.68V39.68H86.3103V40.68H87.3103ZM87.3103 28.488H86.3103V29.488H87.3103V28.488ZM105.742 26.472L105.035 25.7649L105.027 25.7735L105.018 25.7823L105.742 26.472ZM105.742 16.296L105.018 16.9857L105.035 17.0033L105.053 17.0201L105.742 16.296ZM87.3103 14.28V13.28H86.3103V14.28H87.3103ZM72.5263 68C72.0552 68 71.7442 67.8597 71.5054 67.6209L70.0911 69.0351C70.7483 69.6923 71.5893 70 72.5263 70V68ZM71.5054 67.6209C71.2666 67.3821 71.1263 67.0711 71.1263 66.6H69.1263C69.1263 67.5369 69.4339 68.3779 70.0911 69.0351L71.5054 67.6209ZM71.1263 66.6V4.2H69.1263V66.6H71.1263ZM71.1263 4.2C71.1263 3.72891 71.2666 3.4179 71.5054 3.17911L70.0911 1.76489C69.4339 2.42209 69.1263 3.26308 69.1263 4.2H71.1263ZM71.5054 3.1791C71.7442 2.94031 72.0552 2.8 72.5263 2.8V0.799995C71.5893 0.799995 70.7483 1.10769 70.0911 1.76489L71.5054 3.1791ZM72.5263 2.8H101.806V0.799995H72.5263V2.8ZM101.806 2.8C107.228 2.8 111.591 3.55801 114.942 5.02053L115.742 3.18745C112.054 1.57799 107.393 0.799995 101.806 0.799995V2.8ZM114.942 5.02053C118.298 6.48483 120.711 8.56088 122.252 11.2283L123.984 10.2277C122.197 7.13512 119.427 4.79517 115.742 3.18746L114.942 5.02053ZM122.266 11.251C123.881 13.8831 124.71 17.0547 124.71 20.808H126.71C126.71 16.7533 125.811 13.2049 123.971 10.205L122.266 11.251ZM124.71 20.808C124.71 22.9801 124.289 24.8711 123.472 26.5048L125.261 27.3992C126.236 25.4489 126.71 23.2439 126.71 20.808H124.71ZM123.465 26.5182C122.683 28.1422 121.702 29.4732 120.529 30.5287L121.867 32.0153C123.254 30.7668 124.385 29.2178 125.267 27.3858L123.465 26.5182ZM120.511 30.546C119.344 31.6514 118.279 32.4104 117.316 32.8632L118.168 34.6728C119.382 34.1016 120.621 33.1966 121.886 31.998L120.511 30.546ZM117.314 34.6717C119.563 35.7371 121.582 37.4985 123.358 40.0095L124.991 38.8545C123.055 36.1175 120.785 34.1029 118.17 32.8643L117.314 34.6717ZM123.367 40.0225C125.151 42.4608 126.054 45.3218 126.054 48.648H128.054C128.054 44.9342 127.037 41.6512 124.981 38.8415L123.367 40.0225ZM126.054 48.648C126.054 52.7162 125.131 56.1738 123.326 59.062L125.022 60.122C127.057 56.8662 128.054 53.0278 128.054 48.648H126.054ZM123.323 59.0669C121.585 61.8843 118.996 64.097 115.503 65.6902L116.333 67.5098C120.136 65.775 123.052 63.3157 125.025 60.1171L123.323 59.0669ZM115.511 65.6869C112.09 67.2138 107.823 68 102.67 68V70C108.014 70 112.578 69.1862 116.326 67.5131L115.511 65.6869ZM102.67 68H72.5263V70H102.67V68ZM87.3103 57.52H100.75V55.52H87.3103V57.52ZM100.75 57.52C103.7 57.52 106.091 56.6554 107.741 54.7806L106.24 53.4594C105.073 54.7846 103.304 55.52 100.75 55.52V57.52ZM107.741 54.7806C109.302 53.0062 110.102 50.9498 110.102 48.648H108.102C108.102 50.4422 107.494 52.0338 106.24 53.4594L107.741 54.7806ZM110.102 48.648C110.102 46.1652 109.277 44.0249 107.616 42.2921L106.172 43.6759C107.456 45.0151 108.102 46.6508 108.102 48.648H110.102ZM107.631 42.3083C105.983 40.5097 103.632 39.68 100.75 39.68V41.68C103.244 41.68 104.99 42.3863 106.157 43.6597L107.631 42.3083ZM100.75 39.68H87.3103V41.68H100.75V39.68ZM86.3103 40.68V56.52H88.3103V40.68H86.3103ZM87.3103 29.488H99.8863V27.488H87.3103V29.488ZM99.8863 29.488C102.669 29.488 104.931 28.7742 106.466 27.1617L105.018 25.7823C103.994 26.8578 102.352 27.488 99.8863 27.488V29.488ZM106.449 27.1791C108.003 25.6259 108.758 23.6329 108.758 21.288H106.758C106.758 23.1671 106.17 24.6301 105.035 25.7649L106.449 27.1791ZM108.758 21.288C108.758 18.9976 107.996 17.0612 106.432 15.5719L105.053 17.0201C106.177 18.0908 106.758 19.4824 106.758 21.288H108.758ZM106.466 15.6063C104.931 13.9938 102.669 13.28 99.8863 13.28V15.28C102.352 15.28 103.994 15.9102 105.018 16.9857L106.466 15.6063ZM99.8863 13.28H87.3103V15.28H99.8863V13.28ZM86.3103 14.28V28.488H88.3103V14.28H86.3103ZM149.816 67.08L150.22 66.1651L150.22 66.1651L149.816 67.08ZM139.64 58.44L138.791 58.9688L138.795 58.9751L139.64 58.44ZM135.608 43.848L134.608 43.8712L134.609 43.8816L134.609 43.8919L135.608 43.848ZM135.608 27.24L134.609 27.1956L134.609 27.2064L134.608 27.2173L135.608 27.24ZM139.64 12.744L138.794 12.2115L138.791 12.2152L139.64 12.744ZM180.344 3.816L179.929 4.72592L179.934 4.72817L180.344 3.816ZM190.712 12.744L189.866 13.2765L189.869 13.2827L190.712 12.744ZM194.744 27.24L193.744 27.2733L193.745 27.2854L194.744 27.24ZM194.744 43.848L193.745 43.8015L193.745 43.8041L194.744 43.848ZM190.712 58.44L191.557 58.9751L191.561 58.9687L190.712 58.44ZM180.536 67.08L180.132 66.1651L180.132 66.1651L180.536 67.08ZM173.432 53.064L172.747 52.3358L172.741 52.3409L172.736 52.3461L173.432 53.064ZM176.888 43.272L175.889 43.2266L175.889 43.235L175.888 43.2434L176.888 43.272ZM176.888 27.528L175.889 27.5705L175.889 27.5756L176.888 27.528ZM175.16 20.232L174.266 20.6792L174.275 20.6973L174.284 20.7151L175.16 20.232ZM171.128 16.008L170.668 16.8958L170.668 16.8958L171.128 16.008ZM155.192 20.232L156.068 20.7151L156.071 20.7089L156.074 20.7026L155.192 20.232ZM153.464 27.528L152.465 27.4855L152.465 27.4948L152.464 27.5042L153.464 27.528ZM153.464 43.272L152.464 43.2947L152.464 43.3048L152.465 43.3148L153.464 43.272ZM165.176 68.96C159.395 68.96 154.418 68.0173 150.22 66.1651L149.412 67.9949C153.918 69.9827 159.181 70.96 165.176 70.96V68.96ZM150.22 66.1651C146.04 64.3212 142.806 61.5693 140.485 57.9049L138.795 58.9751C141.338 62.9907 144.888 65.9988 149.412 67.9949L150.22 66.1651ZM140.489 57.9113C138.169 54.1873 136.857 49.5014 136.607 43.8041L134.609 43.8919C134.871 49.8426 136.247 54.8847 138.791 58.9687L140.489 57.9113ZM136.608 43.8247C136.544 41.0805 136.512 38.3362 136.512 35.592H134.512C134.512 38.3518 134.544 41.1115 134.608 43.8712L136.608 43.8247ZM136.512 35.592C136.512 32.8477 136.544 30.0713 136.608 27.2627L134.608 27.2173C134.544 30.0407 134.512 32.8322 134.512 35.592H136.512ZM136.607 27.2844C136.857 21.6532 138.168 16.9983 140.489 13.2727L138.791 12.2152C136.248 16.2977 134.871 21.3068 134.609 27.1956L136.607 27.2844ZM140.486 13.2764C142.876 9.47723 146.149 6.63067 150.327 4.72591L149.497 2.90609C144.971 4.96933 141.396 8.07477 138.794 12.2115L140.486 13.2764ZM150.327 4.72591C154.523 2.81274 159.465 1.84 165.176 1.84V-0.160004C159.239 -0.160004 154.005 0.851249 149.497 2.90609L150.327 4.72591ZM165.176 1.84C170.822 1.84 175.731 2.81214 179.929 4.72591L180.759 2.90609C176.253 0.851857 171.05 -0.160004 165.176 -0.160004V1.84ZM179.934 4.72817C184.177 6.63419 187.478 9.48098 189.866 13.2764L191.558 12.2115C188.954 8.07102 185.343 4.9658 180.754 2.90383L179.934 4.72817ZM189.869 13.2827C192.248 17.0025 193.557 21.6494 193.745 27.2733L195.743 27.2067C195.547 21.3106 194.168 16.2935 191.555 12.2053L189.869 13.2827ZM193.745 27.2854C193.872 30.0866 193.936 32.8555 193.936 35.592H195.936C195.936 32.8245 195.872 30.0254 195.743 27.1946L193.745 27.2854ZM193.936 35.592C193.936 38.3285 193.872 41.065 193.745 43.8015L195.743 43.8945C195.872 41.127 195.936 38.3595 195.936 35.592H193.936ZM193.745 43.8041C193.495 49.5014 192.183 54.1873 189.863 57.9113L191.561 58.9687C194.105 54.8847 195.481 49.8426 195.743 43.8919L193.745 43.8041ZM189.867 57.9049C187.546 61.5693 184.312 64.3212 180.132 66.1651L180.94 67.9949C185.464 65.9988 189.014 62.9907 191.557 58.9751L189.867 57.9049ZM180.132 66.1651C175.934 68.0173 170.957 68.96 165.176 68.96V70.96C171.171 70.96 176.434 69.9827 180.94 67.9949L180.132 66.1651ZM165.176 57.136C168.785 57.136 171.801 56.0386 174.128 53.7819L172.736 52.3461C170.839 54.1854 168.351 55.136 165.176 55.136V57.136ZM174.117 53.7922C176.565 51.4883 177.756 47.9149 177.888 43.3006L175.888 43.2434C175.764 47.5891 174.651 50.5437 172.747 52.3358L174.117 53.7922ZM177.887 43.3174C178.016 40.4882 178.08 37.8169 178.08 35.304H176.08C176.08 37.7831 176.016 40.4238 175.889 43.2266L177.887 43.3174ZM178.08 35.304C178.08 32.791 178.016 30.1831 177.887 27.4804L175.889 27.5756C176.016 30.2489 176.08 32.825 176.08 35.304H178.08ZM177.887 27.4855C177.755 24.3837 177.159 21.7849 176.036 19.7489L174.284 20.7151C175.209 22.3911 175.765 24.6563 175.889 27.5705L177.887 27.4855ZM176.054 19.7848C175.01 17.6962 173.523 16.1235 171.588 15.1202L170.668 16.8958C172.189 17.6845 173.39 18.9278 174.266 20.6792L176.054 19.7848ZM171.588 15.1202C169.698 14.1401 167.552 13.664 165.176 13.664V15.664C167.28 15.664 169.102 16.0839 170.668 16.8958L171.588 15.1202ZM165.176 13.664C162.859 13.664 160.746 14.1422 158.86 15.1202L159.78 16.8958C161.35 16.0818 163.141 15.664 165.176 15.664V13.664ZM158.86 15.1202C156.931 16.1202 155.417 17.6848 154.31 19.7614L156.074 20.7026C157.015 18.9392 158.253 17.6878 159.78 16.8958L158.86 15.1202ZM154.316 19.7489C153.193 21.7849 152.597 24.3837 152.465 27.4855L154.463 27.5705C154.587 24.6563 155.143 22.3911 156.068 20.7151L154.316 19.7489ZM152.464 27.5042C152.4 30.1995 152.368 32.7995 152.368 35.304H154.368C154.368 32.8165 154.4 30.2325 154.464 27.5518L152.464 27.5042ZM152.368 35.304C152.368 37.8085 152.4 40.4721 152.464 43.2947L154.464 43.2493C154.4 40.4399 154.368 37.7915 154.368 35.304H152.368ZM152.465 43.3148C152.662 47.9199 153.852 51.4821 156.224 53.7819L157.616 52.3461C155.764 50.5499 154.65 47.5841 154.463 43.2292L152.465 43.3148ZM156.224 53.7819C158.551 56.0386 161.567 57.136 165.176 57.136V55.136C162.001 55.136 159.513 54.1854 157.616 52.3461L156.224 53.7819ZM206.736 68.328L207.443 67.6209L207.443 67.6209L206.736 68.328ZM206.736 2.472L207.443 3.17911L207.443 3.1791L206.736 2.472ZM256.176 2.472L255.469 3.1791L255.492 3.20265L255.517 3.22458L256.176 2.472ZM256.176 15.624L255.469 14.9169L255.469 14.9169L256.176 15.624ZM223.248 16.296V15.296H222.248V16.296H223.248ZM223.248 27.72H222.248V28.72H223.248V27.72ZM254.832 33.192L255.469 32.421L255.469 32.421L254.832 33.192ZM259.824 56.328L260.74 56.7276L260.744 56.7191L259.824 56.328ZM255.024 62.952L255.695 63.693L255.696 63.6919L255.024 62.952ZM247.344 67.368L247.01 66.4254L247.01 66.4254L247.344 67.368ZM223.248 56.52H222.248V57.52H223.248V56.52ZM239.76 55.368L240.294 56.2136L240.305 56.2064L239.76 55.368ZM242.64 52.2L243.534 52.6472L243.538 52.6386L243.543 52.6299L242.64 52.2ZM241.392 42.216L240.641 42.8766L240.648 42.8849L240.656 42.8931L241.392 42.216ZM223.248 39.816V38.816H222.248V39.816H223.248ZM208.464 68C207.993 68 207.682 67.8597 207.443 67.6209L206.029 69.0351C206.686 69.6923 207.527 70 208.464 70V68ZM207.443 67.6209C207.204 67.3821 207.064 67.0711 207.064 66.6H205.064C205.064 67.5369 205.371 68.3779 206.029 69.0351L207.443 67.6209ZM207.064 66.6V4.2H205.064V66.6H207.064ZM207.064 4.2C207.064 3.72891 207.204 3.4179 207.443 3.17911L206.029 1.76489C205.371 2.42209 205.064 3.26308 205.064 4.2H207.064ZM207.443 3.1791C207.682 2.94031 207.993 2.8 208.464 2.8V0.799995C207.527 0.799995 206.686 1.10769 206.029 1.76489L207.443 3.1791ZM208.464 2.8H254.448V0.799995H208.464V2.8ZM254.448 2.8C254.919 2.8 255.23 2.94031 255.469 3.1791L256.883 1.76489C256.226 1.10769 255.385 0.799995 254.448 0.799995V2.8ZM255.517 3.22458C255.804 3.47527 255.944 3.7729 255.944 4.2H257.944C257.944 3.21909 257.572 2.36472 256.834 1.71942L255.517 3.22458ZM255.944 4.2V13.8H257.944V4.2H255.944ZM255.944 13.8C255.944 14.2304 255.799 14.5864 255.469 14.9169L256.883 16.3311C257.576 15.6376 257.944 14.7776 257.944 13.8H255.944ZM255.469 14.9169C255.23 15.1557 254.919 15.296 254.448 15.296V17.296C255.385 17.296 256.226 16.9883 256.883 16.3311L255.469 14.9169ZM254.448 15.296H223.248V17.296H254.448V15.296ZM222.248 16.296V27.72H224.248V16.296H222.248ZM223.248 28.72H236.688V26.72H223.248V28.72ZM236.688 28.72C244.215 28.72 250.011 30.5068 254.195 33.963L255.469 32.421C250.82 28.5812 244.521 26.72 236.688 26.72V28.72ZM254.195 33.963C258.357 37.4014 260.456 42.0661 260.456 48.072H262.456C262.456 41.5339 260.138 36.2786 255.469 32.421L254.195 33.963ZM260.456 48.072C260.456 50.8896 259.936 53.5077 258.903 55.9369L260.744 56.7191C261.888 54.0283 262.456 51.1424 262.456 48.072H260.456ZM258.907 55.9284C257.878 58.2888 256.364 60.3823 254.351 62.2121L255.696 63.6919C257.908 61.6817 259.593 59.3592 260.74 56.7276L258.907 55.9284ZM254.352 62.211C252.418 63.9637 249.979 65.3738 247.01 66.4254L247.678 68.3106C250.852 67.1862 253.533 65.6523 255.695 63.693L254.352 62.211ZM247.01 66.4254C244.067 67.4676 240.632 68 236.688 68V70C240.808 70 244.476 69.4444 247.678 68.3106L247.01 66.4254ZM236.688 68H208.464V70H236.688V68ZM223.248 57.52H235.152V55.52H223.248V57.52ZM235.152 57.52C237.143 57.52 238.878 57.1079 240.294 56.2135L239.226 54.5225C238.21 55.1641 236.873 55.52 235.152 55.52V57.52ZM240.305 56.2064C241.724 55.2842 242.809 54.0971 243.534 52.6472L241.745 51.7528C241.19 52.8629 240.356 53.7878 239.215 54.5296L240.305 56.2064ZM243.543 52.6299C244.246 51.1532 244.6 49.5985 244.6 47.976H242.6C242.6 49.2975 242.314 50.5588 241.737 51.7701L243.543 52.6299ZM244.6 47.976C244.6 45.4936 243.775 43.3296 242.128 41.5389L240.656 42.8931C241.952 44.3024 242.6 45.9784 242.6 47.976H244.6ZM242.142 41.5554C240.493 39.6806 238.102 38.816 235.152 38.816V40.816C237.706 40.816 239.475 41.5514 240.641 42.8766L242.142 41.5554ZM235.152 38.816H223.248V40.816H235.152V38.816ZM222.248 39.816V56.52H224.248V39.816H222.248ZM281.254 67.08L281.657 66.1651L281.657 66.1651L281.254 67.08ZM271.078 58.44L270.229 58.9688L270.233 58.9751L271.078 58.44ZM267.046 43.848L266.046 43.8712L266.046 43.8816L266.046 43.8919L267.046 43.848ZM267.046 27.24L266.046 27.1956L266.046 27.2064L266.046 27.2173L267.046 27.24ZM271.078 12.744L270.231 12.2115L270.229 12.2152L271.078 12.744ZM311.781 3.816L311.367 4.72592L311.372 4.72817L311.781 3.816ZM322.15 12.744L321.303 13.2765L321.307 13.2827L322.15 12.744ZM326.182 27.24L325.182 27.2733L325.183 27.2854L326.182 27.24ZM326.182 43.848L325.183 43.8015L325.182 43.8041L326.182 43.848ZM322.15 58.44L322.994 58.9751L322.998 58.9687L322.15 58.44ZM311.974 67.08L311.57 66.1651L311.57 66.1651L311.974 67.08ZM304.87 53.064L304.184 52.3358L304.179 52.3409L304.173 52.3461L304.87 53.064ZM308.326 43.272L307.327 43.2266L307.326 43.235L307.326 43.2434L308.326 43.272ZM308.326 27.528L307.326 27.5705L307.327 27.5756L308.326 27.528ZM306.598 20.232L305.703 20.6792L305.712 20.6973L305.722 20.7151L306.598 20.232ZM302.566 16.008L302.105 16.8958L302.105 16.8958L302.566 16.008ZM286.63 20.232L287.505 20.7151L287.509 20.7089L287.512 20.7026L286.63 20.232ZM284.902 27.528L283.902 27.4855L283.902 27.4948L283.902 27.5042L284.902 27.528ZM284.902 43.272L283.902 43.2947L283.902 43.3048L283.902 43.3148L284.902 43.272ZM296.614 68.96C290.832 68.96 285.856 68.0173 281.657 66.1651L280.85 67.9949C285.355 69.9827 290.619 70.96 296.614 70.96V68.96ZM281.657 66.1651C277.478 64.3212 274.243 61.5693 271.922 57.9049L270.233 58.9751C272.776 62.9907 276.325 65.9988 280.85 67.9949L281.657 66.1651ZM271.926 57.9113C269.606 54.1873 268.295 49.5014 268.045 43.8041L266.046 43.8919C266.308 49.8426 267.685 54.8847 270.229 58.9687L271.926 57.9113ZM268.045 43.8247C267.981 41.0805 267.95 38.3362 267.95 35.592H265.95C265.95 38.3518 265.982 41.1115 266.046 43.8712L268.045 43.8247ZM267.95 35.592C267.95 32.8477 267.981 30.0713 268.045 27.2627L266.046 27.2173C265.982 30.0407 265.95 32.8322 265.95 35.592H267.95ZM268.045 27.2844C268.295 21.6532 269.605 16.9983 271.926 13.2727L270.229 12.2152C267.686 16.2977 266.308 21.3068 266.046 27.1956L268.045 27.2844ZM271.924 13.2764C274.314 9.47723 277.586 6.63067 281.764 4.72591L280.935 2.90609C276.409 4.96933 272.833 8.07477 270.231 12.2115L271.924 13.2764ZM281.764 4.72591C285.961 2.81274 290.902 1.84 296.614 1.84V-0.160004C290.677 -0.160004 285.442 0.851249 280.935 2.90609L281.764 4.72591ZM296.614 1.84C302.259 1.84 307.169 2.81214 311.367 4.72591L312.196 2.90609C307.69 0.851857 302.488 -0.160004 296.614 -0.160004V1.84ZM311.372 4.72817C315.614 6.63419 318.916 9.48098 321.303 13.2764L322.996 12.2115C320.391 8.07102 316.781 4.9658 312.191 2.90383L311.372 4.72817ZM321.307 13.2827C323.685 17.0025 324.995 21.6494 325.182 27.2733L327.181 27.2067C326.984 21.3106 325.606 16.2935 322.992 12.2053L321.307 13.2827ZM325.183 27.2854C325.31 30.0866 325.374 32.8555 325.374 35.592H327.374C327.374 32.8245 327.309 30.0254 327.18 27.1946L325.183 27.2854ZM325.374 35.592C325.374 38.3285 325.31 41.065 325.183 43.8015L327.18 43.8945C327.309 41.127 327.374 38.3595 327.374 35.592H325.374ZM325.182 43.8041C324.932 49.5014 323.621 54.1873 321.301 57.9113L322.998 58.9687C325.542 54.8847 326.919 49.8426 327.181 43.8919L325.182 43.8041ZM321.305 57.9049C318.984 61.5693 315.749 64.3212 311.57 66.1651L312.377 67.9949C316.902 65.9988 320.451 62.9907 322.994 58.9751L321.305 57.9049ZM311.57 66.1651C307.371 68.0173 302.395 68.96 296.614 68.96V70.96C302.608 70.96 307.872 69.9827 312.377 67.9949L311.57 66.1651ZM296.614 57.136C300.223 57.136 303.238 56.0386 305.566 53.7819L304.173 52.3461C302.277 54.1854 299.788 55.136 296.614 55.136V57.136ZM305.555 53.7922C308.003 51.4883 309.193 47.9149 309.325 43.3006L307.326 43.2434C307.202 47.5891 306.088 50.5437 304.184 52.3358L305.555 53.7922ZM309.324 43.3174C309.453 40.4882 309.518 37.8169 309.518 35.304H307.518C307.518 37.7831 307.454 40.4238 307.327 43.2266L309.324 43.3174ZM309.518 35.304C309.518 32.791 309.453 30.1831 309.324 27.4804L307.327 27.5756C307.454 30.2489 307.518 32.825 307.518 35.304H309.518ZM309.325 27.4855C309.193 24.3837 308.596 21.7849 307.473 19.7489L305.722 20.7151C306.647 22.3911 307.202 24.6563 307.326 27.5705L309.325 27.4855ZM307.492 19.7848C306.448 17.6962 304.961 16.1235 303.026 15.1202L302.105 16.8958C303.626 17.6845 304.827 18.9278 305.703 20.6792L307.492 19.7848ZM303.026 15.1202C301.135 14.1401 298.989 13.664 296.614 13.664V15.664C298.718 15.664 300.54 16.0839 302.105 16.8958L303.026 15.1202ZM296.614 13.664C294.296 13.664 292.183 14.1422 290.297 15.1202L291.218 16.8958C292.788 16.0818 294.579 15.664 296.614 15.664V13.664ZM290.297 15.1202C288.369 16.1202 286.855 17.6848 285.747 19.7614L287.512 20.7026C288.452 18.9392 289.69 17.6878 291.218 16.8958L290.297 15.1202ZM285.754 19.7489C284.631 21.7849 284.034 24.3837 283.902 27.4855L285.901 27.5705C286.025 24.6563 286.58 22.3911 287.505 20.7151L285.754 19.7489ZM283.902 27.5042C283.838 30.1995 283.806 32.7995 283.806 35.304H285.806C285.806 32.8165 285.837 30.2325 285.901 27.5518L283.902 27.5042ZM283.806 35.304C283.806 37.8085 283.838 40.4721 283.902 43.2947L285.901 43.2493C285.837 40.4399 285.806 37.7915 285.806 35.304H283.806ZM283.902 43.3148C284.1 47.9199 285.29 51.4821 287.661 53.7819L289.054 52.3461C287.201 50.5499 286.087 47.5841 285.901 43.2292L283.902 43.3148ZM287.661 53.7819C289.989 56.0386 293.004 57.136 296.614 57.136V55.136C293.439 55.136 290.95 54.1854 289.054 52.3461L287.661 53.7819ZM334.237 81.768L333.53 82.4751L333.554 82.4987L333.579 82.5206L334.237 81.768ZM334.237 54.408L334.944 55.1151L334.944 55.1151L334.237 54.408ZM344.125 45.288L345.097 45.525L345.098 45.5196L344.125 45.288ZM345.469 35.784L346.467 35.854L346.467 35.8528L345.469 35.784ZM346.525 2.472L345.867 1.71942L345.842 1.74135L345.818 1.76489L346.525 2.472ZM395.101 2.472L394.394 3.1791L394.394 3.17911L395.101 2.472ZM395.773 53.64H394.773V54.64H395.773V53.64ZM402.013 54.408L401.261 55.0665L401.305 55.1167L401.355 55.1606L402.013 54.408ZM402.013 81.672L401.355 80.9194L401.305 80.9633L401.261 81.0135L402.013 81.672ZM386.173 81.672L386.926 81.0135L386.904 80.9884L386.88 80.9649L386.173 81.672ZM385.501 69H386.501V68H385.501V69ZM350.845 69V68H349.845V69H350.845ZM350.173 81.672L349.466 80.9649L349.443 80.9884L349.421 81.0135L350.173 81.672ZM358.141 53.64L357.255 53.176L356.489 54.64H358.141V53.64ZM378.589 53.64V54.64H379.589V53.64H378.589ZM378.589 17.16H379.589V16.16H378.589V17.16ZM362.557 17.16V16.16H361.557V17.16H362.557ZM361.405 42.888L362.391 43.057L362.391 43.0546L361.405 42.888ZM335.965 81.44C335.584 81.44 335.238 81.3148 334.896 81.0154L333.579 82.5206C334.261 83.1172 335.067 83.44 335.965 83.44V81.44ZM334.944 81.0609C334.706 80.8221 334.565 80.5111 334.565 80.04H332.565C332.565 80.9769 332.873 81.8179 333.53 82.4751L334.944 81.0609ZM334.565 80.04V56.04H332.565V80.04H334.565ZM334.565 56.04C334.565 55.6622 334.686 55.3734 334.944 55.1151L333.53 53.7009C332.892 54.3386 332.565 55.1378 332.565 56.04H334.565ZM334.944 55.1151C335.296 54.7638 335.626 54.64 335.965 54.64V52.64C335.024 52.64 334.203 53.0282 333.53 53.7009L334.944 55.1151ZM335.965 54.64H337.693V52.64H335.965V54.64ZM337.693 54.64C339.664 54.64 341.265 53.706 342.45 52.0031L340.808 50.8609C339.945 52.102 338.922 52.64 337.693 52.64V54.64ZM342.45 52.0031C343.571 50.3923 344.441 48.2141 345.097 45.525L343.154 45.051C342.53 47.6099 341.736 49.5277 340.808 50.8609L342.45 52.0031ZM345.098 45.5196C345.754 42.7647 346.208 39.5402 346.467 35.854L344.472 35.714C344.218 39.3238 343.777 42.4353 343.152 45.0564L345.098 45.5196ZM346.467 35.8528C346.725 32.1145 346.853 28.0592 346.853 23.688H344.853C344.853 28.0208 344.726 32.0295 344.472 35.7152L346.467 35.8528ZM346.853 23.688V4.2H344.853V23.688H346.853ZM346.853 4.2C346.853 3.72891 346.994 3.4179 347.232 3.17911L345.818 1.76489C345.161 2.42209 344.853 3.26308 344.853 4.2H346.853ZM347.184 3.22457C347.526 2.92515 347.872 2.8 348.253 2.8V0.799995C347.355 0.799995 346.549 1.12284 345.867 1.71942L347.184 3.22457ZM348.253 2.8H393.373V0.799995H348.253V2.8ZM393.373 2.8C393.844 2.8 394.155 2.94031 394.394 3.1791L395.808 1.76489C395.151 1.10769 394.31 0.799995 393.373 0.799995V2.8ZM394.394 3.17911C394.633 3.4179 394.773 3.72891 394.773 4.2H396.773C396.773 3.26308 396.466 2.42209 395.808 1.76489L394.394 3.17911ZM394.773 4.2V53.64H396.773V4.2H394.773ZM395.773 54.64H400.285V52.64H395.773V54.64ZM400.285 54.64C400.712 54.64 401.01 54.78 401.261 55.0665L402.766 53.7495C402.121 53.012 401.266 52.64 400.285 52.64V54.64ZM401.355 55.1606C401.665 55.4323 401.781 55.7083 401.781 56.04H403.781C403.781 55.0917 403.385 54.2797 402.672 53.6554L401.355 55.1606ZM401.781 56.04V80.04H403.781V56.04H401.781ZM401.781 80.04C401.781 80.3717 401.665 80.6477 401.355 80.9194L402.672 82.4246C403.385 81.8003 403.781 80.9883 403.781 80.04H401.781ZM401.261 81.0135C401.01 81.3 400.712 81.44 400.285 81.44V83.44C401.266 83.44 402.121 83.068 402.766 82.3305L401.261 81.0135ZM400.285 81.44H387.901V83.44H400.285V81.44ZM387.901 81.44C387.474 81.44 387.177 81.3 386.926 81.0135L385.421 82.3305C386.066 83.068 386.92 83.44 387.901 83.44V81.44ZM386.88 80.9649C386.622 80.7066 386.501 80.4178 386.501 80.04H384.501C384.501 80.9422 384.828 81.7414 385.466 82.3791L386.88 80.9649ZM386.501 80.04V69H384.501V80.04H386.501ZM385.501 68H350.845V70H385.501V68ZM349.845 69V80.04H351.845V69H349.845ZM349.845 80.04C349.845 80.4178 349.724 80.7066 349.466 80.9649L350.88 82.3791C351.518 81.7414 351.845 80.9422 351.845 80.04H349.845ZM349.421 81.0135C349.17 81.3 348.872 81.44 348.445 81.44V83.44C349.426 83.44 350.281 83.068 350.926 82.3305L349.421 81.0135ZM348.445 81.44H335.965V83.44H348.445V81.44ZM358.141 54.64H378.589V52.64H358.141V54.64ZM379.589 53.64V17.16H377.589V53.64H379.589ZM378.589 16.16H362.557V18.16H378.589V16.16ZM361.557 17.16V25.896H363.557V17.16H361.557ZM361.557 25.896C361.557 32.6476 361.175 38.2515 360.419 42.7213L362.391 43.0546C363.172 38.4365 363.557 32.7124 363.557 25.896H361.557ZM360.42 42.719C359.661 47.142 358.597 50.6143 357.255 53.176L359.027 54.104C360.501 51.2897 361.613 47.594 362.391 43.057L360.42 42.719ZM413.267 68.328L413.974 67.6209L413.974 67.6209L413.267 68.328ZM413.267 2.472L413.974 3.17911L413.974 3.1791L413.267 2.472ZM429.107 2.472L428.4 3.1791L428.4 3.17911L429.107 2.472ZM429.779 27.336H428.779V28.336H429.779V27.336ZM453.491 27.336V28.336H454.491V27.336H453.491ZM454.163 2.472L454.87 3.17911L454.87 3.1791L454.163 2.472ZM470.003 68.328L470.71 69.0351L470.71 69.0351L470.003 68.328ZM454.163 68.328L453.456 69.0351L453.456 69.0351L454.163 68.328ZM453.491 42.696H454.491V41.696H453.491V42.696ZM429.779 42.696V41.696H428.779V42.696H429.779ZM429.107 68.328L429.814 69.0351L429.107 68.328ZM414.995 68C414.524 68 414.213 67.8597 413.974 67.6209L412.56 69.0351C413.217 69.6923 414.058 70 414.995 70V68ZM413.974 67.6209C413.735 67.3821 413.595 67.0711 413.595 66.6H411.595C411.595 67.5369 411.903 68.3779 412.56 69.0351L413.974 67.6209ZM413.595 66.6V4.2H411.595V66.6H413.595ZM413.595 4.2C413.595 3.72891 413.735 3.4179 413.974 3.17911L412.56 1.76489C411.903 2.42209 411.595 3.26308 411.595 4.2H413.595ZM413.974 3.1791C414.213 2.94031 414.524 2.8 414.995 2.8V0.799995C414.058 0.799995 413.217 1.10769 412.56 1.76489L413.974 3.1791ZM414.995 2.8H427.379V0.799995H414.995V2.8ZM427.379 2.8C427.85 2.8 428.161 2.94031 428.4 3.1791L429.814 1.76489C429.157 1.10769 428.316 0.799995 427.379 0.799995V2.8ZM428.4 3.17911C428.639 3.4179 428.779 3.72891 428.779 4.2H430.779C430.779 3.26308 430.471 2.42209 429.814 1.76489L428.4 3.17911ZM428.779 4.2V27.336H430.779V4.2H428.779ZM429.779 28.336H453.491V26.336H429.779V28.336ZM454.491 27.336V4.2H452.491V27.336H454.491ZM454.491 4.2C454.491 3.72891 454.631 3.4179 454.87 3.17911L453.456 1.76489C452.799 2.42209 452.491 3.26308 452.491 4.2H454.491ZM454.87 3.1791C455.109 2.94031 455.42 2.8 455.891 2.8V0.799995C454.954 0.799995 454.113 1.10769 453.456 1.76489L454.87 3.1791ZM455.891 2.8H468.275V0.799995H455.891V2.8ZM468.275 2.8C468.746 2.8 469.057 2.94031 469.296 3.1791L470.71 1.76489C470.053 1.10769 469.212 0.799995 468.275 0.799995V2.8ZM469.296 3.1791C469.535 3.4179 469.675 3.72891 469.675 4.2H471.675C471.675 3.26308 471.367 2.42209 470.71 1.76489L469.296 3.1791ZM469.675 4.2V66.6H471.675V4.2H469.675ZM469.675 66.6C469.675 67.0711 469.535 67.3821 469.296 67.6209L470.71 69.0351C471.367 68.3779 471.675 67.5369 471.675 66.6H469.675ZM469.296 67.6209C469.057 67.8597 468.746 68 468.275 68V70C469.212 70 470.053 69.6923 470.71 69.0351L469.296 67.6209ZM468.275 68H455.891V70H468.275V68ZM455.891 68C455.42 68 455.109 67.8597 454.87 67.6209L453.456 69.0351C454.113 69.6923 454.954 70 455.891 70V68ZM454.87 67.6209C454.631 67.3821 454.491 67.0711 454.491 66.6H452.491C452.491 67.5369 452.799 68.3779 453.456 69.0351L454.87 67.6209ZM454.491 66.6V42.696H452.491V66.6H454.491ZM453.491 41.696H429.779V43.696H453.491V41.696ZM428.779 42.696V66.6H430.779V42.696H428.779ZM428.779 66.6C428.779 67.0711 428.639 67.3821 428.4 67.6209L429.814 69.0351C430.471 68.3779 430.779 67.5369 430.779 66.6H428.779ZM428.4 67.6209C428.161 67.8597 427.85 68 427.379 68V70C428.316 70 429.157 69.6923 429.814 69.0351L428.4 67.6209ZM427.379 68H414.995V70H427.379V68ZM478.846 68.424L478.087 69.0748L478.137 69.1332L478.195 69.1833L478.846 68.424ZM478.366 66.12L477.427 65.7763L477.409 65.826L477.396 65.8775L478.366 66.12ZM500.926 4.488L501.865 4.83173L501.88 4.79197L501.891 4.75111L500.926 4.488ZM502.078 2.664L502.743 3.41142L502.747 3.40729L502.078 2.664ZM521.374 2.664L520.667 3.3711L520.706 3.41027L520.75 3.44486L521.374 2.664ZM522.622 4.488L521.657 4.75111L521.668 4.7913L521.683 4.83044L522.622 4.488ZM545.086 66.12L544.147 66.4624L544.166 66.5161L544.192 66.5672L545.086 66.12ZM544.606 68.424L545.313 69.1311L545.313 69.1311L544.606 68.424ZM529.15 68.328L528.398 68.9865L528.442 69.0367L528.492 69.0806L529.15 68.328ZM528.286 66.984L529.235 66.6678L529.228 66.6472L529.22 66.6269L528.286 66.984ZM524.542 57.192L525.476 56.8349L525.231 56.192H524.542V57.192ZM498.91 57.192V56.192H498.216L497.973 56.8429L498.91 57.192ZM495.262 66.984L494.325 66.6349L494.319 66.6512L494.314 66.6678L495.262 66.984ZM494.398 68.328L495.105 69.0351L495.129 69.0116L495.151 68.9865L494.398 68.328ZM502.846 43.368L501.902 43.0389L501.439 44.368H502.846V43.368ZM520.702 43.368V44.368H522.12L521.644 43.0326L520.702 43.368ZM511.678 18.024L512.62 17.6886L511.668 15.0143L510.734 17.6949L511.678 18.024ZM480.286 68C480.049 68 479.793 67.9185 479.497 67.6647L478.195 69.1833C478.795 69.6975 479.5 70 480.286 70V68ZM479.606 67.7732C479.352 67.4772 479.27 67.2214 479.27 66.984H477.27C477.27 67.7706 477.573 68.4748 478.087 69.0748L479.606 67.7732ZM479.27 66.984C479.27 66.7291 479.296 66.5245 479.336 66.3625L477.396 65.8775C477.309 66.2275 477.27 66.5989 477.27 66.984H479.27ZM479.305 66.4637L501.865 4.83173L499.987 4.14426L477.427 65.7763L479.305 66.4637ZM501.891 4.75111C502.029 4.245 502.303 3.80213 502.743 3.4114L501.414 1.91659C500.701 2.54987 500.207 3.32299 499.961 4.22488L501.891 4.75111ZM502.747 3.40729C503.159 3.03672 503.762 2.8 504.67 2.8V0.799995C503.403 0.799995 502.278 1.13927 501.409 1.9207L502.747 3.40729ZM504.67 2.8H518.878V0.799995H504.67V2.8ZM518.878 2.8C519.793 2.8 520.335 3.03892 520.667 3.3711L522.081 1.95689C521.262 1.13707 520.14 0.799995 518.878 0.799995V2.8ZM520.75 3.44486C521.246 3.84166 521.528 4.27616 521.657 4.75111L523.587 4.22488C523.333 3.29183 522.783 2.51034 521.999 1.88313L520.75 3.44486ZM521.683 4.83044L544.147 66.4624L546.026 65.7776L523.562 4.14555L521.683 4.83044ZM544.192 66.5672C544.243 66.6687 544.278 66.8007 544.278 66.984H546.278C546.278 66.5273 546.186 66.0833 545.981 65.6728L544.192 66.5672ZM544.278 66.984C544.278 67.1708 544.207 67.4092 543.899 67.7169L545.313 69.1311C545.902 68.5428 546.278 67.8212 546.278 66.984H544.278ZM543.899 67.7169C543.715 67.9011 543.495 68 543.166 68V70C543.99 70 544.73 69.7149 545.313 69.1311L543.899 67.7169ZM543.166 68H531.358V70H543.166V68ZM531.358 68C530.542 68 530.076 67.8091 529.809 67.5754L528.492 69.0806C529.249 69.7429 530.255 70 531.358 70V68ZM529.903 67.6695C529.491 67.1986 529.302 66.8683 529.235 66.6678L527.338 67.3002C527.527 67.8677 527.914 68.4334 528.398 68.9865L529.903 67.6695ZM529.22 66.6269L525.476 56.8349L523.608 57.5491L527.352 67.3411L529.22 66.6269ZM524.542 56.192H498.91V58.192H524.542V56.192ZM497.973 56.8429L494.325 66.6349L496.199 67.3331L499.847 57.5411L497.973 56.8429ZM494.314 66.6678C494.247 66.8683 494.058 67.1986 493.646 67.6695L495.151 68.9865C495.635 68.4334 496.022 67.8677 496.211 67.3002L494.314 66.6678ZM493.691 67.6209C493.527 67.785 493.095 68 492.094 68V70C493.27 70 494.373 69.767 495.105 69.0351L493.691 67.6209ZM492.094 68H480.286V70H492.094V68ZM502.846 44.368H520.702V42.368H502.846V44.368ZM521.644 43.0326L512.62 17.6886L510.736 18.3594L519.76 43.7034L521.644 43.0326ZM510.734 17.6949L501.902 43.0389L503.791 43.6971L512.623 18.3531L510.734 17.6949ZM590.189 68.328L589.482 69.0351L589.505 69.0587L589.53 69.0806L590.189 68.328ZM589.517 45.96H590.517V44.96H589.517V45.96ZM564.365 43.272L564.812 42.3776L564.812 42.3776L564.365 43.272ZM555.917 35.688L555.062 36.2074L555.066 36.2135L555.07 36.2195L555.917 35.688ZM555.917 12.648L555.061 12.1311L555.058 12.1359L555.917 12.648ZM564.749 4.68L565.196 5.57443L565.196 5.57443L564.749 4.68ZM606.029 2.472L605.322 3.1791L605.345 3.20265L605.37 3.22458L606.029 2.472ZM606.029 68.328L605.37 67.5754L605.345 67.5973L605.322 67.6209L606.029 68.328ZM552.077 68.424L551.318 69.0748L551.343 69.104L551.37 69.1311L552.077 68.424ZM551.789 65.928L550.926 65.4233L550.909 65.4515L550.895 65.4808L551.789 65.928ZM566.381 40.968L566.557 39.9836L565.87 39.8609L565.518 40.4633L566.381 40.968ZM582.509 43.848L583.387 44.3263L584.051 43.1075L582.685 42.8636L582.509 43.848ZM570.221 66.408L571.078 66.9225L571.089 66.9046L571.099 66.8863L570.221 66.408ZM568.781 68.232L569.445 68.9794L569.467 68.9599L569.488 68.9391L568.781 68.232ZM589.517 32.424V33.424H590.517V32.424H589.517ZM589.517 15.144H590.517V14.144H589.517V15.144ZM573.005 17.736L573.754 18.3986L573.76 18.3916L573.766 18.3845L573.005 17.736ZM591.917 68C591.535 68 591.19 67.8748 590.848 67.5754L589.53 69.0806C590.212 69.6772 591.019 70 591.917 70V68ZM590.896 67.6209C590.657 67.3821 590.517 67.0711 590.517 66.6H588.517C588.517 67.5369 588.825 68.3779 589.482 69.0351L590.896 67.6209ZM590.517 66.6V45.96H588.517V66.6H590.517ZM589.517 44.96H576.749V46.96H589.517V44.96ZM576.749 44.96C572.207 44.96 568.236 44.0895 564.812 42.3776L563.918 44.1664C567.662 46.0385 571.947 46.96 576.749 46.96V44.96ZM564.812 42.3776C561.385 40.6642 558.711 38.2588 556.764 35.1565L555.07 36.2195C557.219 39.6452 560.177 42.2958 563.918 44.1664L564.812 42.3776ZM556.772 35.1686C554.898 32.0864 553.941 28.4009 553.941 24.072H551.941C551.941 28.7031 552.968 32.7616 555.062 36.2074L556.772 35.1686ZM553.941 24.072C553.941 19.9445 554.894 16.3171 556.776 13.1601L555.058 12.1359C552.972 15.6349 551.941 19.6235 551.941 24.072H553.941ZM556.773 13.1649C558.715 9.94839 561.511 7.41715 565.196 5.57443L564.302 3.78557C560.307 5.78285 557.215 8.5636 555.061 12.1311L556.773 13.1649ZM565.196 5.57443C568.862 3.74133 573.404 2.8 578.861 2.8V0.799995C573.182 0.799995 568.316 1.77866 564.302 3.78557L565.196 5.57443ZM578.861 2.8H604.397V0.799995H578.861V2.8ZM604.397 2.8C604.775 2.8 605.064 2.92077 605.322 3.1791L606.736 1.76489C606.098 1.12723 605.299 0.799995 604.397 0.799995V2.8ZM605.37 3.22458C605.657 3.47527 605.797 3.7729 605.797 4.2H607.797C607.797 3.21909 607.425 2.36472 606.688 1.71942L605.37 3.22458ZM605.797 4.2V66.6H607.797V4.2H605.797ZM605.797 66.6C605.797 67.0271 605.657 67.3247 605.37 67.5754L606.688 69.0806C607.425 68.4353 607.797 67.5809 607.797 66.6H605.797ZM605.322 67.6209C605.064 67.8792 604.775 68 604.397 68V70C605.299 70 606.098 69.6728 606.736 69.0351L605.322 67.6209ZM604.397 68H591.917V70H604.397V68ZM553.517 68C553.188 68 552.968 67.9011 552.784 67.7169L551.37 69.1311C551.954 69.7149 552.694 70 553.517 70V68ZM552.836 67.7732C552.583 67.4772 552.501 67.2214 552.501 66.984H550.501C550.501 67.7706 550.803 68.4748 551.318 69.0748L552.836 67.7732ZM552.501 66.984C552.501 66.863 552.538 66.6656 552.683 66.3752L550.895 65.4808C550.656 65.9584 550.501 66.465 550.501 66.984H552.501ZM552.652 66.4327L567.244 41.4727L565.518 40.4633L550.926 65.4233L552.652 66.4327ZM566.205 41.9524L582.333 44.8324L582.685 42.8636L566.557 39.9836L566.205 41.9524ZM581.631 43.3697L569.343 65.9297L571.099 66.8863L583.387 44.3263L581.631 43.3697ZM569.364 65.8935C569.025 66.4573 568.597 67.0015 568.074 67.5249L569.488 68.9391C570.117 68.3105 570.649 67.6387 571.078 66.9225L569.364 65.8935ZM568.117 67.4846C567.796 67.7697 567.214 68 566.189 68V70C567.468 70 568.614 69.7183 569.445 68.9794L568.117 67.4846ZM566.189 68H553.517V70H566.189V68ZM579.245 33.424H589.517V31.424H579.245V33.424ZM590.517 32.424V15.144H588.517V32.424H590.517ZM589.517 14.144H579.245V16.144H589.517V14.144ZM579.245 14.144C576.324 14.144 573.941 15.0948 572.244 17.0875L573.766 18.3845C575.013 16.9212 576.79 16.144 579.245 16.144V14.144ZM572.256 17.0734C570.598 18.9479 569.797 21.3075 569.797 24.072H571.797C571.797 21.7165 572.468 19.8521 573.754 18.3986L572.256 17.0734ZM569.797 24.072C569.797 26.8764 570.553 29.2 572.186 30.9072L573.632 29.5248C572.449 28.288 571.797 26.5155 571.797 24.072H569.797ZM572.186 30.9072C573.846 32.6424 576.263 33.424 579.245 33.424V31.424C576.595 31.424 574.788 30.7336 573.632 29.5248L572.186 30.9072ZM3.392 164.328L4.09911 163.621L4.09911 163.621L3.392 164.328ZM3.392 98.472L4.09911 99.1791L4.09911 99.1791L3.392 98.472ZM47.936 100.104L48.3359 99.1875L48.3359 99.1875L47.936 100.104ZM55.712 106.728L54.8461 107.228L54.8528 107.24L54.8597 107.251L55.712 106.728ZM56.96 122.952L56.0656 122.505L56.0622 122.511L56.059 122.518L56.96 122.952ZM53.792 127.272L53.123 126.529L53.1135 126.537L53.1043 126.546L53.792 127.272ZM50.336 129.768L49.9102 128.863L47.9938 129.765L49.9079 130.672L50.336 129.768ZM56.768 135.432L55.9516 136.009L55.9562 136.016L55.961 136.023L56.768 135.432ZM56.768 155.592L55.92 155.062L55.917 155.067L56.768 155.592ZM48.512 162.6L48.9197 163.513L48.927 163.51L48.512 162.6ZM19.904 152.52H18.904V153.52H19.904V152.52ZM39.584 150.12L40.3347 150.781L40.3347 150.781L39.584 150.12ZM39.488 138.984L38.7508 139.66L38.7583 139.668L38.766 139.676L39.488 138.984ZM19.904 136.68V135.68H18.904V136.68H19.904ZM19.904 124.488H18.904V125.488H19.904V124.488ZM38.336 122.472L37.6289 121.765L37.6203 121.774L37.6119 121.782L38.336 122.472ZM38.336 112.296L37.6119 112.986L37.6287 113.003L37.6463 113.02L38.336 112.296ZM19.904 110.28V109.28H18.904V110.28H19.904ZM5.12 164C4.64892 164 4.3379 163.86 4.09911 163.621L2.68489 165.035C3.3421 165.692 4.18308 166 5.12 166V164ZM4.09911 163.621C3.86031 163.382 3.72 163.071 3.72 162.6H1.72C1.72 163.537 2.02769 164.378 2.68489 165.035L4.09911 163.621ZM3.72 162.6V100.2H1.72V162.6H3.72ZM3.72 100.2C3.72 99.7289 3.86031 99.4179 4.09911 99.1791L2.6849 97.7649C2.02769 98.4221 1.72 99.2631 1.72 100.2H3.72ZM4.09911 99.1791C4.33791 98.9403 4.64892 98.8 5.12 98.8V96.8C4.18308 96.8 3.3421 97.1077 2.68489 97.7649L4.09911 99.1791ZM5.12 98.8H34.4V96.8H5.12V98.8ZM34.4 98.8C39.8214 98.8 44.1844 99.558 47.5361 101.021L48.3359 99.1875C44.6476 97.578 39.9866 96.8 34.4 96.8V98.8ZM47.5361 101.021C50.8917 102.485 53.305 104.561 54.8461 107.228L56.5779 106.228C54.791 103.135 52.0203 100.795 48.3359 99.1875L47.5361 101.021ZM54.8597 107.251C56.4748 109.883 57.304 113.055 57.304 116.808H59.304C59.304 112.753 58.4052 109.205 56.5643 106.205L54.8597 107.251ZM57.304 116.808C57.304 118.98 56.8824 120.871 56.0656 122.505L57.8544 123.399C58.8296 121.449 59.304 119.244 59.304 116.808H57.304ZM56.059 122.518C55.2771 124.142 54.2959 125.473 53.123 126.529L54.461 128.015C55.8481 126.767 56.979 125.218 57.861 123.386L56.059 122.518ZM53.1043 126.546C51.9375 127.651 50.8724 128.41 49.9102 128.863L50.7618 130.673C51.9757 130.102 53.2145 129.197 54.4797 127.998L53.1043 126.546ZM49.9079 130.672C52.1569 131.737 54.1755 133.499 55.9516 136.009L57.5844 134.855C55.6485 132.117 53.3791 130.103 50.7641 128.864L49.9079 130.672ZM55.961 136.023C57.7451 138.461 58.648 141.322 58.648 144.648H60.648C60.648 140.934 59.6309 137.651 57.575 134.841L55.961 136.023ZM58.648 144.648C58.648 148.716 57.7251 152.174 55.92 155.062L57.616 156.122C59.6509 152.866 60.648 149.028 60.648 144.648H58.648ZM55.917 155.067C54.1786 157.884 51.5898 160.097 48.097 161.69L48.927 163.51C52.7302 161.775 55.6455 159.316 57.619 156.117L55.917 155.067ZM48.1044 161.687C44.6841 163.214 40.4164 164 35.264 164V166C40.6076 166 45.1719 165.186 48.9197 163.513L48.1044 161.687ZM35.264 164H5.12V166H35.264V164ZM19.904 153.52H33.344V151.52H19.904V153.52ZM33.344 153.52C36.2941 153.52 38.6849 152.655 40.3347 150.781L38.8333 149.459C37.6671 150.785 35.8979 151.52 33.344 151.52V153.52ZM40.3347 150.781C41.8962 149.006 42.696 146.95 42.696 144.648H40.696C40.696 146.442 40.0878 148.034 38.8333 149.459L40.3347 150.781ZM42.696 144.648C42.696 142.165 41.8706 140.025 40.21 138.292L38.766 139.676C40.0494 141.015 40.696 142.651 40.696 144.648H42.696ZM40.2252 138.308C38.5765 136.51 36.2262 135.68 33.344 135.68V137.68C35.8378 137.68 37.5835 138.386 38.7508 139.66L40.2252 138.308ZM33.344 135.68H19.904V137.68H33.344V135.68ZM18.904 136.68V152.52H20.904V136.68H18.904ZM19.904 125.488H32.48V123.488H19.904V125.488ZM32.48 125.488C35.2623 125.488 37.5244 124.774 39.0601 123.162L37.6119 121.782C36.5876 122.858 34.9457 123.488 32.48 123.488V125.488ZM39.0431 123.179C40.5963 121.626 41.352 119.633 41.352 117.288H39.352C39.352 119.167 38.7637 120.63 37.6289 121.765L39.0431 123.179ZM41.352 117.288C41.352 114.998 40.5894 113.061 39.0257 111.572L37.6463 113.02C38.7706 114.091 39.352 115.482 39.352 117.288H41.352ZM39.0601 111.606C37.5244 109.994 35.2623 109.28 32.48 109.28V111.28C34.9457 111.28 36.5876 111.91 37.6119 112.986L39.0601 111.606ZM32.48 109.28H19.904V111.28H32.48V109.28ZM18.904 110.28V124.488H20.904V110.28H18.904ZM65.0338 164.424L64.2745 165.075L64.3246 165.133L64.383 165.183L65.0338 164.424ZM64.5538 162.12L63.6147 161.776L63.5965 161.826L63.5836 161.877L64.5538 162.12ZM87.1138 100.488L88.0528 100.832L88.0674 100.792L88.0785 100.751L87.1138 100.488ZM88.2657 98.664L88.9301 99.4114L88.9347 99.4073L88.2657 98.664ZM107.562 98.664L106.855 99.3711L106.894 99.4103L106.937 99.4449L107.562 98.664ZM108.81 100.488L107.845 100.751L107.856 100.791L107.87 100.83L108.81 100.488ZM131.274 162.12L130.334 162.462L130.354 162.516L130.379 162.567L131.274 162.12ZM130.794 164.424L131.501 165.131L131.501 165.131L130.794 164.424ZM115.338 164.328L114.585 164.987L114.629 165.037L114.679 165.081L115.338 164.328ZM114.474 162.984L115.422 162.668L115.416 162.647L115.408 162.627L114.474 162.984ZM110.73 153.192L111.664 152.835L111.418 152.192H110.73V153.192ZM85.0978 153.192V152.192H84.4032L84.1607 152.843L85.0978 153.192ZM81.4498 162.984L80.5127 162.635L80.5066 162.651L80.5011 162.668L81.4498 162.984ZM80.5858 164.328L81.2929 165.035L81.3164 165.012L81.3383 164.987L80.5858 164.328ZM89.0338 139.368L88.0894 139.039L87.6263 140.368H89.0338V139.368ZM106.89 139.368V140.368H108.307L107.832 139.033L106.89 139.368ZM97.8658 114.024L98.8078 113.689L97.8556 111.014L96.9214 113.695L97.8658 114.024ZM66.4738 164C66.2364 164 65.9806 163.918 65.6845 163.665L64.383 165.183C64.9829 165.698 65.6871 166 66.4738 166V164ZM65.793 163.773C65.5393 163.477 65.4578 163.221 65.4578 162.984H63.4578C63.4578 163.771 63.7602 164.475 64.2745 165.075L65.793 163.773ZM65.4578 162.984C65.4578 162.729 65.4834 162.525 65.5239 162.363L63.5836 161.877C63.4961 162.227 63.4578 162.599 63.4578 162.984H65.4578ZM65.4928 162.464L88.0528 100.832L86.1747 100.144L63.6147 161.776L65.4928 162.464ZM88.0785 100.751C88.2165 100.245 88.4906 99.8021 88.9301 99.4114L87.6014 97.9166C86.889 98.5499 86.395 99.323 86.149 100.225L88.0785 100.751ZM88.9347 99.4073C89.3465 99.0367 89.9493 98.8 90.8578 98.8V96.8C89.5902 96.8 88.465 97.1393 87.5968 97.9207L88.9347 99.4073ZM90.8578 98.8H105.066V96.8H90.8578V98.8ZM105.066 98.8C105.98 98.8 106.522 99.0389 106.855 99.3711L108.269 97.9569C107.449 97.1371 106.327 96.8 105.066 96.8V98.8ZM106.937 99.4449C107.433 99.8417 107.715 100.276 107.845 100.751L109.775 100.225C109.52 99.2918 108.97 98.5103 108.186 97.8831L106.937 99.4449ZM107.87 100.83L130.334 162.462L132.213 161.778L109.749 100.146L107.87 100.83ZM130.379 162.567C130.43 162.669 130.466 162.801 130.466 162.984H132.466C132.466 162.527 132.373 162.083 132.168 161.673L130.379 162.567ZM130.466 162.984C130.466 163.171 130.394 163.409 130.087 163.717L131.501 165.131C132.089 164.543 132.466 163.821 132.466 162.984H130.466ZM130.087 163.717C129.902 163.901 129.682 164 129.354 164V166C130.177 166 130.917 165.715 131.501 165.131L130.087 163.717ZM129.354 164H117.546V166H129.354V164ZM117.546 164C116.729 164 116.263 163.809 115.996 163.575L114.679 165.081C115.436 165.743 116.442 166 117.546 166V164ZM116.09 163.669C115.678 163.199 115.489 162.868 115.422 162.668L113.525 163.3C113.714 163.868 114.101 164.433 114.585 164.987L116.09 163.669ZM115.408 162.627L111.664 152.835L109.796 153.549L113.54 163.341L115.408 162.627ZM110.73 152.192H85.0978V154.192H110.73V152.192ZM84.1607 152.843L80.5127 162.635L82.3868 163.333L86.0348 153.541L84.1607 152.843ZM80.5011 162.668C80.4342 162.868 80.2452 163.199 79.8332 163.669L81.3383 164.987C81.8223 164.433 82.2093 163.868 82.3984 163.3L80.5011 162.668ZM79.8786 163.621C79.7145 163.785 79.282 164 78.2818 164V166C79.4575 166 80.561 165.767 81.2929 165.035L79.8786 163.621ZM78.2818 164H66.4738V166H78.2818V164ZM89.0338 140.368H106.89V138.368H89.0338V140.368ZM107.832 139.033L98.8078 113.689L96.9237 114.359L105.948 139.703L107.832 139.033ZM96.9214 113.695L88.0894 139.039L89.9781 139.697L98.8101 114.353L96.9214 113.695ZM139.705 164.328L140.412 163.621L140.412 163.621L139.705 164.328ZM139.705 98.472L140.412 99.1791L140.412 99.1791L139.705 98.472ZM155.545 98.472L154.837 99.1791L154.837 99.1791L155.545 98.472ZM156.217 123.336H155.217V124.336H156.217V123.336ZM162.073 123.336V124.336H162.639L162.93 123.85L162.073 123.336ZM176.281 99.624L175.433 99.094L175.428 99.102L175.423 99.11L176.281 99.624ZM177.625 98.376L178.11 99.2502L178.146 99.2305L178.179 99.208L177.625 98.376ZM195.193 98.472L194.433 99.1228L194.458 99.1519L194.485 99.1791L195.193 98.472ZM195.385 100.968L194.552 100.413L194.542 100.429L194.531 100.446L195.385 100.968ZM177.529 130.152L176.675 129.63L176.354 130.155L176.679 130.679L177.529 130.152ZM197.113 161.736L196.263 162.263L196.286 162.301L196.313 162.336L197.113 161.736ZM196.729 164.424L196.021 163.717L196.021 163.717L196.729 164.424ZM178.681 164.328L177.973 165.035L177.997 165.059L178.022 165.081L178.681 164.328ZM177.625 163.176L176.77 163.695L176.803 163.75L176.844 163.801L177.625 163.176ZM162.745 138.696L163.599 138.177L163.307 137.696H162.745V138.696ZM156.217 138.696V137.696H155.217V138.696H156.217ZM155.545 164.328L156.252 165.035L155.545 164.328ZM141.433 164C140.961 164 140.65 163.86 140.412 163.621L138.997 165.035C139.655 165.692 140.496 166 141.433 166V164ZM140.412 163.621C140.173 163.382 140.033 163.071 140.033 162.6H138.033C138.033 163.537 138.34 164.378 138.997 165.035L140.412 163.621ZM140.033 162.6V100.2H138.033V162.6H140.033ZM140.033 100.2C140.033 99.7289 140.173 99.4179 140.412 99.1791L138.997 97.7649C138.34 98.4221 138.033 99.2631 138.033 100.2H140.033ZM140.412 99.1791C140.65 98.9403 140.961 98.8 141.433 98.8V96.8C140.496 96.8 139.655 97.1077 138.997 97.7649L140.412 99.1791ZM141.433 98.8H153.817V96.8H141.433V98.8ZM153.817 98.8C154.288 98.8 154.599 98.9403 154.837 99.1791L156.252 97.7649C155.594 97.1077 154.753 96.8 153.817 96.8V98.8ZM154.837 99.1791C155.076 99.4179 155.217 99.7289 155.217 100.2H157.217C157.217 99.2631 156.909 98.4221 156.252 97.7649L154.837 99.1791ZM155.217 100.2V123.336H157.217V100.2H155.217ZM156.217 124.336H162.073V122.336H156.217V124.336ZM162.93 123.85L177.138 100.138L175.423 99.11L161.215 122.822L162.93 123.85ZM177.129 100.154C177.351 99.7984 177.668 99.4957 178.11 99.2502L177.139 97.5018C176.429 97.8963 175.85 98.4256 175.433 99.094L177.129 100.154ZM178.179 99.208C178.549 98.9616 179.076 98.8 179.833 98.8V96.8C178.797 96.8 177.852 97.0224 177.07 97.544L178.179 99.208ZM179.833 98.8H193.657V96.8H179.833V98.8ZM193.657 98.8C194.033 98.8 194.257 98.9168 194.433 99.1228L195.952 97.8212C195.36 97.1312 194.56 96.8 193.657 96.8V98.8ZM194.485 99.1791C194.694 99.3882 194.769 99.5865 194.769 99.816H196.769C196.769 99.0214 196.459 98.3238 195.9 97.7649L194.485 99.1791ZM194.769 99.816C194.769 99.9657 194.721 100.16 194.552 100.413L196.217 101.523C196.56 101.008 196.769 100.434 196.769 99.816H194.769ZM194.531 100.446L176.675 129.63L178.382 130.674L196.238 101.49L194.531 100.446ZM176.679 130.679L196.263 162.263L197.962 161.209L178.378 129.625L176.679 130.679ZM196.313 162.336C196.332 162.362 196.401 162.476 196.401 162.792H198.401C198.401 162.212 198.277 161.622 197.912 161.136L196.313 162.336ZM196.401 162.792C196.401 163.17 196.28 163.459 196.021 163.717L197.436 165.131C198.073 164.493 198.401 163.694 198.401 162.792H196.401ZM196.021 163.717C195.858 163.88 195.618 164 195.193 164V166C196.047 166 196.831 165.736 197.436 165.131L196.021 163.717ZM195.193 164H180.985V166H195.193V164ZM180.985 164C180.084 164 179.596 163.8 179.339 163.575L178.022 165.081C178.789 165.752 179.837 166 180.985 166V164ZM179.388 163.621C178.953 163.187 178.629 162.831 178.405 162.551L176.844 163.801C177.132 164.161 177.512 164.573 177.973 165.035L179.388 163.621ZM178.479 162.657L163.599 138.177L161.89 139.215L176.77 163.695L178.479 162.657ZM162.745 137.696H156.217V139.696H162.745V137.696ZM155.217 138.696V162.6H157.217V138.696H155.217ZM155.217 162.6C155.217 163.071 155.076 163.382 154.837 163.621L156.252 165.035C156.909 164.378 157.217 163.537 157.217 162.6H155.217ZM154.837 163.621C154.599 163.86 154.288 164 153.817 164V166C154.753 166 155.594 165.692 156.252 165.035L154.837 163.621ZM153.817 164H141.433V166H153.817V164ZM201.065 164.424L200.306 165.075L200.356 165.133L200.414 165.183L201.065 164.424ZM200.585 162.12L199.646 161.776L199.628 161.826L199.615 161.877L200.585 162.12ZM223.145 100.488L224.084 100.832L224.099 100.792L224.11 100.751L223.145 100.488ZM224.297 98.664L224.961 99.4114L224.966 99.4073L224.297 98.664ZM243.593 98.664L242.886 99.3711L242.925 99.4103L242.968 99.4449L243.593 98.664ZM244.841 100.488L243.876 100.751L243.887 100.791L243.901 100.83L244.841 100.488ZM267.305 162.12L266.365 162.462L266.385 162.516L266.411 162.567L267.305 162.12ZM266.825 164.424L267.532 165.131L267.532 165.131L266.825 164.424ZM251.369 164.328L250.616 164.987L250.66 165.037L250.71 165.081L251.369 164.328ZM250.505 162.984L251.454 162.668L251.447 162.647L251.439 162.627L250.505 162.984ZM246.761 153.192L247.695 152.835L247.449 152.192H246.761V153.192ZM221.129 153.192V152.192H220.434L220.192 152.843L221.129 153.192ZM217.481 162.984L216.544 162.635L216.538 162.651L216.532 162.668L217.481 162.984ZM216.617 164.328L217.324 165.035L217.348 165.012L217.37 164.987L216.617 164.328ZM225.065 139.368L224.121 139.039L223.658 140.368H225.065V139.368ZM242.921 139.368V140.368H244.339L243.863 139.033L242.921 139.368ZM233.897 114.024L234.839 113.689L233.887 111.014L232.953 113.695L233.897 114.024ZM202.505 164C202.268 164 202.012 163.918 201.716 163.665L200.414 165.183C201.014 165.698 201.718 166 202.505 166V164ZM201.824 163.773C201.571 163.477 201.489 163.221 201.489 162.984H199.489C199.489 163.771 199.791 164.475 200.306 165.075L201.824 163.773ZM201.489 162.984C201.489 162.729 201.515 162.525 201.555 162.363L199.615 161.877C199.527 162.227 199.489 162.599 199.489 162.984H201.489ZM201.524 162.464L224.084 100.832L222.206 100.144L199.646 161.776L201.524 162.464ZM224.11 100.751C224.248 100.245 224.522 99.8021 224.961 99.4114L223.633 97.9166C222.92 98.5499 222.426 99.323 222.18 100.225L224.11 100.751ZM224.966 99.4073C225.378 99.0367 225.981 98.8 226.889 98.8V96.8C225.621 96.8 224.496 97.1393 223.628 97.9207L224.966 99.4073ZM226.889 98.8H241.097V96.8H226.889V98.8ZM241.097 98.8C242.012 98.8 242.554 99.0389 242.886 99.3711L244.3 97.9569C243.48 97.1371 242.358 96.8 241.097 96.8V98.8ZM242.968 99.4449C243.464 99.8417 243.747 100.276 243.876 100.751L245.806 100.225C245.551 99.2918 245.002 98.5103 244.218 97.8831L242.968 99.4449ZM243.901 100.83L266.365 162.462L268.245 161.778L245.781 100.146L243.901 100.83ZM266.411 162.567C266.461 162.669 266.497 162.801 266.497 162.984H268.497C268.497 162.527 268.405 162.083 268.199 161.673L266.411 162.567ZM266.497 162.984C266.497 163.171 266.426 163.409 266.118 163.717L267.532 165.131C268.12 164.543 268.497 163.821 268.497 162.984H266.497ZM266.118 163.717C265.934 163.901 265.714 164 265.385 164V166C266.208 166 266.948 165.715 267.532 165.131L266.118 163.717ZM265.385 164H253.577V166H265.385V164ZM253.577 164C252.76 164 252.295 163.809 252.028 163.575L250.71 165.081C251.467 165.743 252.474 166 253.577 166V164ZM252.122 163.669C251.71 163.199 251.521 162.868 251.454 162.668L249.556 163.3C249.745 163.868 250.132 164.433 250.616 164.987L252.122 163.669ZM251.439 162.627L247.695 152.835L245.827 153.549L249.571 163.341L251.439 162.627ZM246.761 152.192H221.129V154.192H246.761V152.192ZM220.192 152.843L216.544 162.635L218.418 163.333L222.066 153.541L220.192 152.843ZM216.532 162.668C216.465 162.868 216.276 163.199 215.864 163.669L217.37 164.987C217.854 164.433 218.241 163.868 218.43 163.3L216.532 162.668ZM215.91 163.621C215.746 163.785 215.313 164 214.313 164V166C215.489 166 216.592 165.767 217.324 165.035L215.91 163.621ZM214.313 164H202.505V166H214.313V164ZM225.065 140.368H242.921V138.368H225.065V140.368ZM243.863 139.033L234.839 113.689L232.955 114.359L241.979 139.703L243.863 139.033ZM232.953 113.695L224.121 139.039L226.009 139.697L234.841 114.353L232.953 113.695ZM275.736 164.328L276.443 163.621L276.443 163.621L275.736 164.328ZM275.736 98.472L276.443 99.1791L276.443 99.1791L275.736 98.472ZM291.576 98.472L290.869 99.1791L290.869 99.1791L291.576 98.472ZM292.248 123.336H291.248V124.336H292.248V123.336ZM315.96 123.336V124.336H316.96V123.336H315.96ZM316.632 98.472L317.339 99.1791L317.339 99.1791L316.632 98.472ZM332.472 164.328L333.179 165.035L333.179 165.035L332.472 164.328ZM316.632 164.328L315.925 165.035L315.925 165.035L316.632 164.328ZM315.96 138.696H316.96V137.696H315.96V138.696ZM292.248 138.696V137.696H291.248V138.696H292.248ZM291.576 164.328L292.283 165.035L291.576 164.328ZM277.464 164C276.993 164 276.682 163.86 276.443 163.621L275.029 165.035C275.686 165.692 276.527 166 277.464 166V164ZM276.443 163.621C276.204 163.382 276.064 163.071 276.064 162.6H274.064C274.064 163.537 274.371 164.378 275.029 165.035L276.443 163.621ZM276.064 162.6V100.2H274.064V162.6H276.064ZM276.064 100.2C276.064 99.7289 276.204 99.4179 276.443 99.1791L275.029 97.7649C274.371 98.4221 274.064 99.2631 274.064 100.2H276.064ZM276.443 99.1791C276.682 98.9403 276.993 98.8 277.464 98.8V96.8C276.527 96.8 275.686 97.1077 275.029 97.7649L276.443 99.1791ZM277.464 98.8H289.848V96.8H277.464V98.8ZM289.848 98.8C290.319 98.8 290.63 98.9403 290.869 99.1791L292.283 97.7649C291.626 97.1077 290.785 96.8 289.848 96.8V98.8ZM290.869 99.1791C291.107 99.4179 291.248 99.7289 291.248 100.2H293.248C293.248 99.2631 292.94 98.4221 292.283 97.7649L290.869 99.1791ZM291.248 100.2V123.336H293.248V100.2H291.248ZM292.248 124.336H315.96V122.336H292.248V124.336ZM316.96 123.336V100.2H314.96V123.336H316.96ZM316.96 100.2C316.96 99.7289 317.1 99.4179 317.339 99.1791L315.925 97.7649C315.267 98.4221 314.96 99.2631 314.96 100.2H316.96ZM317.339 99.1791C317.578 98.9403 317.889 98.8 318.36 98.8V96.8C317.423 96.8 316.582 97.1077 315.925 97.7649L317.339 99.1791ZM318.36 98.8H330.744V96.8H318.36V98.8ZM330.744 98.8C331.215 98.8 331.526 98.9403 331.765 99.1791L333.179 97.7649C332.522 97.1077 331.681 96.8 330.744 96.8V98.8ZM331.765 99.1791C332.003 99.4179 332.144 99.7289 332.144 100.2H334.144C334.144 99.2631 333.836 98.4221 333.179 97.7649L331.765 99.1791ZM332.144 100.2V162.6H334.144V100.2H332.144ZM332.144 162.6C332.144 163.071 332.003 163.382 331.765 163.621L333.179 165.035C333.836 164.378 334.144 163.537 334.144 162.6H332.144ZM331.765 163.621C331.526 163.86 331.215 164 330.744 164V166C331.681 166 332.522 165.692 333.179 165.035L331.765 163.621ZM330.744 164H318.36V166H330.744V164ZM318.36 164C317.889 164 317.578 163.86 317.339 163.621L315.925 165.035C316.582 165.692 317.423 166 318.36 166V164ZM317.339 163.621C317.1 163.382 316.96 163.071 316.96 162.6H314.96C314.96 163.537 315.267 164.378 315.925 165.035L317.339 163.621ZM316.96 162.6V138.696H314.96V162.6H316.96ZM315.96 137.696H292.248V139.696H315.96V137.696ZM291.248 138.696V162.6H293.248V138.696H291.248ZM291.248 162.6C291.248 163.071 291.107 163.382 290.869 163.621L292.283 165.035C292.94 164.378 293.248 163.537 293.248 162.6H291.248ZM290.869 163.621C290.63 163.86 290.319 164 289.848 164V166C290.785 166 291.626 165.692 292.283 165.035L290.869 163.621ZM289.848 164H277.464V166H289.848V164ZM358.499 162.984L358.079 163.892L358.084 163.894L358.499 162.984ZM348.419 154.248L347.568 154.773L347.574 154.783L348.419 154.248ZM344.483 139.944L343.483 139.968L343.484 139.979L343.484 139.989L344.483 139.944ZM344.483 122.856L343.484 122.81L343.484 122.821L343.483 122.833L344.483 122.856ZM348.515 108.744L349.36 109.279L349.364 109.273L348.515 108.744ZM358.691 99.912L359.106 100.822L359.117 100.817L358.691 99.912ZM385.859 98.472L385.569 99.4289L385.576 99.4313L385.584 99.4335L385.859 98.472ZM395.267 103.08L394.661 103.875L394.667 103.88L394.673 103.885L395.267 103.08ZM401.507 110.376L400.617 110.831L400.623 110.843L400.629 110.855L401.507 110.376ZM403.907 119.976L402.907 119.994L402.908 120.04L402.913 120.086L403.907 119.976ZM403.331 121.416L402.68 120.657L402.651 120.682L402.624 120.709L403.331 121.416ZM387.011 121.512L386.36 122.271L386.394 122.3L386.43 122.326L387.011 121.512ZM385.859 119.496L384.892 119.751L384.9 119.782L384.91 119.812L385.859 119.496ZM381.443 112.584L380.901 113.424L380.916 113.434L380.932 113.444L381.443 112.584ZM365.699 113.64L366.383 114.37L366.389 114.364L366.395 114.358L365.699 113.64ZM362.339 123.336L361.34 123.294L361.34 123.299L362.339 123.336ZM362.339 139.464L361.34 139.499L361.34 139.506L362.339 139.464ZM365.699 149.256L365.003 149.974L365.009 149.98L365.015 149.986L365.699 149.256ZM381.539 150.216L381.009 149.368L381.009 149.368L381.539 150.216ZM385.859 143.304L384.893 143.046L384.891 143.054L384.889 143.061L385.859 143.304ZM386.915 141.384L387.496 142.198L387.506 142.191L387.515 142.184L386.915 141.384ZM403.331 141.384L402.624 142.091L402.651 142.118L402.68 142.143L403.331 141.384ZM403.907 142.824L402.913 142.714L402.908 142.76L402.907 142.806L403.907 142.824ZM401.507 152.52L400.625 152.049L400.621 152.057L401.507 152.52ZM395.267 159.816L395.861 160.621L395.867 160.616L395.873 160.611L395.267 159.816ZM385.859 164.424L386.134 165.386L386.142 165.383L386.149 165.381L385.859 164.424ZM374.147 164.96C368.173 164.96 363.105 163.985 358.914 162.074L358.084 163.894C362.597 165.951 367.961 166.96 374.147 166.96V164.96ZM358.919 162.076C354.798 160.17 351.589 157.384 349.264 153.713L347.574 154.783C350.113 158.792 353.624 161.83 358.079 163.892L358.919 162.076ZM349.27 153.723C347.012 150.061 345.732 145.469 345.482 139.899L343.484 139.989C343.746 145.811 345.09 150.755 347.568 154.773L349.27 153.723ZM345.483 139.92C345.419 137.305 345.387 134.497 345.387 131.496H343.387C343.387 134.511 343.419 137.335 343.483 139.968L345.483 139.92ZM345.387 131.496C345.387 128.495 345.419 125.623 345.483 122.879L343.483 122.833C343.419 125.593 343.387 128.481 343.387 131.496H345.387ZM345.482 122.902C345.732 117.469 347.04 112.942 349.36 109.279L347.67 108.209C345.126 112.226 343.746 117.107 343.484 122.81L345.482 122.902ZM349.364 109.273C351.687 105.543 354.925 102.728 359.106 100.822L358.276 99.0021C353.753 101.064 350.207 104.137 347.666 108.215L349.364 109.273ZM359.117 100.817C363.308 98.8446 368.308 97.84 374.147 97.84V95.84C368.082 95.84 362.778 96.8834 358.265 99.0072L359.117 100.817ZM374.147 97.84C378.285 97.84 382.09 98.3729 385.569 99.4289L386.149 97.5151C382.46 96.3951 378.457 95.84 374.147 95.84V97.84ZM385.584 99.4335C389.061 100.427 392.082 101.91 394.661 103.875L395.873 102.285C393.076 100.154 389.825 98.5652 386.134 97.5105L385.584 99.4335ZM394.673 103.885C397.241 105.78 399.217 108.094 400.617 110.831L402.397 109.921C400.853 106.898 398.669 104.348 395.861 102.275L394.673 103.885ZM400.629 110.855C402.079 113.513 402.846 116.552 402.907 119.994L404.907 119.958C404.84 116.232 404.007 112.871 402.385 109.897L400.629 110.855ZM402.913 120.086C402.94 120.327 402.882 120.483 402.68 120.657L403.982 122.175C404.676 121.581 405.002 120.777 404.901 119.866L402.913 120.086ZM402.624 120.709C402.44 120.893 402.22 120.992 401.891 120.992V122.992C402.714 122.992 403.454 122.707 404.038 122.123L402.624 120.709ZM401.891 120.992H388.931V122.992H401.891V120.992ZM388.931 120.992C388.207 120.992 387.804 120.85 387.592 120.698L386.43 122.326C387.114 122.814 387.991 122.992 388.931 122.992V120.992ZM387.662 120.753C387.418 120.544 387.106 120.076 386.808 119.18L384.91 119.812C385.252 120.836 385.708 121.712 386.36 122.271L387.662 120.753ZM386.826 119.241C385.894 115.714 384.314 113.126 381.954 111.724L380.932 113.444C382.668 114.474 384.032 116.494 384.892 119.751L386.826 119.241ZM381.985 111.744C379.804 110.336 377.14 109.664 374.051 109.664V111.664C376.85 111.664 379.114 112.272 380.901 113.424L381.985 111.744ZM374.051 109.664C370.336 109.664 367.279 110.717 365.003 112.922L366.395 114.358C368.215 112.595 370.726 111.664 374.051 111.664V109.664ZM365.015 112.91C362.687 115.093 361.536 118.643 361.34 123.294L363.338 123.378C363.526 118.941 364.615 116.027 366.383 114.37L365.015 112.91ZM361.34 123.299C361.147 128.572 361.147 133.972 361.34 139.499L363.338 139.429C363.147 133.948 363.147 128.596 363.338 123.373L361.34 123.299ZM361.34 139.506C361.537 144.161 362.688 147.731 365.003 149.974L366.395 148.538C364.614 146.813 363.525 143.855 363.338 139.422L361.34 139.506ZM365.015 149.986C367.292 152.12 370.344 153.136 374.051 153.136V151.136C370.718 151.136 368.202 150.232 366.383 148.526L365.015 149.986ZM374.051 153.136C377.141 153.136 379.83 152.463 382.069 151.064L381.009 149.368C379.152 150.529 376.849 151.136 374.051 151.136V153.136ZM382.069 151.064C384.414 149.598 385.961 147.02 386.829 143.547L384.889 143.061C384.093 146.244 382.76 148.274 381.009 149.368L382.069 151.064ZM386.825 143.562C387.064 142.666 387.339 142.31 387.496 142.198L386.334 140.57C385.595 141.098 385.166 142.022 384.893 143.046L386.825 143.562ZM387.515 142.184C387.808 141.964 388.25 141.808 388.931 141.808V139.808C387.948 139.808 387.046 140.036 386.315 140.584L387.515 142.184ZM388.931 141.808H401.891V139.808H388.931V141.808ZM401.891 141.808C402.22 141.808 402.44 141.907 402.624 142.091L404.038 140.677C403.454 140.093 402.714 139.808 401.891 139.808V141.808ZM402.68 142.143C402.882 142.317 402.94 142.473 402.913 142.714L404.901 142.934C405.002 142.023 404.676 141.219 403.982 140.625L402.68 142.143ZM402.907 142.806C402.846 146.248 402.079 149.322 400.625 152.049L402.389 152.991C404.007 149.958 404.84 146.568 404.907 142.842L402.907 142.806ZM400.621 152.057C399.221 154.735 397.24 157.056 394.661 159.021L395.873 160.611C398.67 158.48 400.849 155.937 402.393 152.983L400.621 152.057ZM394.673 159.011C392.087 160.92 389.057 162.408 385.569 163.467L386.149 165.381C389.829 164.264 393.071 162.68 395.861 160.621L394.673 159.011ZM385.584 163.462C382.101 164.458 378.29 164.96 374.147 164.96V166.96C378.452 166.96 382.449 166.438 386.134 165.386L385.584 163.462ZM414.673 164.328L413.921 164.987L413.943 165.012L413.966 165.035L414.673 164.328ZM414.673 98.472L414.015 97.7194L413.99 97.7413L413.966 97.7649L414.673 98.472ZM430.513 98.472L429.806 99.1791L429.806 99.1791L430.513 98.472ZM431.185 138.888H430.185V142.072L432.006 139.46L431.185 138.888ZM458.545 99.624L459.366 100.196L459.38 100.175L459.393 100.154L458.545 99.624ZM459.793 98.376L460.323 99.224L460.359 99.2015L460.393 99.176L459.793 98.376ZM474.577 98.472L473.87 99.1791L473.894 99.2027L473.919 99.2246L474.577 98.472ZM474.577 164.328L473.919 163.575L473.894 163.597L473.87 163.621L474.577 164.328ZM458.737 164.328L458.03 165.035L458.054 165.059L458.079 165.081L458.737 164.328ZM458.065 125.352H459.065V122.255L457.254 124.767L458.065 125.352ZM430.801 163.176L429.99 162.591L429.988 162.595L430.801 163.176ZM429.553 164.424L428.953 163.624L428.927 163.644L428.902 163.665L429.553 164.424ZM416.401 164C415.93 164 415.619 163.86 415.38 163.621L413.966 165.035C414.623 165.692 415.464 166 416.401 166V164ZM415.426 163.669C415.126 163.327 415.001 162.982 415.001 162.6H413.001C413.001 163.498 413.324 164.305 413.921 164.987L415.426 163.669ZM415.001 162.6V100.2H413.001V162.6H415.001ZM415.001 100.2C415.001 99.7289 415.142 99.4179 415.38 99.1791L413.966 97.7649C413.309 98.4221 413.001 99.2631 413.001 100.2H415.001ZM415.332 99.2246C415.674 98.9251 416.02 98.8 416.401 98.8V96.8C415.503 96.8 414.697 97.1228 414.015 97.7194L415.332 99.2246ZM416.401 98.8H428.785V96.8H416.401V98.8ZM428.785 98.8C429.256 98.8 429.567 98.9403 429.806 99.1791L431.22 97.7649C430.563 97.1077 429.722 96.8 428.785 96.8V98.8ZM429.806 99.1791C430.045 99.4179 430.185 99.7289 430.185 100.2H432.185C432.185 99.2631 431.878 98.4221 431.22 97.7649L429.806 99.1791ZM430.185 100.2V138.888H432.185V100.2H430.185ZM432.006 139.46L459.366 100.196L457.725 99.0523L430.365 138.316L432.006 139.46ZM459.393 100.154C459.633 99.7708 459.94 99.4635 460.323 99.224L459.263 97.528C458.622 97.9285 458.098 98.4532 457.697 99.094L459.393 100.154ZM460.393 99.176C460.687 98.9561 461.129 98.8 461.809 98.8V96.8C460.826 96.8 459.924 97.0279 459.193 97.576L460.393 99.176ZM461.809 98.8H472.945V96.8H461.809V98.8ZM472.945 98.8C473.323 98.8 473.612 98.9208 473.87 99.1791L475.284 97.7649C474.647 97.1272 473.847 96.8 472.945 96.8V98.8ZM473.919 99.2246C474.205 99.4753 474.345 99.7729 474.345 100.2H476.345C476.345 99.2191 475.973 98.3647 475.236 97.7194L473.919 99.2246ZM474.345 100.2V162.6H476.345V100.2H474.345ZM474.345 162.6C474.345 163.027 474.205 163.325 473.919 163.575L475.236 165.081C475.973 164.435 476.345 163.581 476.345 162.6H474.345ZM473.87 163.621C473.612 163.879 473.323 164 472.945 164V166C473.847 166 474.647 165.673 475.284 165.035L473.87 163.621ZM472.945 164H460.561V166H472.945V164ZM460.561 164C460.09 164 459.719 163.858 459.396 163.575L458.079 165.081C458.78 165.694 459.624 166 460.561 166V164ZM459.444 163.621C459.206 163.382 459.065 163.071 459.065 162.6H457.065C457.065 163.537 457.373 164.378 458.03 165.035L459.444 163.621ZM459.065 162.6V125.352H457.065V162.6H459.065ZM457.254 124.767L429.99 162.591L431.612 163.761L458.876 125.937L457.254 124.767ZM429.988 162.595C429.736 162.947 429.396 163.292 428.953 163.624L430.153 165.224C430.734 164.788 431.227 164.301 431.615 163.757L429.988 162.595ZM428.902 163.665C428.709 163.83 428.314 164 427.537 164V166C428.553 166 429.501 165.786 430.204 165.183L428.902 163.665ZM427.537 164H416.401V166H427.537V164ZM526.064 164.328L525.357 165.035L525.38 165.059L525.405 165.081L526.064 164.328ZM525.392 141.96H526.392V140.96H525.392V141.96ZM500.24 139.272L500.687 138.378L500.687 138.378L500.24 139.272ZM491.792 131.688L490.937 132.207L490.941 132.213L490.945 132.219L491.792 131.688ZM491.792 108.648L490.936 108.131L490.933 108.136L491.792 108.648ZM500.624 100.68L501.071 101.574L501.071 101.574L500.624 100.68ZM541.904 98.472L541.197 99.1791L541.22 99.2026L541.245 99.2246L541.904 98.472ZM541.904 164.328L541.245 163.575L541.22 163.597L541.197 163.621L541.904 164.328ZM487.952 164.424L487.193 165.075L487.218 165.104L487.245 165.131L487.952 164.424ZM487.664 161.928L486.801 161.423L486.784 161.452L486.77 161.481L487.664 161.928ZM502.256 136.968L502.432 135.984L501.745 135.861L501.393 136.463L502.256 136.968ZM518.384 139.848L519.262 140.326L519.926 139.108L518.56 138.864L518.384 139.848ZM506.096 162.408L506.953 162.922L506.964 162.905L506.974 162.886L506.096 162.408ZM504.656 164.232L505.32 164.979L505.342 164.96L505.363 164.939L504.656 164.232ZM525.392 128.424V129.424H526.392V128.424H525.392ZM525.392 111.144H526.392V110.144H525.392V111.144ZM508.88 113.736L509.629 114.399L509.635 114.392L509.641 114.384L508.88 113.736ZM527.792 164C527.41 164 527.065 163.875 526.723 163.575L525.405 165.081C526.087 165.677 526.894 166 527.792 166V164ZM526.771 163.621C526.532 163.382 526.392 163.071 526.392 162.6H524.392C524.392 163.537 524.7 164.378 525.357 165.035L526.771 163.621ZM526.392 162.6V141.96H524.392V162.6H526.392ZM525.392 140.96H512.624V142.96H525.392V140.96ZM512.624 140.96C508.082 140.96 504.111 140.089 500.687 138.378L499.793 140.166C503.537 142.039 507.822 142.96 512.624 142.96V140.96ZM500.687 138.378C497.26 136.664 494.586 134.259 492.639 131.157L490.945 132.219C493.094 135.645 496.052 138.296 499.793 140.166L500.687 138.378ZM492.647 131.169C490.773 128.086 489.816 124.401 489.816 120.072H487.816C487.816 124.703 488.843 128.762 490.937 132.207L492.647 131.169ZM489.816 120.072C489.816 115.944 490.769 112.317 492.651 109.16L490.933 108.136C488.847 111.635 487.816 115.624 487.816 120.072H489.816ZM492.648 109.165C494.59 105.948 497.386 103.417 501.071 101.574L500.177 99.7856C496.182 101.783 493.09 104.564 490.936 108.131L492.648 109.165ZM501.071 101.574C504.737 99.7413 509.279 98.8 514.736 98.8V96.8C509.057 96.8 504.191 97.7787 500.177 99.7856L501.071 101.574ZM514.736 98.8H540.272V96.8H514.736V98.8ZM540.272 98.8C540.65 98.8 540.939 98.9208 541.197 99.1791L542.611 97.7649C541.973 97.1272 541.174 96.8 540.272 96.8V98.8ZM541.245 99.2246C541.532 99.4753 541.672 99.7729 541.672 100.2H543.672C543.672 99.2191 543.3 98.3647 542.563 97.7194L541.245 99.2246ZM541.672 100.2V162.6H543.672V100.2H541.672ZM541.672 162.6C541.672 163.027 541.532 163.325 541.245 163.575L542.563 165.081C543.3 164.435 543.672 163.581 543.672 162.6H541.672ZM541.197 163.621C540.939 163.879 540.65 164 540.272 164V166C541.174 166 541.973 165.673 542.611 165.035L541.197 163.621ZM540.272 164H527.792V166H540.272V164ZM489.392 164C489.063 164 488.843 163.901 488.659 163.717L487.245 165.131C487.829 165.715 488.569 166 489.392 166V164ZM488.711 163.773C488.458 163.477 488.376 163.221 488.376 162.984H486.376C486.376 163.771 486.678 164.475 487.193 165.075L488.711 163.773ZM488.376 162.984C488.376 162.863 488.413 162.666 488.558 162.375L486.77 161.481C486.531 161.958 486.376 162.465 486.376 162.984H488.376ZM488.527 162.433L503.119 137.473L501.393 136.463L486.801 161.423L488.527 162.433ZM502.08 137.952L518.208 140.832L518.56 138.864L502.432 135.984L502.08 137.952ZM517.506 139.37L505.218 161.93L506.974 162.886L519.262 140.326L517.506 139.37ZM505.239 161.894C504.9 162.457 504.472 163.001 503.949 163.525L505.363 164.939C505.992 164.311 506.524 163.639 506.953 162.922L505.239 161.894ZM503.992 163.485C503.671 163.77 503.089 164 502.064 164V166C503.343 166 504.489 165.718 505.32 164.979L503.992 163.485ZM502.064 164H489.392V166H502.064V164ZM515.12 129.424H525.392V127.424H515.12V129.424ZM526.392 128.424V111.144H524.392V128.424H526.392ZM525.392 110.144H515.12V112.144H525.392V110.144ZM515.12 110.144C512.199 110.144 509.816 111.095 508.119 113.088L509.641 114.384C510.888 112.921 512.665 112.144 515.12 112.144V110.144ZM508.131 113.073C506.473 114.948 505.672 117.307 505.672 120.072H507.672C507.672 117.717 508.343 115.852 509.629 114.399L508.131 113.073ZM505.672 120.072C505.672 122.876 506.428 125.2 508.061 126.907L509.507 125.525C508.324 124.288 507.672 122.516 507.672 120.072H505.672ZM508.061 126.907C509.721 128.642 512.138 129.424 515.12 129.424V127.424C512.47 127.424 510.663 126.734 509.507 125.525L508.061 126.907Z" fill="url(#paint0_linear_1_848)"/>
<defs>
<linearGradient id="paint0_linear_1_848" x1="314.55" y1="-12" x2="310.088" y2="209.277" gradientUnits="userSpaceOnUse">
<stop stop-color="white"/>
<stop offset="1" stop-color="white" stop-opacity="0.2"/>
</linearGradient>
</defs>
</svg>
